<svg width="79" height="79" viewBox="0 0 79 79" fill="none" xmlns="http://www.w3.org/2000/svg">
<g filter="url(#filter0_d)">
<path fill-rule="evenodd" clip-rule="evenodd" d="M46.8009 1.20229C44.4711 0.642605 42.0467 0.354492 39.5437 0.354492C37.0433 0.354492 34.6143 0.643736 32.2866 1.20229L33.8417 7.04284C35.6719 6.61298 37.5841 6.38343 39.5437 6.38343C41.5114 6.38343 43.4088 6.60951 45.2458 7.04284L46.8009 1.20229ZM32.3809 7.41969L30.8258 1.6026C26.0336 3.00437 21.7379 5.52951 18.2201 8.87983L22.4848 13.1425C25.2608 10.5282 28.6365 8.54509 32.3809 7.41969ZM60.8438 8.87983C57.3307 5.53584 53.0453 3.00437 48.2617 1.6026L46.7066 7.41969C50.4458 8.54426 53.8057 10.5329 56.5791 13.1425L60.8438 8.87983ZM61.4093 31.253C61.4093 19.1649 51.6376 9.37447 39.5437 9.37447C27.4499 9.37447 17.6782 19.1649 17.6782 31.253C17.6782 43.3409 27.4499 53.1079 39.5437 53.1079C51.6376 53.1079 61.4093 43.3409 61.4093 31.253ZM21.4245 14.2022L17.1598 9.93966C13.8079 13.4557 11.2815 17.7493 9.87916 22.5392L15.699 24.0935C16.825 20.3509 18.809 16.9769 21.4245 14.2022ZM69.2083 22.5392C67.8068 17.752 65.2767 13.4546 61.9277 9.93966L57.6394 14.2257C60.2489 16.9977 62.2405 20.3569 63.3649 24.0935L69.2083 22.5392ZM15.322 25.5301L9.50217 23.9758C8.93896 26.3108 8.63037 28.7437 8.63037 31.253C8.63037 33.7522 8.91972 36.1806 9.4786 38.5066L15.322 36.9522C14.8885 35.1166 14.6622 33.2197 14.6622 31.253C14.6622 29.2862 14.8885 27.3662 15.322 25.5301ZM70.4571 31.253C70.4571 28.7443 70.1482 26.3102 69.5853 23.9758L63.7419 25.5301C64.1759 27.367 64.4253 29.2852 64.4253 31.253C64.4253 33.2207 64.1759 35.1157 63.7419 36.9522L69.5853 38.5066C70.1448 36.1796 70.4571 33.7534 70.4571 31.253ZM21.4245 48.2801C18.81 45.5084 16.8252 42.1521 15.699 38.4123L9.87916 39.9667C11.2815 44.7464 13.8142 49.034 17.1598 52.5427L21.4245 48.2801ZM69.2083 39.9667L63.3649 38.4123C62.2404 42.1461 60.2479 45.4874 57.6394 48.2565L61.9277 52.5662C65.2763 49.0564 67.8051 44.7493 69.2083 39.9667ZM32.3809 55.0626C28.6365 53.9383 25.2608 51.9522 22.4848 49.3399L18.1966 53.6261C21.7107 56.9721 26.015 59.5011 30.8022 60.9033L32.3809 55.0626ZM60.8674 53.6261L56.5791 49.3399C53.8057 51.9476 50.4458 53.9391 46.7066 55.0626L48.2617 60.8797C53.0466 59.4785 57.3541 56.9695 60.8674 53.6261ZM39.5437 56.0989C37.5841 56.0989 35.6719 55.8689 33.8417 55.4395L32.2866 61.28C34.6143 61.8379 37.0433 62.1279 39.5437 62.1279C42.0467 62.1279 44.4711 61.839 46.8009 61.28L45.2458 55.4395C43.4088 55.8723 41.5114 56.0989 39.5437 56.0989ZM28.0637 35.952C28.149 36.0266 28.245 36.064 28.3517 36.064H30.4317C30.549 36.064 30.645 36.0266 30.7197 35.952C30.7944 35.8666 30.8317 35.7706 30.8317 35.664L30.8317 25.264C30.8317 25.1466 30.7944 25.0506 30.7197 24.976C30.645 24.9013 30.549 24.864 30.4317 24.864H28.4317C28.293 24.864 28.165 24.9013 28.0477 24.976L24.3677 27.824C24.2397 27.8986 24.1757 28.0106 24.1757 28.16C24.1757 28.2346 24.2024 28.3146 24.2557 28.4L25.1997 29.632C25.2957 29.76 25.4024 29.824 25.5197 29.824C25.605 29.824 25.685 29.792 25.7597 29.728L27.9517 28.048L27.9517 35.664C27.9517 35.7706 27.989 35.8666 28.0637 35.952ZM33.9528 35.056C34.7102 35.824 35.8248 36.2133 37.2968 36.224C38.7688 36.2133 39.8835 35.824 40.6408 35.056C41.3982 34.2773 41.8142 33.2586 41.8888 32C41.9102 31.424 41.9208 30.912 41.9208 30.464C41.9208 30.0053 41.9102 29.4773 41.8888 28.88C41.8248 27.6426 41.4035 26.64 40.6248 25.872C39.8462 25.104 38.7368 24.7146 37.2968 24.704C36.3262 24.704 35.5048 24.8906 34.8328 25.264C34.1608 25.6266 33.6488 26.1226 33.2968 26.752C32.9555 27.3706 32.7635 28.08 32.7208 28.88C32.6995 29.4773 32.6888 30.0053 32.6888 30.464C32.6888 30.912 32.6995 31.424 32.7208 32C32.7848 33.2586 33.1955 34.2773 33.9528 35.056ZM38.4648 33.392C38.2088 33.7333 37.8195 33.904 37.2968 33.904C36.2835 33.904 35.7502 33.2426 35.6968 31.92C35.6862 31.6106 35.6808 31.1146 35.6808 30.432C35.6808 29.7493 35.6862 29.264 35.6968 28.976C35.7182 28.368 35.8568 27.888 36.1128 27.536C36.3795 27.184 36.7742 27.0026 37.2968 26.992C37.8302 27.0026 38.2248 27.184 38.4808 27.536C38.7368 27.888 38.8755 28.368 38.8968 28.976C38.9182 29.264 38.9288 29.7493 38.9288 30.432C38.9288 31.1146 38.9182 31.6106 38.8968 31.92C38.8755 32.5493 38.7315 33.04 38.4648 33.392ZM44.8278 35.056C45.5852 35.824 46.6998 36.2133 48.1718 36.224C49.6438 36.2133 50.7585 35.824 51.5158 35.056C52.2732 34.2773 52.6892 33.2586 52.7638 32C52.7852 31.424 52.7958 30.912 52.7958 30.464C52.7958 30.0053 52.7852 29.4773 52.7638 28.88C52.6998 27.6426 52.2785 26.64 51.4998 25.872C50.7212 25.104 49.6118 24.7146 48.1718 24.704C47.2012 24.704 46.3798 24.8906 45.7078 25.264C45.0358 25.6266 44.5238 26.1226 44.1718 26.752C43.8305 27.3706 43.6385 28.08 43.5958 28.88C43.5745 29.4773 43.5638 30.0053 43.5638 30.464C43.5638 30.912 43.5745 31.424 43.5958 32C43.6598 33.2586 44.0705 34.2773 44.8278 35.056ZM49.3398 33.392C49.0838 33.7333 48.6945 33.904 48.1718 33.904C47.1585 33.904 46.6252 33.2426 46.5718 31.92C46.5612 31.6106 46.5558 31.1146 46.5558 30.432C46.5558 29.7493 46.5612 29.264 46.5718 28.976C46.5932 28.368 46.7318 27.888 46.9878 27.536C47.2545 27.184 47.6492 27.0026 48.1718 26.992C48.7052 27.0026 49.0998 27.184 49.3558 27.536C49.6118 27.888 49.7505 28.368 49.7718 28.976C49.7932 29.264 49.8038 29.7493 49.8038 30.432C49.8038 31.1146 49.7932 31.6106 49.7718 31.92C49.7505 32.5493 49.6065 33.04 49.3398 33.392Z" fill="url(#paint0_linear)"/>
</g>
<defs>
<filter id="filter0_d" x="0.630371" y="0.354492" width="77.8268" height="77.7734" filterUnits="userSpaceOnUse" color-interpolation-filters="sRGB">
<feFlood flood-opacity="0" result="BackgroundImageFix"/>
<feColorMatrix in="SourceAlpha" type="matrix" values="0 0 0 0 0 0 0 0 0 0 0 0 0 0 0 0 0 0 127 0" result="hardAlpha"/>
<feOffset dy="8"/>
<feGaussianBlur stdDeviation="4"/>
<feColorMatrix type="matrix" values="0 0 0 0 0 0 0 0 0 0 0 0 0 0 0 0 0 0 0.5 0"/>
<feBlend mode="normal" in2="BackgroundImageFix" result="effect1_dropShadow"/>
<feBlend mode="normal" in="SourceGraphic" in2="effect1_dropShadow" result="shape"/>
</filter>
<linearGradient id="paint0_linear" x1="10.6867" y1="5.30338" x2="35.2479" y2="60.4187" gradientUnits="userSpaceOnUse">
<stop stop-color="#22D5A6"/>
<stop offset="0.380208" stop-color="#52F1C2"/>
<stop offset="0.5625" stop-color="#39FFD0"/>
<stop offset="0.760417" stop-color="#14BA9D"/>
</linearGradient>
</defs>
</svg>
