<svg width="63" height="63" viewBox="0 0 63 63" fill="none" xmlns="http://www.w3.org/2000/svg">
<path d="M31.5437 0.354492C34.0467 0.354492 36.4711 0.642605 38.8009 1.20229L37.2458 7.04284C35.4088 6.60951 33.5114 6.38343 31.5437 6.38343C29.5841 6.38343 27.6719 6.61298 25.8417 7.04284L24.2866 1.20229C26.6143 0.643736 29.0433 0.354492 31.5437 0.354492ZM22.8258 1.6026L24.3809 7.41969C20.6365 8.54509 17.2608 10.5282 14.4848 13.1425L10.2201 8.87983C13.7379 5.52951 18.0336 3.00437 22.8258 1.6026ZM40.2617 1.6026C45.0453 3.00437 49.3307 5.53584 52.8438 8.87983L48.5791 13.1425C45.8057 10.5329 42.4458 8.54426 38.7066 7.41969L40.2617 1.6026ZM31.5437 9.37447C43.6376 9.37447 53.4093 19.1649 53.4093 31.253C53.4093 43.3409 43.6376 53.1079 31.5437 53.1079C19.4499 53.1079 9.67819 43.3409 9.67819 31.253C9.67819 19.1649 19.4499 9.37447 31.5437 9.37447ZM9.15982 9.93966L13.4245 14.2022C10.809 16.9769 8.825 20.3509 7.69898 24.0935L1.87916 22.5392C3.28149 17.7493 5.80795 13.4557 9.15982 9.93966ZM53.9277 9.93966C57.2767 13.4546 59.8068 17.752 61.2083 22.5392L55.3649 24.0935C54.2405 20.3569 52.2489 16.9977 49.6394 14.2257L53.9277 9.93966ZM1.50217 23.9758L7.32199 25.5301C6.88848 27.3662 6.66225 29.2862 6.66225 31.253C6.66225 33.2197 6.88848 35.1166 7.32199 36.9522L1.4786 38.5066C0.91972 36.1806 0.630371 33.7522 0.630371 31.253C0.630371 28.7437 0.938962 26.3108 1.50217 23.9758ZM61.5853 23.9758C62.1482 26.3102 62.4571 28.7443 62.4571 31.253C62.4571 33.7534 62.1448 36.1796 61.5853 38.5066L55.7419 36.9522C56.1759 35.1157 56.4253 33.2207 56.4253 31.253C56.4253 29.2852 56.1759 27.367 55.7419 25.5301L61.5853 23.9758ZM7.69898 38.4123C8.82523 42.1521 10.81 45.5084 13.4245 48.2801L9.15982 52.5427C5.81421 49.034 3.28154 44.7464 1.87916 39.9667L7.69898 38.4123ZM55.3649 38.4123L61.2083 39.9667C59.8051 44.7493 57.2763 49.0564 53.9277 52.5662L49.6394 48.2565C52.2479 45.4874 54.2404 42.1461 55.3649 38.4123ZM14.4848 49.3399C17.2608 51.9522 20.6365 53.9383 24.3809 55.0626L22.8022 60.9033C18.015 59.5011 13.7107 56.9721 10.1966 53.6261L14.4848 49.3399ZM48.5791 49.3399L52.8674 53.6261C49.3541 56.9695 45.0466 59.4785 40.2617 60.8797L38.7066 55.0626C42.4458 53.9391 45.8057 51.9476 48.5791 49.3399ZM25.8417 55.4395C27.6719 55.8689 29.5841 56.0989 31.5437 56.0989C33.5114 56.0989 35.4088 55.8723 37.2458 55.4395L38.8009 61.28C36.4711 61.839 34.0467 62.1279 31.5437 62.1279C29.0433 62.1279 26.6143 61.8379 24.2866 61.28L25.8417 55.4395Z" fill="url(#paint0_linear)"/>
<defs>
<linearGradient id="paint0_linear" x1="2.68675" y1="5.30338" x2="27.2479" y2="60.4187" gradientUnits="userSpaceOnUse">
<stop stop-color="#22D5A6"/>
<stop offset="0.380208" stop-color="#52F1C2"/>
<stop offset="0.5625" stop-color="#39FFD0"/>
<stop offset="0.760417" stop-color="#14BA9D"/>
</linearGradient>
</defs>
</svg>
