<svg width="45" height="32" viewBox="0 0 45 32" fill="none" xmlns="http://www.w3.org/2000/svg">
<path d="M11.1314 5.52863C15.738 2.8539 23.7878 4.65224 25.3754 5.04231C25.3004 5.65046 25.3814 6.35383 25.5569 7.08995C20.2002 7.3454 16.9316 9.71298 15.932 10.5576C16.5996 7.07715 13.4065 5.91921 11.1314 5.52863ZM27.9189 12.6503C26.5064 13.6931 25.3754 15.1459 24.6878 16.1441C24.2188 14.7753 21.9067 14.698 20.9132 14.7302C21.6442 13.9306 24.2068 11.3521 26.9319 10.7568C27.3379 11.6076 27.7124 12.292 27.9189 12.6503ZM16.3631 11.025C17.3566 10.2126 20.5752 7.93409 25.7259 7.72319C25.9759 8.55555 26.3134 9.40686 26.6569 10.1614C24.0198 10.7952 21.6442 13.0343 20.6762 14.0519C21.4122 10.9615 17.7816 10.9293 16.3631 11.025ZM1.81956 22.6198L1.67606 21.942L2.52008 22.0126C2.68209 21.878 2.8386 21.75 2.9946 21.6354V20.5348L3.93213 20.9955C4.20714 20.8296 4.47615 20.6817 4.73216 20.5547L4.99467 19.429L5.8322 20.1442C6.12571 20.0618 6.40672 20.01 6.68222 19.9788L6.98874 19.0702L7.63826 19.9788C7.93877 20.0039 8.22628 20.0618 8.50729 20.1385L9.14981 19.4864L9.54432 20.5486C9.67532 20.6121 9.80583 20.6822 9.93734 20.7595L10.7944 20.1196L11.1939 21.5913C11.2879 21.662 11.3884 21.7316 11.4814 21.8017L12.3874 21.3093V22.4995C12.5759 22.6397 12.7564 22.781 12.9439 22.9151L14.0625 22.3008L14.544 23.8683C14.7125 23.9451 14.894 24.0081 15.069 24.0603L15.8445 22.7165L16.7701 24.1504C16.8886 24.1309 17.0081 24.1053 17.1256 24.0797L17.3251 22.4677L18.8066 23.3564C18.9256 23.2852 19.0446 23.2161 19.1561 23.1383L18.7311 21.5263L20.3007 22.2614C20.4377 22.1324 20.5817 22.0044 20.7262 21.8775L20.2137 20.1175L21.8207 20.7697C21.9197 20.6673 22.0142 20.565 22.1077 20.4564L21.4012 18.7354L23.1948 19.2094C23.2883 19.0937 23.3823 18.9852 23.4758 18.8705L22.6198 16.9949L23.9508 17.4556L24.4758 17.6404C24.5008 17.622 24.5193 17.6025 24.5318 17.5769C24.5318 17.5769 24.5318 17.5703 24.5378 17.5647C24.5568 17.5391 24.6003 17.4556 24.6818 17.3276V17.3205C25.1383 16.5654 26.6129 14.3202 28.513 13.0087C28.6505 12.9124 28.6945 12.7205 28.607 12.573C28.5945 12.5479 28.0004 11.5559 27.3754 10.2315C26.9634 9.34184 26.5319 8.31188 26.2629 7.32645C26.2564 7.30086 26.2504 7.28141 26.2444 7.26195C26.0004 6.37277 25.8944 5.52811 26.0379 4.87543C26.0754 4.7024 25.9754 4.53603 25.8129 4.4915C25.3754 4.37017 15.3125 1.6632 10.1628 5.40065C9.46282 5.33001 8.9878 5.33666 8.9878 5.33666C16.113 -0.550304 27.2879 4.17207 27.2879 4.17207C26.5814 7.20513 28.8755 10.8781 29.619 11.972C29.894 11.7417 30.169 11.5303 30.444 11.3322C30.444 11.3322 30.494 11.1596 30.594 10.8714L28.5 8.98351H31.3311C31.3686 8.88727 31.4121 8.79154 31.4561 8.6953L29.256 6.85243L32.3496 6.97375C32.3936 6.90362 32.4371 6.82683 32.4871 6.75004L30.281 4.67067L33.7811 4.93942C33.8751 4.83089 33.9686 4.72186 34.0622 4.61947L32.5246 1.65705L35.1497 3.6146C35.1557 3.60845 35.1557 3.60845 35.1617 3.60845C35.2742 3.51938 35.3927 3.4298 35.5182 3.35301L36.5432 0L37.1433 3.25063C37.2933 3.28237 37.4368 3.30796 37.5743 3.3397L40.1304 1.13234L38.9678 3.73694C40.7989 4.44082 40.8364 5.42573 44.505 7.42935C44.955 7.65305 45.1425 8.22895 44.88 8.67022C44.4235 9.45037 43.0925 10.4174 40.6989 9.17547C40.6989 9.17547 38.1113 9.78362 36.6487 9.25891C36.6487 9.25891 35.4172 11.3449 35.0737 13.4566C35.0422 13.6229 35.0172 13.7888 35.0047 13.9613C34.9487 14.5505 34.9802 15.1198 35.1422 15.6383C36.1672 17.5191 37.3548 22.2159 34.2232 25.4793C34.2232 25.4793 33.7356 28.9608 34.2232 29.5106C34.2232 29.5106 37.5673 29.7855 38.4858 31.226V32H32.5481C31.7921 31.0852 31.3481 29.3831 31.0791 27.4834C31.0791 27.4834 31.0731 27.4834 31.0666 27.4896C30.9415 26.6065 30.729 24.9618 30.7975 24.4058C30.8165 24.2333 30.6915 24.0736 30.5225 24.048C30.3475 24.0357 30.1975 24.1565 30.1785 24.3295C30.0845 25.1164 30.4225 27.401 30.4845 27.8423C29.691 28.3158 28.2535 29.0959 27.1719 29.3074V29.2992C27.5219 28.0005 28.3405 24.9745 26.9779 23.7521C26.1779 23.0411 24.8778 23.0994 22.9903 23.9313C22.8278 24.0019 22.7528 24.1939 22.8218 24.3531C22.8903 24.5189 23.0783 24.5901 23.2343 24.5189C24.8588 23.8089 25.9779 23.7071 26.5654 24.2379C27.6344 25.1911 26.8594 28.0511 26.5654 29.1261L26.5219 29.2992C26.5219 29.3115 26.5159 29.3309 26.5159 29.3442H26.4969V29.9524C26.4969 29.9524 30.3345 30.8866 30.0655 32H21.8592C21.8592 32 21.2657 30.669 21.8592 29.9524C5.8822 33.1139 13.4935 17.0783 0 24.4811C0.63752 23.7649 1.24304 23.1445 1.81956 22.6198ZM39.2003 5.06842C39.2063 5.07456 39.2063 5.07456 39.2063 5.07456C39.2188 5.14521 39.2253 5.21483 39.2438 5.27933C39.2813 5.41959 39.3378 5.55422 39.4313 5.66991C39.5188 5.78509 39.6373 5.85471 39.7753 5.89976C39.8498 5.91921 39.9253 5.93867 40.0004 5.94481C40.1134 5.9571 40.2319 5.9571 40.3504 5.94481C40.4629 5.93867 40.5754 5.91307 40.6814 5.88748C40.6879 5.88748 40.6939 5.88748 40.7004 5.88133C40.7004 5.88133 40.7064 5.87468 40.7129 5.87468C40.7129 5.86854 40.7189 5.86239 40.7254 5.84908V5.8368C40.7004 5.80455 40.6754 5.77946 40.6504 5.7467C40.5379 5.63818 40.4189 5.54859 40.2879 5.46566C40.2129 5.42676 40.1439 5.38273 40.0689 5.34383C39.8688 5.24196 39.6628 5.158 39.4503 5.09453C39.3693 5.07508 39.2818 5.04948 39.2003 5.03054V5.06842Z" fill="#458EB0"/>
</svg>
