<svg xmlns="http://www.w3.org/2000/svg" xmlns:xlink="http://www.w3.org/1999/xlink" width="11px" height="18px" viewBox="0 0 11 18" version="1.1">
<g id="Page-1" stroke="none" stroke-width="1" fill="none" fill-rule="evenodd">
<g id="2.-Company" transform="translate(-187.000000, -1055.000000)" fill="#92ffd1" fill-rule="nonzero">
<g id="Scroll">
<g id="Group-5" transform="translate(60.000000, 1052.000000)">
<g id="noun_Pixel-arrow_801787" transform="translate(127.000000, 3.000000)">
<g id="Group">
<g id="a-link">
<g id="a">
<path d="M7.33333333,14.4 L7.33333333,10.8 L3.66666667,10.8 L3.66666667,14.4 L7.33333333,14.4 L7.33333333,14.4 Z M0,14.4 L0,18 L3.66666667,18 L3.66666667,14.4 L0,14.4 L0,14.4 Z M3.66666667,7.2 L7.33333333,7.2 L7.33333333,3.6 L3.66666667,3.6 L3.66666667,7.2 L3.66666667,7.2 Z M11,7.2 L7.33333333,7.2 L7.33333333,10.8 L11,10.8 L11,7.2 L11,7.2 Z M3.66666667,3.6 L3.66666667,0 L0,0 L0,3.6 L3.66666667,3.6 Z" id="Shape"/>
</g>
</g>
</g>
</g>
</g>
</g>
</g>
</g>
</svg>