<svg width="35" height="34" viewBox="0 0 35 34" fill="none" xmlns="http://www.w3.org/2000/svg">
<rect x="29.6917" y="26" width="23" height="24" rx="10" transform="rotate(-180 29.6917 26)" fill="url(#paint0_linear)" fill-opacity="0.8"/>
<circle cx="17.6917" cy="14" r="12.5" transform="rotate(-180 17.6917 14)" stroke="url(#paint1_linear)"/>
<g filter="url(#filter0_di)">
<circle cx="17.6917" cy="14" r="12" transform="rotate(-180 17.6917 14)" fill="#0F2735"/>
</g>
<rect x="15.6917" y="7" width="4" height="14" rx="2" fill="#92FFD1"/>
<rect x="15.6917" y="7" width="4" height="14" rx="2" fill="#92FFD1"/>
<rect x="15.6917" y="7" width="4" height="14" rx="2" fill="#92FFD1"/>
<rect x="10.6917" y="16" width="4" height="14" rx="2" transform="rotate(-90 10.6917 16)" fill="#92FFD1"/>
<rect x="10.6917" y="16" width="4" height="14" rx="2" transform="rotate(-90 10.6917 16)" fill="#92FFD1"/>
<rect x="10.6917" y="16" width="4" height="14" rx="2" transform="rotate(-90 10.6917 16)" fill="#92FFD1"/>
<defs>
<filter id="filter0_di" x="0.69165" y="0" width="34" height="34" filterUnits="userSpaceOnUse" color-interpolation-filters="sRGB">
<feFlood flood-opacity="0" result="BackgroundImageFix"/>
<feColorMatrix in="SourceAlpha" type="matrix" values="0 0 0 0 0 0 0 0 0 0 0 0 0 0 0 0 0 0 127 0" result="hardAlpha"/>
<feOffset dy="3"/>
<feGaussianBlur stdDeviation="2.5"/>
<feColorMatrix type="matrix" values="0 0 0 0 0 0 0 0 0 0 0 0 0 0 0 0 0 0 0.4 0"/>
<feBlend mode="normal" in2="BackgroundImageFix" result="effect1_dropShadow"/>
<feBlend mode="normal" in="SourceGraphic" in2="effect1_dropShadow" result="shape"/>
<feColorMatrix in="SourceAlpha" type="matrix" values="0 0 0 0 0 0 0 0 0 0 0 0 0 0 0 0 0 0 127 0" result="hardAlpha"/>
<feOffset dy="1"/>
<feComposite in2="hardAlpha" operator="arithmetic" k2="-1" k3="1"/>
<feColorMatrix type="matrix" values="0 0 0 0 1 0 0 0 0 1 0 0 0 0 1 0 0 0 0.3 0"/>
<feBlend mode="normal" in2="shape" result="effect2_innerShadow"/>
</filter>
<linearGradient id="paint0_linear" x1="41.1916" y1="26" x2="41.1916" y2="50" gradientUnits="userSpaceOnUse">
<stop stop-color="#044E7A"/>
<stop offset="1" stop-color="#044E7A"/>
</linearGradient>
<linearGradient id="paint1_linear" x1="17.6917" y1="2" x2="17.6917" y2="26" gradientUnits="userSpaceOnUse">
<stop stop-color="#071C28"/>
<stop offset="1" stop-color="#071C28"/>
</linearGradient>
</defs>
</svg>
