<svg width="28" height="20" viewBox="0 0 28 20" fill="none" xmlns="http://www.w3.org/2000/svg">
<path d="M14.5164 0.155081C13.8278 0.121435 13.2146 0.430983 12.8395 0.922642C12.3268 1.59473 11.7729 2.2357 11.0834 2.73787C10.6122 3.08107 10.0783 3.4701 9.57461 3.83685C8.32954 4.74405 6.81466 5.23402 5.25821 5.23402C4.40204 5.23402 3.67838 5.76395 3.40944 6.5046H2.64205C1.55851 6.5046 0.67981 7.35796 0.67981 8.41025V10.951C0.67981 12.0033 1.55851 12.8566 2.64205 12.8566H3.40944C3.67838 13.5969 4.40204 14.1268 5.25821 14.1268C6.81466 14.1268 8.32954 14.6172 9.57461 15.524L9.91847 15.7742C11.0492 16.5977 12.0171 17.5979 12.9803 18.6026C13.3588 18.9975 13.9079 19.2352 14.5159 19.2057C15.5739 19.1544 16.3773 18.2527 16.3773 17.224C16.3773 14.1878 16.3773 5.17178 16.3773 2.13686C16.3773 1.10854 15.5744 0.206392 14.5164 0.155081Z" fill="#101421"/>
<path d="M25.6011 16.4127C28.3663 12.5362 28.3663 6.82681 25.6011 2.94821C25.0152 2.12976 23.8541 1.92535 23.0139 2.49188C22.1725 3.0563 21.9586 4.18346 22.5432 5.00527C24.4292 7.64484 24.4292 11.7119 22.5432 14.3561C22.3267 14.6593 22.2128 15.0143 22.2128 15.3823C22.2128 15.9749 22.5116 16.5309 23.0126 16.8682C23.8541 17.4356 25.0152 17.2312 25.6011 16.4127Z" fill="#101421"/>
<path d="M21.5239 13.6722C23.1289 11.4196 23.1289 7.94013 21.5239 5.69002C20.9401 4.87031 19.7791 4.66591 18.9354 5.23285C18.094 5.79937 17.8896 6.92821 18.4656 7.74624C19.1966 8.77162 19.1992 10.5881 18.4656 11.616C18.249 11.9193 18.1351 12.2742 18.1351 12.6422C18.1351 13.2348 18.4344 13.7908 18.9367 14.1281C19.7795 14.6951 20.9406 14.4903 21.5239 13.6722Z" fill="#101421"/>
</svg>
