<svg xmlns="http://www.w3.org/2000/svg" fill="none" viewBox="74 62 9 15">
<g filter="url(#filter0_f_202:5442)">
<path d="M78.5 74C79.3284 74 80 73.3284 80 72.5C80 71.6716 79.3284 71 78.5 71C77.6716 71 77 71.6716 77 72.5C77 73.3284 77.6716 74 78.5 74ZM75.5 74C74.6716 74 74 74.6716 74 75.5C74 76.3284 74.6716 77 75.5 77C76.3284 77 77 76.3284 77 75.5C77 74.6716 76.3284 74 75.5 74ZM77 66.5C77 67.3284 77.6716 68 78.5 68C79.3284 68 80 67.3284 80 66.5C80 65.6716 79.3284 65 78.5 65C77.6716 65 77 65.6716 77 66.5ZM83 69.5C83 68.6716 82.3284 68 81.5 68C80.6716 68 80 68.6716 80 69.5C80 70.3284 80.6716 71 81.5 71C82.3284 71 83 70.3284 83 69.5ZM75.5 65C76.3284 65 77 64.3284 77 63.5C77 62.6716 76.3284 62 75.5 62C74.6716 62 74 62.6716 74 63.5C74 64.3284 74.6716 65 75.5 65Z" fill="url(#paint0_linear_202:5442)"/>
<path d="M78.5 74C79.3284 74 80 73.3284 80 72.5C80 71.6716 79.3284 71 78.5 71C77.6716 71 77 71.6716 77 72.5C77 73.3284 77.6716 74 78.5 74ZM75.5 74C74.6716 74 74 74.6716 74 75.5C74 76.3284 74.6716 77 75.5 77C76.3284 77 77 76.3284 77 75.5C77 74.6716 76.3284 74 75.5 74ZM77 66.5C77 67.3284 77.6716 68 78.5 68C79.3284 68 80 67.3284 80 66.5C80 65.6716 79.3284 65 78.5 65C77.6716 65 77 65.6716 77 66.5ZM83 69.5C83 68.6716 82.3284 68 81.5 68C80.6716 68 80 68.6716 80 69.5C80 70.3284 80.6716 71 81.5 71C82.3284 71 83 70.3284 83 69.5ZM75.5 65C76.3284 65 77 64.3284 77 63.5C77 62.6716 76.3284 62 75.5 62C74.6716 62 74 62.6716 74 63.5C74 64.3284 74.6716 65 75.5 65Z" fill="white" fill-opacity="0.8"/>
</g>
<g filter="url(#filter1_ddif_202:5442)">
<path d="M78.5 74C79.3284 74 80 73.3284 80 72.5C80 71.6716 79.3284 71 78.5 71C77.6716 71 77 71.6716 77 72.5C77 73.3284 77.6716 74 78.5 74ZM75.5 74C74.6716 74 74 74.6716 74 75.5C74 76.3284 74.6716 77 75.5 77C76.3284 77 77 76.3284 77 75.5C77 74.6716 76.3284 74 75.5 74ZM77 66.5C77 67.3284 77.6716 68 78.5 68C79.3284 68 80 67.3284 80 66.5C80 65.6716 79.3284 65 78.5 65C77.6716 65 77 65.6716 77 66.5ZM83 69.5C83 68.6716 82.3284 68 81.5 68C80.6716 68 80 68.6716 80 69.5C80 70.3284 80.6716 71 81.5 71C82.3284 71 83 70.3284 83 69.5ZM75.5 65C76.3284 65 77 64.3284 77 63.5C77 62.6716 76.3284 62 75.5 62C74.6716 62 74 62.6716 74 63.5C74 64.3284 74.6716 65 75.5 65Z" fill="url(#paint1_linear_202:5442)"/>
<path d="M78.5 74C79.3284 74 80 73.3284 80 72.5C80 71.6716 79.3284 71 78.5 71C77.6716 71 77 71.6716 77 72.5C77 73.3284 77.6716 74 78.5 74ZM75.5 74C74.6716 74 74 74.6716 74 75.5C74 76.3284 74.6716 77 75.5 77C76.3284 77 77 76.3284 77 75.5C77 74.6716 76.3284 74 75.5 74ZM77 66.5C77 67.3284 77.6716 68 78.5 68C79.3284 68 80 67.3284 80 66.5C80 65.6716 79.3284 65 78.5 65C77.6716 65 77 65.6716 77 66.5ZM83 69.5C83 68.6716 82.3284 68 81.5 68C80.6716 68 80 68.6716 80 69.5C80 70.3284 80.6716 71 81.5 71C82.3284 71 83 70.3284 83 69.5ZM75.5 65C76.3284 65 77 64.3284 77 63.5C77 62.6716 76.3284 62 75.5 62C74.6716 62 74 62.6716 74 63.5C74 64.3284 74.6716 65 75.5 65Z" fill="white" fill-opacity="0.8"/>
</g>
<defs>
<filter id="filter0_f_202:5442" x="71" y="59" width="15" height="21" filterUnits="userSpaceOnUse" color-interpolation-filters="sRGB">
<feFlood flood-opacity="0" result="BackgroundImageFix"/>
<feBlend mode="normal" in="SourceGraphic" in2="BackgroundImageFix" result="shape"/>
<feGaussianBlur stdDeviation="1.5" result="effect1_foregroundBlur_202:5442"/>
</filter>
<filter id="filter1_ddif_202:5442" x="0.788483" y="-11.2115" width="155.423" height="161.423" filterUnits="userSpaceOnUse" color-interpolation-filters="sRGB">
<feFlood flood-opacity="0" result="BackgroundImageFix"/>
<feColorMatrix in="SourceAlpha" type="matrix" values="0 0 0 0 0 0 0 0 0 0 0 0 0 0 0 0 0 0 127 0" result="hardAlpha"/>
<feOffset/>
<feGaussianBlur stdDeviation="36.6058"/>
<feColorMatrix type="matrix" values="0 0 0 0 1 0 0 0 0 0.0509804 0 0 0 0 0.780392 0 0 0 0.5 0"/>
<feBlend mode="normal" in2="BackgroundImageFix" result="effect1_dropShadow_202:5442"/>
<feColorMatrix in="SourceAlpha" type="matrix" values="0 0 0 0 0 0 0 0 0 0 0 0 0 0 0 0 0 0 127 0" result="hardAlpha"/>
<feOffset/>
<feGaussianBlur stdDeviation="9.45563"/>
<feColorMatrix type="matrix" values="0 0 0 0 1 0 0 0 0 0.0509804 0 0 0 0 0.780392 0 0 0 0.7 0"/>
<feBlend mode="normal" in2="effect1_dropShadow_202:5442" result="effect2_dropShadow_202:5442"/>
<feBlend mode="normal" in="SourceGraphic" in2="effect2_dropShadow_202:5442" result="shape"/>
<feColorMatrix in="SourceAlpha" type="matrix" values="0 0 0 0 0 0 0 0 0 0 0 0 0 0 0 0 0 0 127 0" result="hardAlpha"/>
<feOffset/>
<feGaussianBlur stdDeviation="3.66058"/>
<feComposite in2="hardAlpha" operator="arithmetic" k2="-1" k3="1"/>
<feColorMatrix type="matrix" values="0 0 0 0 1 0 0 0 0 0.0509804 0 0 0 0 0.780392 0 0 0 0.5 0"/>
<feBlend mode="normal" in2="shape" result="effect3_innerShadow_202:5442"/>
<feGaussianBlur stdDeviation="0.25" result="effect4_foregroundBlur_202:5442"/>
</filter>
<linearGradient id="paint0_linear_202:5442" x1="78.5" y1="62" x2="78.5" y2="77" gradientUnits="userSpaceOnUse">
<stop stop-color="#FF0DC7"/>
<stop offset="1" stop-color="#FF52D7"/>
</linearGradient>
<linearGradient id="paint1_linear_202:5442" x1="78.5" y1="62" x2="78.5" y2="77" gradientUnits="userSpaceOnUse">
<stop stop-color="#FF0DC7"/>
<stop offset="1" stop-color="#FF52D7"/>
</linearGradient>
</defs>
</svg>