<svg width="21" height="15" viewBox="0 0 21 15" fill="none" xmlns="http://www.w3.org/2000/svg">
<path d="M0.75 2.5C0.75 1.83696 1.01339 1.20107 1.48223 0.732233C1.95107 0.263392 2.58696 0 3.25 0H18.25C18.913 0 19.5489 0.263392 20.0178 0.732233C20.4866 1.20107 20.75 1.83696 20.75 2.5V8.75H0.75V2.5ZM15.125 3.75C14.9592 3.75 14.8003 3.81585 14.6831 3.93306C14.5658 4.05027 14.5 4.20924 14.5 4.375V5.625C14.5 5.79076 14.5658 5.94973 14.6831 6.06694C14.8003 6.18415 14.9592 6.25 15.125 6.25H17.625C17.7908 6.25 17.9497 6.18415 18.0669 6.06694C18.1842 5.94973 18.25 5.79076 18.25 5.625V4.375C18.25 4.20924 18.1842 4.05027 18.0669 3.93306C17.9497 3.81585 17.7908 3.75 17.625 3.75H15.125ZM0.75 11.25V12.5C0.75 13.163 1.01339 13.7989 1.48223 14.2678C1.95107 14.7366 2.58696 15 3.25 15H18.25C18.913 15 19.5489 14.7366 20.0178 14.2678C20.4866 13.7989 20.75 13.163 20.75 12.5V11.25H0.75Z" fill="white"/>
</svg>
