<svg width="6" height="18" viewBox="0 0 6 18" fill="none" xmlns="http://www.w3.org/2000/svg">
<path d="M0.969094 4.2C0.793094 4.2 0.641094 4.136 0.513094 4.008C0.385094 3.88 0.321094 3.728 0.321094 3.552V0.647999C0.321094 0.471999 0.385094 0.319999 0.513094 0.191999C0.641094 0.0639987 0.793094 -1.43051e-06 0.969094 -1.43051e-06H5.02509C5.20109 -1.43051e-06 5.35309 0.0639987 5.48109 0.191999C5.60909 0.319999 5.67309 0.471999 5.67309 0.647999V3.552C5.67309 3.728 5.60909 3.88 5.48109 4.008C5.35309 4.136 5.20109 4.2 5.02509 4.2H0.969094ZM0.849094 18C0.673094 18 0.521094 17.936 0.393094 17.808C0.265094 17.68 0.201094 17.528 0.201094 17.352V6.168C0.201094 5.992 0.265094 5.84 0.393094 5.712C0.521094 5.584 0.673094 5.52 0.849094 5.52H5.14509C5.32109 5.52 5.47309 5.584 5.60109 5.712C5.72909 5.84 5.79309 5.992 5.79309 6.168V17.352C5.79309 17.528 5.72909 17.68 5.60109 17.808C5.47309 17.936 5.32109 18 5.14509 18H0.849094Z" fill="#101421"/>
</svg>
