<svg xmlns="http://www.w3.org/2000/svg" fill="none" viewBox="24 62 9 15">
<g filter="url(#filter0_f_202:5461)">
<path d="M28.5 74C27.6716 74 27 73.3284 27 72.5C27 71.6716 27.6716 71 28.5 71C29.3284 71 30 71.6716 30 72.5C30 73.3284 29.3284 74 28.5 74ZM31.5 74C32.3284 74 33 74.6716 33 75.5C33 76.3284 32.3284 77 31.5 77C30.6716 77 30 76.3284 30 75.5C30 74.6716 30.6716 74 31.5 74ZM30 66.5C30 67.3284 29.3284 68 28.5 68C27.6716 68 27 67.3284 27 66.5C27 65.6716 27.6716 65 28.5 65C29.3284 65 30 65.6716 30 66.5ZM24 69.5C24 68.6716 24.6716 68 25.5 68C26.3284 68 27 68.6716 27 69.5C27 70.3284 26.3284 71 25.5 71C24.6716 71 24 70.3284 24 69.5ZM31.5 65C30.6716 65 30 64.3284 30 63.5C30 62.6716 30.6716 62 31.5 62C32.3284 62 33 62.6716 33 63.5C33 64.3284 32.3284 65 31.5 65Z" fill="url(#paint0_linear_202:5461)"/>
<path d="M28.5 74C27.6716 74 27 73.3284 27 72.5C27 71.6716 27.6716 71 28.5 71C29.3284 71 30 71.6716 30 72.5C30 73.3284 29.3284 74 28.5 74ZM31.5 74C32.3284 74 33 74.6716 33 75.5C33 76.3284 32.3284 77 31.5 77C30.6716 77 30 76.3284 30 75.5C30 74.6716 30.6716 74 31.5 74ZM30 66.5C30 67.3284 29.3284 68 28.5 68C27.6716 68 27 67.3284 27 66.5C27 65.6716 27.6716 65 28.5 65C29.3284 65 30 65.6716 30 66.5ZM24 69.5C24 68.6716 24.6716 68 25.5 68C26.3284 68 27 68.6716 27 69.5C27 70.3284 26.3284 71 25.5 71C24.6716 71 24 70.3284 24 69.5ZM31.5 65C30.6716 65 30 64.3284 30 63.5C30 62.6716 30.6716 62 31.5 62C32.3284 62 33 62.6716 33 63.5C33 64.3284 32.3284 65 31.5 65Z" fill="white" fill-opacity="0.8"/>
</g>
<g filter="url(#filter1_ddif_202:5461)">
<path d="M28.5 74C27.6716 74 27 73.3284 27 72.5C27 71.6716 27.6716 71 28.5 71C29.3284 71 30 71.6716 30 72.5C30 73.3284 29.3284 74 28.5 74ZM31.5 74C32.3284 74 33 74.6716 33 75.5C33 76.3284 32.3284 77 31.5 77C30.6716 77 30 76.3284 30 75.5C30 74.6716 30.6716 74 31.5 74ZM30 66.5C30 67.3284 29.3284 68 28.5 68C27.6716 68 27 67.3284 27 66.5C27 65.6716 27.6716 65 28.5 65C29.3284 65 30 65.6716 30 66.5ZM24 69.5C24 68.6716 24.6716 68 25.5 68C26.3284 68 27 68.6716 27 69.5C27 70.3284 26.3284 71 25.5 71C24.6716 71 24 70.3284 24 69.5ZM31.5 65C30.6716 65 30 64.3284 30 63.5C30 62.6716 30.6716 62 31.5 62C32.3284 62 33 62.6716 33 63.5C33 64.3284 32.3284 65 31.5 65Z" fill="url(#paint1_linear_202:5461)"/>
<path d="M28.5 74C27.6716 74 27 73.3284 27 72.5C27 71.6716 27.6716 71 28.5 71C29.3284 71 30 71.6716 30 72.5C30 73.3284 29.3284 74 28.5 74ZM31.5 74C32.3284 74 33 74.6716 33 75.5C33 76.3284 32.3284 77 31.5 77C30.6716 77 30 76.3284 30 75.5C30 74.6716 30.6716 74 31.5 74ZM30 66.5C30 67.3284 29.3284 68 28.5 68C27.6716 68 27 67.3284 27 66.5C27 65.6716 27.6716 65 28.5 65C29.3284 65 30 65.6716 30 66.5ZM24 69.5C24 68.6716 24.6716 68 25.5 68C26.3284 68 27 68.6716 27 69.5C27 70.3284 26.3284 71 25.5 71C24.6716 71 24 70.3284 24 69.5ZM31.5 65C30.6716 65 30 64.3284 30 63.5C30 62.6716 30.6716 62 31.5 62C32.3284 62 33 62.6716 33 63.5C33 64.3284 32.3284 65 31.5 65Z" fill="white" fill-opacity="0.8"/>
</g>
<defs>
<filter id="filter0_f_202:5461" x="21" y="59" width="15" height="21" filterUnits="userSpaceOnUse" color-interpolation-filters="sRGB">
<feFlood flood-opacity="0" result="BackgroundImageFix"/>
<feBlend mode="normal" in="SourceGraphic" in2="BackgroundImageFix" result="shape"/>
<feGaussianBlur stdDeviation="1.5" result="effect1_foregroundBlur_202:5461"/>
</filter>
<filter id="filter1_ddif_202:5461" x="-49.2115" y="-11.2115" width="155.423" height="161.423" filterUnits="userSpaceOnUse" color-interpolation-filters="sRGB">
<feFlood flood-opacity="0" result="BackgroundImageFix"/>
<feColorMatrix in="SourceAlpha" type="matrix" values="0 0 0 0 0 0 0 0 0 0 0 0 0 0 0 0 0 0 127 0" result="hardAlpha"/>
<feOffset/>
<feGaussianBlur stdDeviation="36.6058"/>
<feColorMatrix type="matrix" values="0 0 0 0 1 0 0 0 0 0.0509804 0 0 0 0 0.780392 0 0 0 0.5 0"/>
<feBlend mode="normal" in2="BackgroundImageFix" result="effect1_dropShadow_202:5461"/>
<feColorMatrix in="SourceAlpha" type="matrix" values="0 0 0 0 0 0 0 0 0 0 0 0 0 0 0 0 0 0 127 0" result="hardAlpha"/>
<feOffset/>
<feGaussianBlur stdDeviation="9.45563"/>
<feColorMatrix type="matrix" values="0 0 0 0 1 0 0 0 0 0.0509804 0 0 0 0 0.780392 0 0 0 0.7 0"/>
<feBlend mode="normal" in2="effect1_dropShadow_202:5461" result="effect2_dropShadow_202:5461"/>
<feBlend mode="normal" in="SourceGraphic" in2="effect2_dropShadow_202:5461" result="shape"/>
<feColorMatrix in="SourceAlpha" type="matrix" values="0 0 0 0 0 0 0 0 0 0 0 0 0 0 0 0 0 0 127 0" result="hardAlpha"/>
<feOffset/>
<feGaussianBlur stdDeviation="3.66058"/>
<feComposite in2="hardAlpha" operator="arithmetic" k2="-1" k3="1"/>
<feColorMatrix type="matrix" values="0 0 0 0 1 0 0 0 0 0.0509804 0 0 0 0 0.780392 0 0 0 0.5 0"/>
<feBlend mode="normal" in2="shape" result="effect3_innerShadow_202:5461"/>
<feGaussianBlur stdDeviation="0.25" result="effect4_foregroundBlur_202:5461"/>
</filter>
<linearGradient id="paint0_linear_202:5461" x1="28.5" y1="62" x2="28.5" y2="77" gradientUnits="userSpaceOnUse">
<stop stop-color="#FF0DC7"/>
<stop offset="1" stop-color="#FF52D7"/>
</linearGradient>
<linearGradient id="paint1_linear_202:5461" x1="28.5" y1="62" x2="28.5" y2="77" gradientUnits="userSpaceOnUse">
<stop stop-color="#FF0DC7"/>
<stop offset="1" stop-color="#FF52D7"/>
</linearGradient>
</defs>
</svg>