<svg width="53" height="27" viewBox="0 0 53 27" fill="none" xmlns="http://www.w3.org/2000/svg">
<path d="M0 5.11871C0 2.29173 1.79086 0 4 0H49C51.2091 0 53 2.29173 53 5.11871V21.7545C53 24.5815 51.2091 26.8732 49 26.8732H4C1.79086 26.8732 0 24.5815 0 21.7545V5.11871Z" fill="#E51937"/>
<g opacity="0.9">
<path d="M6.45491 19.4086C6.3237 19.4086 6.21039 19.3602 6.11497 19.2636C6.01954 19.1669 5.97183 19.0521 5.97183 18.9191V7.20792C5.97183 7.07498 6.01954 6.96016 6.11497 6.86348C6.21039 6.76679 6.3237 6.71844 6.45491 6.71844H10.0332C10.1644 6.71844 10.2777 6.76679 10.3732 6.86348C10.4686 6.96016 10.5163 7.07498 10.5163 7.20792V15.6922H15.4723C15.6035 15.6922 15.7168 15.7405 15.8122 15.8372C15.9076 15.9339 15.9553 16.0487 15.9553 16.1817V18.9191C15.9553 19.0521 15.9076 19.1669 15.8122 19.2636C15.7168 19.3602 15.6035 19.4086 15.4723 19.4086H6.45491Z" fill="white"/>
<path d="M17.6546 19.4086C17.5234 19.4086 17.4101 19.3602 17.3147 19.2636C17.2193 19.1669 17.1716 19.0521 17.1716 18.9191V7.20792C17.1716 7.07498 17.2193 6.96016 17.3147 6.86348C17.4101 6.76679 17.5234 6.71844 17.6546 6.71844H21.3045C21.4357 6.71844 21.549 6.76679 21.6445 6.86348C21.7399 6.96016 21.7876 7.07498 21.7876 7.20792V18.9191C21.7876 19.0521 21.7399 19.1669 21.6445 19.2636C21.549 19.3602 21.4357 19.4086 21.3045 19.4086H17.6546Z" fill="white"/>
<path d="M27.2296 19.4086C27.0029 19.4086 26.824 19.3482 26.6928 19.2273C26.5616 19.1064 26.4722 18.9675 26.4245 18.8103L23.0608 7.24418L23.0429 7.11728C23.0429 7.00851 23.0787 6.91786 23.1503 6.84535C23.2338 6.76075 23.3292 6.71844 23.4366 6.71844H26.7644C26.991 6.71844 27.1699 6.77887 27.3011 6.89973C27.4323 7.02059 27.5218 7.15958 27.5695 7.31669L29.2692 14.0606L30.9689 7.31669C31.0166 7.15958 31.1061 7.02059 31.2373 6.89973C31.3685 6.77887 31.5474 6.71844 31.774 6.71844H35.1019C35.2092 6.71844 35.2987 6.76075 35.3703 6.84535C35.4537 6.91786 35.4955 7.00851 35.4955 7.11728L35.4776 7.24418L32.114 18.8103C32.0663 18.9675 31.9768 19.1064 31.8456 19.2273C31.7144 19.3482 31.5355 19.4086 31.3089 19.4086H27.2296Z" fill="white"/>
<path d="M37.2236 19.4086C37.0924 19.4086 36.9791 19.3602 36.8836 19.2636C36.7882 19.1669 36.7405 19.0521 36.7405 18.9191V7.20792C36.7405 7.07498 36.7882 6.96016 36.8836 6.86348C36.9791 6.76679 37.0924 6.71844 37.2236 6.71844H46.402C46.5332 6.71844 46.6465 6.76679 46.7419 6.86348C46.8373 6.96016 46.885 7.07498 46.885 7.20792V9.76408C46.885 9.89702 46.8373 10.0118 46.7419 10.1085C46.6465 10.2052 46.5332 10.2536 46.402 10.2536H41.0345V11.3957H46.0084C46.1396 11.3957 46.2529 11.444 46.3483 11.5407C46.4437 11.6374 46.4914 11.7522 46.4914 11.8851V14.2419C46.4914 14.3748 46.4437 14.4896 46.3483 14.5863C46.2529 14.683 46.1396 14.7314 46.0084 14.7314H41.0345V15.8735H46.5451C46.6763 15.8735 46.7896 15.9218 46.885 16.0185C46.9805 16.1152 47.0282 16.23 47.0282 16.363V18.9191C47.0282 19.0521 46.9805 19.1669 46.885 19.2636C46.7896 19.3602 46.6763 19.4086 46.5451 19.4086H37.2236Z" fill="white"/>
</g>
</svg>
