<svg xmlns="http://www.w3.org/2000/svg" xmlns:xlink="http://www.w3.org/1999/xlink" width="41.59" height="41.6" viewBox="0 0 41.59 41.6">
  <defs>
    <style>
      .a {
        isolation: isolate;
      }

      .b {
        opacity: 0.1;
        mix-blend-mode: screen;
      }

      .c, .d, .e, .f, .g, .h, .i, .j, .k, .l, .m, .n, .o, .p, .w {
        fill: #92ffd1;
      }

      .an, .c {
        opacity: 0;
      }

      .ad, .an, .c {
        mix-blend-mode: multiply;
      }

      .ao, .d {
        opacity: 0.03;
      }

      .ap, .e {
        opacity: 0.06;
      }

      .aq, .f {
        opacity: 0.09;
      }

      .ar, .g {
        opacity: 0.12;
      }

      .as, .h {
        opacity: 0.15;
      }

      .at, .i {
        opacity: 0.18;
      }

      .au, .j {
        opacity: 0.22;
      }

      .av, .k {
        opacity: 0.25;
      }

      .aw, .l {
        opacity: 0.28;
      }

      .ax, .m {
        opacity: 0.31;
      }

      .ay, .n {
        opacity: 0.34;
      }

      .az, .o {
        opacity: 0.37;
      }

      .ba, .p {
        opacity: 0.4;
      }

      .q {
        fill: #92ffd1;
      }

      .r {
        fill: #92ffd1;
      }

      .s {
        fill: #92ffd1;
      }

      .t {
        fill: #92ffd1;
      }

      .u {
        fill: #92ffd1;
      }

      .v {
        fill: #92ffd1;
      }

      .x {
        fill: #92ffd1;
      }

      .y {
        fill: #92ffd1;
      }

      .z {
        fill: #92ffd1;
      }

      .aa {
        fill: #92ffd1;
      }

      .ab {
        fill: #92ffd1;
      }

      .ac, .af, .ag, .ah, .ai, .aj, .ak, .al, .am {
        fill: #fff;
      }

      .ae {
        fill: #92ffd1;
      }

      .af {
        opacity: 0.29;
      }

      .ag {
        opacity: 0.47;
      }

      .ah {
        opacity: 0.65;
      }

      .ai {
        opacity: 0.82;
      }

      .aj {
        opacity: 0.02;
      }

      .ak {
        opacity: 0.27;
      }

      .al {
        opacity: 0.51;
      }

      .am {
        opacity: 0.76;
      }

      .an, .ao, .ap, .aq, .ar, .as, .at, .au, .av, .aw, .ax, .ay, .az, .ba, .bi {
        fill: #ed00ff;
      }

      .bb {
        fill: #ed00ff;
      }

      .bc {
        fill: #ed00ff;
      }

      .bd {
        fill: #ed00ff;
      }

      .be {
        fill: #ed00ff;
      }

      .bf {
        fill: #ed00ff;
      }

      .bg {
        fill: #ed00ff;
      }

      .bh {
        fill: #ed00ff;
      }

      .bj {
        fill: #ed00ff;
      }

      .bk {
        fill: #ed00ff;
      }

      .bl {
        fill: #ed00ff;
      }

      .bm {
        fill: #ed00ff;
      }

      .bn {
        fill: #ed00ff;
      }

      .bo {
        fill: #ed00ff;
      }
    </style>
  </defs>
  <g class="a">
    <g>
      
      <g>
        <g>
          <g>
            <path class="c" d="M22.65,32.84a1.33,1.33,0,1,1,0,2.66h-4a3.82,3.82,0,0,1-.66-.12,3.2,3.2,0,0,1-2.3-2.93V25.83a1.33,1.33,0,0,1,2.66,0V32.3h0v0a.46.46,0,0,0,.05.21.5.5,0,0,0,.34.28l.11,0h3.76Z" transform="translate(-9.2 -9.2)"/>
            <path class="d" d="M22.65,32.87a1.3,1.3,0,0,1,0,2.6h-4a3.55,3.55,0,0,1-.65-.12,3.2,3.2,0,0,1-2.28-2.9V25.83a1.3,1.3,0,0,1,2.6,0V32.3h0a.86.86,0,0,0,.06.23.6.6,0,0,0,.36.3l.11,0h3.77Z" transform="translate(-9.2 -9.2)"/>
            <path class="e" d="M22.65,32.9a1.27,1.27,0,0,1,0,2.54h-4a2.77,2.77,0,0,1-.64-.11,3.16,3.16,0,0,1-1.94-1.62,3.21,3.21,0,0,1-.32-1.25V25.83a1.27,1.27,0,0,1,2.54,0V32.3h0a.84.84,0,0,0,.06.24.67.67,0,0,0,.38.32l.12,0h3.77Z" transform="translate(-9.2 -9.2)"/>
            <path class="f" d="M22.65,32.93a1.24,1.24,0,0,1,0,2.47h-4a2.78,2.78,0,0,1-.63-.11,3.12,3.12,0,0,1-2.24-2.84V25.83a1.24,1.24,0,0,1,2.47,0V32.3h0a.76.76,0,0,0,.06.26.69.69,0,0,0,.4.33l.13,0h3.77Z" transform="translate(-9.2 -9.2)"/>
            <path class="g" d="M22.65,33a1.2,1.2,0,1,1,0,2.4h-4a2.6,2.6,0,0,1-.62-.11,3.13,3.13,0,0,1-1.9-1.59,2.9,2.9,0,0,1-.31-1.22V25.83a1.2,1.2,0,0,1,2.4,0v6.45s0,0,0,0h0a.5.5,0,0,0,.07.27.65.65,0,0,0,.41.35l.14,0h3.77Z" transform="translate(-9.2 -9.2)"/>
            <path class="h" d="M22.65,33a1.17,1.17,0,0,1,0,2.34H18.7a4.23,4.23,0,0,1-.62-.11,3,3,0,0,1-2.19-2.79v-6.6a1.17,1.17,0,0,1,2.34,0V32.3h0v0a.5.5,0,0,0,.07.27.69.69,0,0,0,.43.37l.14,0h3.78Z" transform="translate(-9.2 -9.2)"/>
            <path class="i" d="M22.65,33a1.14,1.14,0,0,1,0,2.28H18.7a4.1,4.1,0,0,1-.61-.11,3,3,0,0,1-1.86-1.56,2.92,2.92,0,0,1-.31-1.2v-6.6a1.14,1.14,0,0,1,2.28,0v6.5a.76.76,0,0,0,.53.67l.15,0h3.78Z" transform="translate(-9.2 -9.2)"/>
            <path class="j" d="M22.65,33.06a1.11,1.11,0,0,1,0,2.21H18.7a2.44,2.44,0,0,1-.6-.11A3,3,0,0,1,16,32.43v-6.6a1.11,1.11,0,0,1,2.21,0v6.5a.78.78,0,0,0,.55.7.76.76,0,0,0,.16,0h3.78Z" transform="translate(-9.2 -9.2)"/>
            <path class="k" d="M22.65,33.1a1.07,1.07,0,1,1,0,2.14H18.7a2.53,2.53,0,0,1-.6-.11,2.94,2.94,0,0,1-1.81-1.52A3,3,0,0,1,16,32.43v-6.6a1.08,1.08,0,0,1,2.15,0v6.5a.72.72,0,0,0,.08.32.77.77,0,0,0,.49.41.51.51,0,0,0,.17,0h3.78Z" transform="translate(-9.2 -9.2)"/>
            <path class="l" d="M22.65,33.13a1,1,0,1,1,0,2.08H18.71a2.53,2.53,0,0,1-.6-.11,2.88,2.88,0,0,1-1.79-1.5,2.77,2.77,0,0,1-.3-1.16v-6.6a1,1,0,0,1,2.08,0v6.45a.2.2,0,0,0,0,0,.73.73,0,0,0,.08.33.83.83,0,0,0,.51.43l.17,0h3.79Z" transform="translate(-9.2 -9.2)"/>
            <path class="m" d="M22.65,33.16a1,1,0,0,1,0,2H18.71a2.93,2.93,0,0,1-.59-.11,2.91,2.91,0,0,1-2.07-2.63v-6.6a1,1,0,1,1,2,0v6.5a1.06,1.06,0,0,0,.09.35.88.88,0,0,0,.54.44l.17,0h3.79Z" transform="translate(-9.2 -9.2)"/>
            <path class="n" d="M22.65,33.19a1,1,0,0,1,0,2H18.71a3,3,0,0,1-.58-.11,2.83,2.83,0,0,1-1.76-1.47,3,3,0,0,1-.29-1.14V25.83a1,1,0,1,1,2,0v6.51a1.06,1.06,0,0,0,.09.35.93.93,0,0,0,.56.47l.18,0h3.79Z" transform="translate(-9.2 -9.2)"/>
            <path class="o" d="M22.65,33.22a.95.95,0,0,1,0,1.89H18.71a2.79,2.79,0,0,1-2.31-1.55,3,3,0,0,1-.29-1.13V25.83a.95.95,0,0,1,1.89,0v6.51a1.18,1.18,0,0,0,.09.37,1,1,0,0,0,.58.48,1.08,1.08,0,0,0,.19,0h3.79Z" transform="translate(-9.2 -9.2)"/>
            <path class="p" d="M22.65,33.26a.91.91,0,1,1,0,1.82H18.72a2.84,2.84,0,0,1-.57-.1,2.8,2.8,0,0,1-1.72-1.44,2.68,2.68,0,0,1-.28-1.11V25.83a.91.91,0,1,1,1.82,0v6.45s0,0,0,.06a.86.86,0,0,0,.1.38.92.92,0,0,0,.59.5l.19,0h3.8Z" transform="translate(-9.2 -9.2)"/>
          </g>
          <g>
            <path class="q" d="M17.75,25.83v6.52a1.21,1.21,0,0,0,.12.46,1.18,1.18,0,0,0,.72.61,1,1,0,0,0,.24,0h3.81a.7.7,0,0,1,0,1.4H18.73a2.36,2.36,0,0,1-.52-.09,2.57,2.57,0,0,1-1.59-1.33,2.62,2.62,0,0,1-.27-1V25.83a.7.7,0,1,1,1.4,0Z" transform="translate(-9.2 -9.2)"/>
            <path class="r" d="M22.65,33.52a.65.65,0,0,1,0,1.3H18.74a2.27,2.27,0,0,1-.52-.09,2.5,2.5,0,0,1-1.55-1.31,2.32,2.32,0,0,1-.26-1V25.83a.65.65,0,1,1,1.3,0v6.52a1.18,1.18,0,0,0,.12.49,1.23,1.23,0,0,0,.76.63,1,1,0,0,0,.24,0h3.82Z" transform="translate(-9.2 -9.2)"/>
            <path class="s" d="M22.65,33.57a.6.6,0,0,1,0,1.2H18.74a2.75,2.75,0,0,1-.5-.09,2.5,2.5,0,0,1-1.53-1.28,2.37,2.37,0,0,1-.25-1V25.83a.6.6,0,0,1,1.2,0v6.52a1.48,1.48,0,0,0,.13.51,1.26,1.26,0,0,0,.79.66l.26,0h3.82Z" transform="translate(-9.2 -9.2)"/>
            <path class="s" d="M22.65,33.62a.55.55,0,0,1,.54.55.54.54,0,0,1-.54.54H18.74a4.21,4.21,0,0,1-.49-.09,2.43,2.43,0,0,1-1.74-2.21V25.83a.54.54,0,0,1,.54-.54.55.55,0,0,1,.55.54v6.53a1.34,1.34,0,0,0,.14.52,1.31,1.31,0,0,0,.82.69l.27,0h3.82Z" transform="translate(-9.2 -9.2)"/>
            <path class="t" d="M22.65,33.68a.49.49,0,1,1,0,1h-3.9a2.53,2.53,0,0,1-.48-.08,2.38,2.38,0,0,1-1.46-1.23,2.35,2.35,0,0,1-.25-.94V25.83a.49.49,0,0,1,1,0v6.53a1.49,1.49,0,0,0,.14.55,1.37,1.37,0,0,0,1.13.76h3.83Z" transform="translate(-9.2 -9.2)"/>
            <path class="u" d="M22.65,33.73a.44.44,0,0,1,0,.88h-3.9a2.57,2.57,0,0,1-.47-.08,2.34,2.34,0,0,1-1.43-1.2,2.23,2.23,0,0,1-.23-.92V25.83a.44.44,0,0,1,.44-.44.44.44,0,0,1,.44.44v6.53a1.59,1.59,0,0,0,.14.57,1.49,1.49,0,0,0,.89.74.93.93,0,0,0,.29,0h3.83Z" transform="translate(-9.2 -9.2)"/>
            <path class="v" d="M22.65,33.78a.38.38,0,0,1,.38.39.39.39,0,0,1-.38.39H18.76a2.33,2.33,0,0,1-.46-.08,2.27,2.27,0,0,1-1.4-1.17,2.18,2.18,0,0,1-.23-.9V25.83a.4.4,0,0,1,.39-.39.39.39,0,0,1,.39.39v6.53a1.52,1.52,0,0,0,1.07,1.36,1,1,0,0,0,.3.05h3.84Z" transform="translate(-9.2 -9.2)"/>
          </g>
          <g>
            <path class="w" d="M22.63,34c.19,0,.32.1.32.25s-.13.24-.32.24H18.72l-.22,0-.22,0A2.23,2.23,0,0,1,17,33.24a2.18,2.18,0,0,1-.21-.87V25.83c0-.19.1-.32.24-.32s.25.13.25.32v6.52a1.7,1.7,0,0,0,.17.67,1.66,1.66,0,0,0,1,.89l.17.05.17,0h3.86Z" transform="translate(-9.2 -9.2)"/>
            <path class="x" d="M22.64,34c.17,0,.29.09.29.22s-.12.22-.29.22H18.73l-.22,0-.22-.06A2.19,2.19,0,0,1,17,33.22a2.12,2.12,0,0,1-.2-.86,1.55,1.55,0,0,1,0-.21V25.82c0-.18.1-.3.22-.3s.22.12.22.3v5.75c0,.26,0,.52,0,.77a1.62,1.62,0,0,0,.16.69,1.78,1.78,0,0,0,1.05.91l.17,0,.18,0h3.87Z" transform="translate(-9.2 -9.2)"/>
            <path class="y" d="M22.65,34c.16,0,.26.08.26.2s-.1.19-.26.19H18.74l-.22,0-.22,0A2.14,2.14,0,0,1,17,33.21a2.18,2.18,0,0,1-.21-.86V25.81c0-.17.08-.27.19-.27s.2.1.2.27v6.53a1.72,1.72,0,0,0,.17.7,1.74,1.74,0,0,0,1.07.93l.17,0,.18,0h3.88Z" transform="translate(-9.2 -9.2)"/>
            <path class="z" d="M22.66,34.07c.15,0,.23.07.23.17s-.08.17-.23.17H18.75l-.22,0-.22,0A2.12,2.12,0,0,1,17,33.19a2,2,0,0,1-.2-.85c0-.27,0-.53,0-.79V25.79c0-.15.08-.23.17-.23s.17.08.17.23v6.54a2,2,0,0,0,.17.72,1.81,1.81,0,0,0,1.09.94l.18,0a1.08,1.08,0,0,0,.19,0h3.88Z" transform="translate(-9.2 -9.2)"/>
            <path class="aa" d="M22.67,34.09c.14,0,.2.07.2.15s-.06.14-.2.14H18.76a1.46,1.46,0,0,1-.22,0l-.22-.05A2,2,0,0,1,17,33.18a2.12,2.12,0,0,1-.2-.85V25.78c0-.14.06-.21.14-.21s.15.07.15.21v6.54a1.66,1.66,0,0,0,.17.73,1.81,1.81,0,0,0,1.11,1l.18,0,.19,0h3.89Z" transform="translate(-9.2 -9.2)"/>
            <path class="ab" d="M22.67,34.12c.14,0,.18.05.18.12s0,.12-.18.12H18.76a2,2,0,0,1-.42-.08,2.08,2.08,0,0,1-1.28-1.11,1.88,1.88,0,0,1-.19-.84V25.77c0-.13.06-.18.12-.18s.12.05.12.18v6.54a1.91,1.91,0,0,0,.17.75,1.83,1.83,0,0,0,1.13,1,1.69,1.69,0,0,0,.38.07h3.89Z" transform="translate(-9.2 -9.2)"/>
            <path class="ac" d="M17.08,25.76v6.55a1.83,1.83,0,0,0,.17.76,1.87,1.87,0,0,0,1.15,1,2.32,2.32,0,0,0,.38.07h3.9c.13,0,.15,0,.15.09s0,.09-.15.09H18.77a2,2,0,0,1-.42-.08,2,2,0,0,1-1.27-1.09,2.06,2.06,0,0,1-.19-.84V25.76c0-.13,0-.15.09-.15S17.08,25.63,17.08,25.76Z" transform="translate(-9.2 -9.2)"/>
          </g>
          <path class="ac" d="M23.12,34.2h0s0,0,0,0a.35.35,0,0,1-.05.18.45.45,0,0,1-.22.21l-.18.05H18.94l-.24,0-.25,0-.24-.06a2.47,2.47,0,0,1-1.48-1.3,2.34,2.34,0,0,1-.22-1,.33.33,0,0,1,0-.1v-3.5c0-1,0-1.9,0-2.68v-.28a.48.48,0,0,1,.06-.18.44.44,0,0,1,.2-.22.37.37,0,0,1,.18,0h0a.32.32,0,0,0-.17.06.42.42,0,0,0-.18.21.85.85,0,0,0,0,.17.06.06,0,0,0,0,0v.23c0,.78,0,1.7,0,2.68v3.5a.38.38,0,0,0,0,.1,2.29,2.29,0,0,0,.22,1,2.34,2.34,0,0,0,1.44,1.26l.23.06.24,0h4l.16,0a.58.58,0,0,0,.22-.18.68.68,0,0,0,.07-.17Z" transform="translate(-9.2 -9.2)"/>
          <path class="ac" d="M22.57,33.76H18.75l-.1,0-.11,0a1.44,1.44,0,0,1-.4-.18,1.51,1.51,0,0,1-.58-.67,1.67,1.67,0,0,1-.11-.44c0-.13,0-.35,0-.53v-6h0v0a.12.12,0,0,1,0-.05.12.12,0,0,1,0,.05v0h0v6c0,.18,0,.4,0,.53a1.51,1.51,0,0,0,.1.42,1.47,1.47,0,0,0,.57.66,1.36,1.36,0,0,0,.39.17l.1,0,.11,0h3.81Z" transform="translate(-9.2 -9.2)"/>
          <g class="ad">
            <path class="ae" d="M23.08,33.79a.39.39,0,0,0-.28-.16H18.75l-.15,0-.07,0-.07,0a1.32,1.32,0,0,1-.81-.87,1,1,0,0,1,0-.3V25.9a0,0,0,0,0,0,0v-.08a.65.65,0,0,0-.08-.27.38.38,0,0,0-.21-.2.39.39,0,0,1,.25.17.64.64,0,0,1,.11.3.19.19,0,0,1,0,.08v0h0v6.48a1,1,0,0,0,0,.28,1.17,1.17,0,0,0,.28.48,1.21,1.21,0,0,0,.47.31l.07,0h.07a.58.58,0,0,0,.14,0h3.87l.17,0a.51.51,0,0,1,.17.07A.3.3,0,0,1,23.08,33.79Z" transform="translate(-9.2 -9.2)"/>
          </g>
          <g class="ad">
            <path class="ae" d="M17,25.13l-.13,0-.13.06a.73.73,0,0,0-.2.19.77.77,0,0,0-.1.25.59.59,0,0,0,0,.13V26a.55.55,0,0,1,0,.18v6.3a2.61,2.61,0,0,0,.24,1,2.49,2.49,0,0,0,1.44,1.26l.23.07.24.05.24,0h3.84l.14,0a.69.69,0,0,0,.25-.1.61.61,0,0,0,.19-.2s0,0,0-.06,0,0,0-.07a.57.57,0,0,0,0-.14.4.4,0,0,1,0,.15.69.69,0,0,1,0,.13.49.49,0,0,1-.18.22.66.66,0,0,1-.27.12.7.7,0,0,1-.29,0h-3.7l-.25,0-.25-.05-.24-.07a2.56,2.56,0,0,1-1.47-1.31,2.59,2.59,0,0,1-.26-1V26h0V25.8a.8.8,0,0,1,0-.15.58.58,0,0,1,.12-.25.67.67,0,0,1,.22-.19l.13-.05.14,0Z" transform="translate(-9.2 -9.2)"/>
          </g>
          <g>
            <path class="af" d="M22.89,34.49a.13.13,0,0,1,.26,0,.13.13,0,0,1-.26,0Z" transform="translate(-9.2 -9.2)"/>
            <path class="ag" d="M23,34.38a.1.1,0,0,1,.1.11.1.1,0,0,1-.2,0A.1.1,0,0,1,23,34.38Z" transform="translate(-9.2 -9.2)"/>
            <path class="ah" d="M23,34.41a.08.08,0,0,1,.08.08.08.08,0,0,1-.16,0A.08.08,0,0,1,23,34.41Z" transform="translate(-9.2 -9.2)"/>
            <path class="ai" d="M23,34.43a.06.06,0,0,1,.05.06,0,0,0,0,1-.1,0A.06.06,0,0,1,23,34.43Z" transform="translate(-9.2 -9.2)"/>
            <path class="ac" d="M23,34.46a0,0,0,0,1,0,0l0,0,0,0S23,34.46,23,34.46Z" transform="translate(-9.2 -9.2)"/>
          </g>
          <g>
            <path class="aj" d="M17.16,25.43a.17.17,0,1,1-.17.17A.18.18,0,0,1,17.16,25.43Z" transform="translate(-9.2 -9.2)"/>
            <path class="ak" d="M17.29,25.6a.13.13,0,1,1-.13-.13A.13.13,0,0,1,17.29,25.6Z" transform="translate(-9.2 -9.2)"/>
            <path class="al" d="M17.26,25.6a.1.1,0,0,1-.1.1.09.09,0,0,1-.1-.1.1.1,0,0,1,.1-.1A.11.11,0,0,1,17.26,25.6Z" transform="translate(-9.2 -9.2)"/>
            <path class="am" d="M17.23,25.6a.07.07,0,1,1-.07-.07A.07.07,0,0,1,17.23,25.6Z" transform="translate(-9.2 -9.2)"/>
            <path class="ac" d="M17.19,25.6a0,0,0,0,1-.06,0,0,0,0,0,1,.06,0A0,0,0,0,1,17.19,25.6Z" transform="translate(-9.2 -9.2)"/>
          </g>
        </g>
        <g>
          <g>
            <path class="c" d="M33.78,25.44a1.29,1.29,0,0,1,1.74-.83,1.56,1.56,0,0,1,.73,1.95l-1.39,3.88L34,32.73l-.21.57-.18.49a.58.58,0,0,1,0,.14l-.07.13-.07.13v0l0,0,0,.06a2.48,2.48,0,0,1-1.72,1.16,2.16,2.16,0,0,1-1-.07,2.45,2.45,0,0,1-.91-.52,3,3,0,0,1-.66-.9A1.62,1.62,0,0,1,29,33.7l-.11-.29-.11-.3-.82-2.29-1.53-4.27a1.57,1.57,0,0,1,.74-1.94,1.28,1.28,0,0,1,1.73.83l2.45,6.82Z" transform="translate(-9.2 -9.2)"/>
            <path class="d" d="M33.81,25.45a1.26,1.26,0,0,1,1.69-.81,1.52,1.52,0,0,1,.72,1.9l-1.39,3.88L34,32.71l-.21.58-.18.48a.58.58,0,0,1,0,.14L33.5,34l-.06.13,0,0,0,0,0,.06a2.49,2.49,0,0,1-1.69,1.15,2.25,2.25,0,0,1-1-.08,2.31,2.31,0,0,1-.9-.51,3.13,3.13,0,0,1-.66-.89c0-.09-.07-.19-.11-.28l-.1-.28-.11-.3L28,30.81l-1.53-4.27a1.52,1.52,0,0,1,.72-1.9,1.26,1.26,0,0,1,1.69.81l1.53,4.27L31.2,32l.1.28h.06l.24-.67.82-2.29Z" transform="translate(-9.2 -9.2)"/>
            <path class="e" d="M33.84,25.46a1.22,1.22,0,0,1,1.65-.78,1.48,1.48,0,0,1,.7,1.85L34.8,30.41,34,32.7l-.21.57-.17.49-.06.13-.06.13-.07.12v0s0,0,0,0l0,.06a2.46,2.46,0,0,1-1.68,1.14,2.22,2.22,0,0,1-1-.07,2.31,2.31,0,0,1-.88-.51,2.88,2.88,0,0,1-.65-.88c0-.09-.07-.18-.11-.28l-.1-.28-.11-.3L28,30.79l-1.53-4.26a1.48,1.48,0,0,1,.7-1.85,1.22,1.22,0,0,1,1.65.78l1.53,4.27L31.17,32l.11.28a0,0,0,0,0,0,0h.05s0,0,0,0h0l0-.09.21-.57.82-2.29Z" transform="translate(-9.2 -9.2)"/>
            <path class="f" d="M33.87,25.48a1.2,1.2,0,0,1,1.61-.77,1.45,1.45,0,0,1,.68,1.8L34.77,30.4,34,32.69l-.21.57-.17.48a.69.69,0,0,0,0,.13l-.07.13-.06.12,0,0,0,0,0,.06a2.44,2.44,0,0,1-1.66,1.13,2.17,2.17,0,0,1-1-.08,2.07,2.07,0,0,1-.87-.5,2.6,2.6,0,0,1-.64-.88,2,2,0,0,1-.11-.26l-.1-.28-.11-.3L28,30.78,26.5,26.51a1.45,1.45,0,0,1,.68-1.8,1.19,1.19,0,0,1,1.61.77l1.53,4.26L31.14,32l.11.29a.05.05,0,0,0,0,0l0,0h0a.13.13,0,0,0,.07,0s0,0,0,0l0-.1.21-.57.82-2.29Z" transform="translate(-9.2 -9.2)"/>
            <path class="g" d="M33.9,25.49a1.17,1.17,0,0,1,1.57-.75,1.42,1.42,0,0,1,.66,1.76l-1.39,3.88-.82,2.29-.21.58-.17.47s0,.09,0,.13l-.06.12-.07.13v0l0,0,0,.05a2.37,2.37,0,0,1-1.63,1.12,2.26,2.26,0,0,1-1-.07,2.46,2.46,0,0,1-.87-.5,2.75,2.75,0,0,1-.62-.87,1.19,1.19,0,0,1-.11-.26l-.1-.27-.11-.3-.82-2.29L26.53,26.5a1.42,1.42,0,0,1,.66-1.76,1.17,1.17,0,0,1,1.57.75l1.53,4.27.82,2.29.11.29,0,0a.05.05,0,0,0,.05,0h.05a.11.11,0,0,0,.08-.07v0l0-.1.21-.58.82-2.29Z" transform="translate(-9.2 -9.2)"/>
            <path class="h" d="M33.93,25.5a1.14,1.14,0,0,1,1.53-.72,1.38,1.38,0,0,1,.64,1.71l-1.39,3.88-.82,2.29-.21.57-.17.47a.69.69,0,0,1,0,.13L33.4,34l-.06.12,0,0,0,0,0,.06a2.37,2.37,0,0,1-1.62,1.11,2.26,2.26,0,0,1-1.81-.57,2.71,2.71,0,0,1-.62-.86,2,2,0,0,1-.1-.26l-.1-.27-.11-.3-.82-2.29-1.53-4.26a1.38,1.38,0,0,1,.65-1.71,1.13,1.13,0,0,1,1.52.72l1.53,4.27.82,2.29.11.31,0,.06.06,0h.06a.15.15,0,0,0,.11-.08s0,0,0,0l0-.1.21-.57.82-2.29Z" transform="translate(-9.2 -9.2)"/>
            <path class="i" d="M34,25.52a1.1,1.1,0,0,1,1.48-.71,1.32,1.32,0,0,1,.63,1.66l-1.39,3.89-.82,2.29-.21.57-.17.46a.5.5,0,0,1,0,.13l-.06.12-.06.12v0l0,0,0,0a2.3,2.3,0,0,1-1.59,1.1,2.13,2.13,0,0,1-.94-.07,2.28,2.28,0,0,1-.85-.49,2.64,2.64,0,0,1-.61-.85,2,2,0,0,1-.1-.26l-.1-.26-.11-.3-.82-2.29-1.53-4.27a1.33,1.33,0,0,1,.63-1.66,1.1,1.1,0,0,1,1.48.71l1.53,4.26.82,2.29.12.32a.16.16,0,0,0,0,.07.18.18,0,0,0,.07,0s0,0,.08,0a.15.15,0,0,0,.12-.1l0,0,0-.11.21-.57.82-2.29Z" transform="translate(-9.2 -9.2)"/>
            <path class="j" d="M34,25.53a1.08,1.08,0,0,1,1.44-.69A1.3,1.3,0,0,1,36,26.46l-1.39,3.88-.82,2.29-.21.58-.16.45a1.12,1.12,0,0,0-.05.13l-.06.12-.06.12,0,0s0,0,0,0l0,.06a2.26,2.26,0,0,1-1.58,1.08,2.1,2.1,0,0,1-.93-.07,2.05,2.05,0,0,1-.83-.48,2.57,2.57,0,0,1-.6-.84,2.6,2.6,0,0,1-.1-.25l-.1-.26L29,33l-.82-2.29-1.53-4.27a1.31,1.31,0,0,1,.61-1.62,1.08,1.08,0,0,1,1.44.69L30.2,29.8,31,32.09l.12.32a.22.22,0,0,0,.05.08.16.16,0,0,0,.08.06.27.27,0,0,0,.09,0,.21.21,0,0,0,.15-.11l0,0,0-.11.2-.58.83-2.29Z" transform="translate(-9.2 -9.2)"/>
            <path class="k" d="M34,25.54a1,1,0,0,1,1.4-.66A1.26,1.26,0,0,1,36,26.45l-1.39,3.88-.82,2.29-.21.57-.16.45s0,.09,0,.13l-.06.12-.06.12v0s0,0,0,0l0,.06a2.25,2.25,0,0,1-1.55,1.07,2.2,2.2,0,0,1-.92-.07,2.27,2.27,0,0,1-.82-.48,2.68,2.68,0,0,1-.6-.83c0-.08-.06-.17-.1-.25l-.09-.26L29,33l-.82-2.29-1.53-4.26a1.26,1.26,0,0,1,.59-1.57,1,1,0,0,1,1.4.66l1.53,4.27L31,32.1l.12.33a.33.33,0,0,0,.06.1.24.24,0,0,0,.09.06h.11a.22.22,0,0,0,.16-.14l0-.05,0-.12.2-.57.83-2.29Z" transform="translate(-9.2 -9.2)"/>
            <path class="l" d="M34.05,25.56a1,1,0,0,1,1.36-.65A1.22,1.22,0,0,1,36,26.43l-1.39,3.89-.82,2.29-.21.57-.16.45,0,.12-.06.12,0,.11,0,0,0,0,0,.05a2.21,2.21,0,0,1-1.53,1.06,2.08,2.08,0,0,1-1.72-.54,2.57,2.57,0,0,1-.59-.82,1.86,1.86,0,0,1-.1-.25l-.09-.25L29,33l-.82-2.29-1.53-4.27a1.21,1.21,0,0,1,.58-1.52,1,1,0,0,1,1.35.65l1.53,4.26L31,32.11l.12.34a.24.24,0,0,0,.06.11.23.23,0,0,0,.1.07h.12a.26.26,0,0,0,.19-.15.14.14,0,0,0,0-.06l.05-.13.2-.57.83-2.29Z" transform="translate(-9.2 -9.2)"/>
            <path class="m" d="M34.08,25.57a1,1,0,0,1,1.32-.63A1.2,1.2,0,0,1,36,26.42L34.56,30.3l-.82,2.29-.21.57-.16.45a.61.61,0,0,1,0,.12l0,.11-.06.12v0l0,0,0,.06a2.21,2.21,0,0,1-1.51,1,2.06,2.06,0,0,1-1.7-.54,2.52,2.52,0,0,1-.57-.81,1.86,1.86,0,0,1-.1-.25l-.09-.25-.11-.3-.82-2.28-1.53-4.27a1.19,1.19,0,0,1,.56-1.48,1,1,0,0,1,1.31.63l1.53,4.27.83,2.29.12.34a.24.24,0,0,0,.07.12.27.27,0,0,0,.25.09.33.33,0,0,0,.21-.16.64.64,0,0,1,0-.07l.05-.13.2-.58.83-2.29Z" transform="translate(-9.2 -9.2)"/>
            <path class="n" d="M34.11,25.59A.94.94,0,0,1,35.38,25a1.15,1.15,0,0,1,.54,1.43l-1.39,3.88-.82,2.29-.21.57-.16.44,0,.12-.06.11-.06.12v0l0,0,0,0a2.15,2.15,0,0,1-1.49,1,2.06,2.06,0,0,1-.89-.07,2,2,0,0,1-.79-.46,2.41,2.41,0,0,1-.56-.8,2.44,2.44,0,0,1-.1-.24l-.09-.25-.11-.3-.82-2.29-1.53-4.26A1.15,1.15,0,0,1,27.28,25a.94.94,0,0,1,1.27.61l1.53,4.26.83,2.29.12.35a.64.64,0,0,0,.08.14.3.3,0,0,0,.27.09.28.28,0,0,0,.23-.18l0-.07.05-.14.2-.57.83-2.29Z" transform="translate(-9.2 -9.2)"/>
            <path class="o" d="M34.14,25.6A.92.92,0,0,1,35.37,25a1.11,1.11,0,0,1,.52,1.38L34.5,30.28l-.82,2.28-.21.58-.15.43a.61.61,0,0,0,0,.12l-.06.11-.05.11v0l0,0,0,.05a2.14,2.14,0,0,1-1.47,1,2,2,0,0,1-.88-.06,2.15,2.15,0,0,1-.78-.46,2.36,2.36,0,0,1-.56-.79c-.07-.15-.12-.32-.18-.48l-.11-.3-.82-2.29-1.53-4.27A1.11,1.11,0,0,1,27.29,25a.92.92,0,0,1,1.23.59l1.53,4.26.83,2.29.12.36a.38.38,0,0,0,.09.15.3.3,0,0,0,.29.1.34.34,0,0,0,.26-.19l0-.09,0-.14.2-.57.83-2.29Z" transform="translate(-9.2 -9.2)"/>
            <path class="p" d="M34.17,25.61a.88.88,0,0,1,1.19-.56,1.06,1.06,0,0,1,.5,1.33l-1.39,3.88-.82,2.29-.21.57-.15.43,0,.12-.05.11-.06.11v0l0,0,0,.05a2.08,2.08,0,0,1-1.45,1,1.93,1.93,0,0,1-.86-.07,2,2,0,0,1-.77-.45,2.56,2.56,0,0,1-.55-.78c-.07-.15-.12-.32-.18-.48l-.11-.3-.82-2.29L26.8,26.38a1.07,1.07,0,0,1,.5-1.33.88.88,0,0,1,1.19.56L30,29.88l.83,2.29.13.36a.32.32,0,0,0,.09.16.36.36,0,0,0,.32.12.37.37,0,0,0,.27-.22s0-.06,0-.09l.05-.14.2-.58.83-2.28Z" transform="translate(-9.2 -9.2)"/>
          </g>
          <g>
            <path class="q" d="M28.3,25.7,29.83,30l.82,2.29.15.41a.72.72,0,0,0,.14.24.55.55,0,0,0,.48.17.57.57,0,0,0,.41-.32l.05-.14.06-.17.21-.58L33,29.58l1.4-3.88a.68.68,0,0,1,.91-.44.84.84,0,0,1,.39,1l-1.4,3.88-.82,2.29-.2.58-.15.39a.49.49,0,0,1,0,.11l0,.1a1.28,1.28,0,0,1-.11.2,1.87,1.87,0,0,1-1.31.93,1.74,1.74,0,0,1-1.49-.48,2.14,2.14,0,0,1-.49-.72,4.28,4.28,0,0,1-.17-.43l-.1-.29-.82-2.29L27,26.29a.84.84,0,0,1,.39-1A.69.69,0,0,1,28.3,25.7Z" transform="translate(-9.2 -9.2)"/>
            <path class="r" d="M34.41,25.72a.64.64,0,0,1,.85-.4.77.77,0,0,1,.36.95l-1.39,3.88-.83,2.29-.2.57-.14.39,0,.11L33,33.6a1.24,1.24,0,0,1-.1.2,1.81,1.81,0,0,1-1.28.92,1.73,1.73,0,0,1-1.45-.48,2,2,0,0,1-.48-.7c-.06-.13-.11-.28-.16-.42l-.1-.3-.83-2.29L27,26.27a.77.77,0,0,1,.36-.95.64.64,0,0,1,.85.4L29.78,30l.82,2.29.15.42a.63.63,0,0,0,.16.26.57.57,0,0,0,.51.19.64.64,0,0,0,.45-.35l.06-.15.06-.18.21-.58L33,29.61Z" transform="translate(-9.2 -9.2)"/>
            <path class="s" d="M34.46,25.74a.58.58,0,0,1,.78-.37.7.7,0,0,1,.33.88l-1.39,3.88-.83,2.29-.2.57-.14.38a1.19,1.19,0,0,1-.08.2,1.74,1.74,0,0,1-.1.19,1.76,1.76,0,0,1-1.25.9,1.64,1.64,0,0,1-1.41-.47,2.18,2.18,0,0,1-.47-.68l-.15-.41-.11-.3-.82-2.29-1.53-4.26a.72.72,0,0,1,.33-.88.58.58,0,0,1,.78.37L29.73,30l.82,2.29.16.44a.78.78,0,0,0,.16.28.63.63,0,0,0,.56.19.64.64,0,0,0,.48-.37,1,1,0,0,0,.06-.16l.07-.19.21-.57.82-2.29Z" transform="translate(-9.2 -9.2)"/>
            <path class="s" d="M34.51,25.77a.52.52,0,0,1,.71-.34.62.62,0,0,1,.3.79l-1.39,3.89-.82,2.29L33.1,33l-.13.37c0,.07,0,.13-.08.19a1.14,1.14,0,0,1-.1.19,1.71,1.71,0,0,1-1.21.88,1.63,1.63,0,0,1-1.39-.46,2,2,0,0,1-.44-.67c-.06-.13-.1-.26-.15-.4l-.11-.29-.82-2.29-1.53-4.27a.63.63,0,0,1,.3-.79.52.52,0,0,1,.71.34L29.68,30l.83,2.29.16.45a.74.74,0,0,0,.17.3.67.67,0,0,0,.6.21.71.71,0,0,0,.51-.4c0-.05,0-.11.07-.17l.07-.2.2-.57.83-2.29Z" transform="translate(-9.2 -9.2)"/>
            <path class="t" d="M34.56,25.79a.48.48,0,0,1,.64-.31.57.57,0,0,1,.27.72l-1.39,3.89-.82,2.29-.21.57-.13.36a1.08,1.08,0,0,1-.08.19.76.76,0,0,1-.09.18,1.63,1.63,0,0,1-1.18.86,1.59,1.59,0,0,1-1.35-.45,1.94,1.94,0,0,1-.43-.65l-.14-.39-.11-.29-.82-2.29L27.19,26.2a.59.59,0,0,1,.27-.72.48.48,0,0,1,.64.31l1.53,4.26.83,2.29.16.46a.89.89,0,0,0,.19.33.73.73,0,0,0,.64.22.75.75,0,0,0,.54-.43,1,1,0,0,0,.07-.18l.08-.21.2-.57.83-2.29Z" transform="translate(-9.2 -9.2)"/>
            <path class="u" d="M34.61,25.81a.42.42,0,0,1,.57-.27.51.51,0,0,1,.25.64L34,30.06l-.82,2.29-.21.58-.12.35-.08.18a.75.75,0,0,1-.08.18,1.62,1.62,0,0,1-1.15.84,1.53,1.53,0,0,1-1.32-.43,2,2,0,0,1-.41-.64A3.57,3.57,0,0,1,29.7,33l-.11-.29-.82-2.29-1.53-4.27a.51.51,0,0,1,.24-.64.42.42,0,0,1,.57.27l1.54,4.27.82,2.29.17.47a.9.9,0,0,0,.2.34.72.72,0,0,0,.67.24A.77.77,0,0,0,32,33a1.08,1.08,0,0,0,.08-.19l.08-.21.2-.58.82-2.29Z" transform="translate(-9.2 -9.2)"/>
            <path class="v" d="M34.66,25.83a.37.37,0,0,1,.5-.24.46.46,0,0,1,.22.57L34,30l-.82,2.29L33,32.9l-.12.35-.07.18c0,.06,0,.12-.08.17a1.57,1.57,0,0,1-1.12.82A1.48,1.48,0,0,1,30.28,34a1.88,1.88,0,0,1-.4-.63c-.05-.12-.09-.24-.14-.37l-.1-.29-.82-2.29-1.54-4.26a.46.46,0,0,1,.22-.57.37.37,0,0,1,.5.24l1.54,4.27.82,2.29.17.48a.93.93,0,0,0,.21.36.81.81,0,0,0,.72.26.87.87,0,0,0,.62-.49,1.18,1.18,0,0,0,.07-.2l.09-.22.2-.58.82-2.28Z" transform="translate(-9.2 -9.2)"/>
          </g>
          <g>
            <path class="w" d="M34.85,25.94c.07-.2.21-.3.35-.24s.17.25.1.45l-1.41,3.92-.81,2.28-.21.57-.12.34a1.68,1.68,0,0,1-.16.33,1.47,1.47,0,0,1-1.08.76,1.44,1.44,0,0,1-1.21-.45,1.72,1.72,0,0,1-.37-.61l-.23-.64-.82-2.28-1.53-4.24a.35.35,0,0,1,.11-.45c.13-.06.28,0,.35.24l1.53,4.25.81,2.28.2.53a1.22,1.22,0,0,0,.24.45,1,1,0,0,0,.87.33,1.14,1.14,0,0,0,.86-.8l.09-.25.21-.57.82-2.28Z" transform="translate(-9.2 -9.2)"/>
            <path class="x" d="M34.87,25.94c.07-.18.2-.27.32-.22s.16.22.09.41L33.88,30l-.83,2.29-.2.57-.13.34a1.24,1.24,0,0,1-.15.33,1.47,1.47,0,0,1-1.07.75,1.39,1.39,0,0,1-1.2-.45,2,2,0,0,1-.36-.62l-.23-.63-.82-2.29L27.37,26.1c-.06-.18,0-.34.1-.4s.25,0,.31.22l1.52,4.23.82,2.29.2.54a1.33,1.33,0,0,0,.25.47,1,1,0,0,0,1.67-.23,1.75,1.75,0,0,0,.11-.24l.09-.26.2-.57.83-2.3Z" transform="translate(-9.2 -9.2)"/>
            <path class="y" d="M34.9,25.94c.06-.17.18-.24.28-.19s.14.18.08.36L33.86,30,33,32.32l-.21.57-.12.34a1.33,1.33,0,0,1-.15.32,1.37,1.37,0,0,1-2.25.28,1.82,1.82,0,0,1-.34-.61l-.23-.62-.83-2.31-1.51-4.21c-.06-.17,0-.31.08-.36s.22,0,.28.2l1.52,4.21.82,2.3.2.56a1.69,1.69,0,0,0,.25.48,1,1,0,0,0,.91.36,1.05,1.05,0,0,0,.81-.58,1.19,1.19,0,0,0,.11-.26l.09-.26.21-.58.83-2.3Z" transform="translate(-9.2 -9.2)"/>
            <path class="z" d="M34.93,25.94c.06-.16.15-.21.24-.17s.13.15.07.31L33.84,30,33,32.3l-.21.58-.12.33a1.92,1.92,0,0,1-.14.33,1.4,1.4,0,0,1-1.06.72,1.33,1.33,0,0,1-1.17-.46,2,2,0,0,1-.34-.61l-.22-.62-.83-2.32-1.51-4.19c-.06-.17,0-.28.07-.32s.19,0,.24.17l1.51,4.2.83,2.31.2.57a1.44,1.44,0,0,0,.26.49,1.07,1.07,0,0,0,.93.39,1.08,1.08,0,0,0,.83-.6,1.19,1.19,0,0,0,.11-.26l.1-.27.21-.58.83-2.32Z" transform="translate(-9.2 -9.2)"/>
            <path class="aa" d="M35,25.94c0-.15.13-.19.21-.15s.11.12,0,.27L33.82,30,33,32.29l-.21.58-.12.33a1.83,1.83,0,0,1-.14.32,1.41,1.41,0,0,1-1.05.72,1.34,1.34,0,0,1-1.15-.48,1.8,1.8,0,0,1-.33-.61l-.22-.61-.84-2.33L27.43,26c-.06-.15,0-.24.05-.27s.16,0,.22.15l1.5,4.18L30,32.42l.21.57a1.45,1.45,0,0,0,.26.51,1,1,0,0,0,.95.4,1.1,1.1,0,0,0,.85-.61,1.28,1.28,0,0,0,.11-.27l.1-.27.21-.59.84-2.32Z" transform="translate(-9.2 -9.2)"/>
            <path class="ab" d="M35,25.94c.05-.13.12-.16.18-.13s.09.1,0,.23l-1.39,3.89L33,32.27l-.21.58-.12.33a1.83,1.83,0,0,1-.14.32,1.52,1.52,0,0,1-.45.49,1.29,1.29,0,0,1-.59.22,1.32,1.32,0,0,1-1.14-.48,1.87,1.87,0,0,1-.32-.61l-.22-.61-.84-2.34L27.45,26c-.05-.14,0-.21,0-.24s.13,0,.18.14l1.49,4.16L30,32.41l.21.58a1.34,1.34,0,0,0,.26.52,1.08,1.08,0,0,0,1,.42,1,1,0,0,0,.51-.19,1.12,1.12,0,0,0,.37-.43,2.21,2.21,0,0,0,.12-.27l.1-.28.21-.59.84-2.34Z" transform="translate(-9.2 -9.2)"/>
            <path class="ac" d="M27.64,25.91l1.49,4.14L30,32.4l.21.59c0,.09.07.19.11.28l.07.14.09.12a1.12,1.12,0,0,0,1,.44,1.26,1.26,0,0,0,.52-.19,1.19,1.19,0,0,0,.38-.45,1.81,1.81,0,0,0,.12-.28l.1-.29.21-.58.85-2.35L35,26c.05-.13.09-.14.14-.12s.08.07,0,.19l-1.39,3.89-.85,2.34-.21.59-.11.33c0,.1-.08.21-.14.31A1.39,1.39,0,0,1,32,34a1.27,1.27,0,0,1-1.71-.28,1.47,1.47,0,0,1-.1-.13l-.08-.15a3.05,3.05,0,0,1-.13-.32l-.22-.61L29,30.13,27.47,26c0-.12,0-.17,0-.19S27.59,25.78,27.64,25.91Z" transform="translate(-9.2 -9.2)"/>
          </g>
          <path class="ac" d="M35.22,25.51h0l0,0a.42.42,0,0,1,.15.13.63.63,0,0,1,.11.31.75.75,0,0,1,0,.21,1.66,1.66,0,0,1-.06.21l-1.37,3.81-.8,2.24-.21.57-.07.19a1.18,1.18,0,0,1-.07.2,1.93,1.93,0,0,1-.19.38,1.76,1.76,0,0,1-.55.57,1.68,1.68,0,0,1-.71.25,1.66,1.66,0,0,1-1.38-.54,2.28,2.28,0,0,1-.41-.71l-.24-.66c-.27-.77-.54-1.51-.8-2.24-.52-1.45-1-2.8-1.42-4l-.09-.23v-.06l0-.05a1.49,1.49,0,0,1,0-.21.55.55,0,0,1,.11-.31.41.41,0,0,1,.16-.13l0,0h0l-.06,0a.45.45,0,0,0-.13.14.59.59,0,0,0-.09.29,1.23,1.23,0,0,0,0,.19s0,0,0,.05l0,0,.08.23c.42,1.16.9,2.52,1.43,4,.26.72.52,1.47.8,2.23l.23.65a2.05,2.05,0,0,0,.4.69,1.54,1.54,0,0,0,2,.29,1.68,1.68,0,0,0,.53-.56,1.52,1.52,0,0,0,.18-.36L33,33l.21-.58.8-2.23,1.37-3.81c0-.07.05-.14.06-.2a.68.68,0,0,0,0-.2.5.5,0,0,0-.08-.29.4.4,0,0,0-.13-.15Z" transform="translate(-9.2 -9.2)"/>
          <path class="ac" d="M34.61,25.9a.28.28,0,0,1,0,.06.13.13,0,0,1,0,.06l0,0-.06.17c-.17.49-.42,1.19-.73,2s-.65,1.83-1,2.88q-.28.78-.57,1.59l-.06.15,0,.07a.43.43,0,0,1,0,.07.25.25,0,0,1,0,.07l0,.06-.1.11a.78.78,0,0,1-.53.23.86.86,0,0,1-.53-.19,1,1,0,0,1-.32-.52l-.56-1.57c-.38-1.06-.73-2-1-2.89s-.55-1.54-.73-2L28.05,26v-.09a.18.18,0,0,1,0-.05.07.07,0,0,1,0,0l0,0h0l0,0,.12.33c.17.49.43,1.19.73,2l1,2.88.56,1.57a.93.93,0,0,0,.3.49.72.72,0,0,0,.51.19.76.76,0,0,0,.51-.22.33.33,0,0,0,.09-.11l.05-.06L32,33a.43.43,0,0,0,0-.07l0-.07,0-.14q.3-.81.57-1.59c.38-1.05.73-2,1-2.88s.55-1.55.73-2l.06-.16v0l0-.06Z" transform="translate(-9.2 -9.2)"/>
          <g class="ad">
            <path class="ae" d="M34.83,25.38a.36.36,0,0,0-.25.23.8.8,0,0,0-.08.16,1.21,1.21,0,0,0,0,.18h0v0l0,.14-.11.31-.23.64-.45,1.27-.91,2.53-.46,1.27-.2.56a1.16,1.16,0,0,1-.18.35.67.67,0,0,1-.67.22.74.74,0,0,1-.52-.51l-.87-2.41-.46-1.27-.45-1.27-.46-1.27-.22-.63,0-.06v0a.06.06,0,0,0,0,0,.19.19,0,0,0,0-.07.81.81,0,0,0-.18-.26.42.42,0,0,0-.27-.12.38.38,0,0,1,.3.08.67.67,0,0,1,.21.26.2.2,0,0,1,0,.08v.06l0,.05.22.63L29,27.78l.46,1.27.45,1.26.86,2.4a.65.65,0,0,0,.46.45.57.57,0,0,0,.58-.2.77.77,0,0,0,.16-.31l.2-.54.45-1.27.91-2.54L34,27l.23-.64.11-.31.05-.14,0,0h0a1.34,1.34,0,0,1,.07-.18.56.56,0,0,1,.09-.17.86.86,0,0,1,.13-.14A.34.34,0,0,1,34.83,25.38Z" transform="translate(-9.2 -9.2)"/>
          </g>
          <g class="ad">
            <path class="ae" d="M27.33,25.29a.52.52,0,0,0-.11.1l-.1.12a.86.86,0,0,0-.11.28,1,1,0,0,0,0,.3.57.57,0,0,0,0,.14s0,.05,0,.08l0,0v.07a2,2,0,0,1,.11.26l.1.27.19.55.39,1.08.78,2.17.78,2.17.11.32c.05.13.1.27.16.39l0,.09a.41.41,0,0,1,0,.09c0,.05.07.11.11.17a2.35,2.35,0,0,0,.26.29,1.73,1.73,0,0,0,1.38.44,1.88,1.88,0,0,0,.68-.26,1.8,1.8,0,0,0,.55-.55,3.51,3.51,0,0,0,.34-.76l.2-.55.77-2.18.39-1.08.39-1.09.4-1.08.19-.54.06-.16a.21.21,0,0,1,0-.06h0l0-.06a.24.24,0,0,1,0-.08.58.58,0,0,0,0-.14.81.81,0,0,0,0-.31.57.57,0,0,0-.11-.28l0-.06-.06-.06-.11-.1.12.09.11.11a.7.7,0,0,1,.13.29.87.87,0,0,1,0,.32,1.67,1.67,0,0,1-.08.32h0l-1.45,4-.78,2.17-.2.56a2.93,2.93,0,0,1-.36.78,1.87,1.87,0,0,1-.56.56,1.91,1.91,0,0,1-.72.27,1.76,1.76,0,0,1-1.42-.45,3.85,3.85,0,0,1-.27-.3,1.74,1.74,0,0,1-.11-.18l-.06-.09,0-.09a2.9,2.9,0,0,1-.16-.41l-.12-.32-.78-2.17L27,26.43h0l0-.06,0,0a.31.31,0,0,0,0-.08l0-.15a.92.92,0,0,1,0-.33.9.9,0,0,1,.13-.28.57.57,0,0,1,.11-.11.52.52,0,0,1,.11-.1Z" transform="translate(-9.2 -9.2)"/>
          </g>
          <g>
            <path class="af" d="M35.4,25.87a.15.15,0,0,1-.07-.19.13.13,0,0,1,.17-.08.15.15,0,0,1,.07.19A.12.12,0,0,1,35.4,25.87Z" transform="translate(-9.2 -9.2)"/>
            <path class="ag" d="M35.36,25.69a.1.1,0,0,1,.13-.06.12.12,0,0,1,.06.15.11.11,0,0,1-.14.07A.13.13,0,0,1,35.36,25.69Z" transform="translate(-9.2 -9.2)"/>
            <path class="ah" d="M35.38,25.71c0-.05.06-.07.1-.05a.08.08,0,0,1,0,.11.07.07,0,0,1-.1.05A.08.08,0,0,1,35.38,25.71Z" transform="translate(-9.2 -9.2)"/>
            <path class="ai" d="M35.4,25.72s.05,0,.07,0a.07.07,0,0,1,0,.08.05.05,0,0,1-.07,0A.06.06,0,0,1,35.4,25.72Z" transform="translate(-9.2 -9.2)"/>
            <path class="ac" d="M35.43,25.73s0,0,0,0,0,0,0,0,0,0,0,0A0,0,0,0,1,35.43,25.73Z" transform="translate(-9.2 -9.2)"/>
          </g>
          <g>
            <path class="aj" d="M27.6,25.54a.15.15,0,0,1,.21.1.18.18,0,0,1-.09.24.16.16,0,0,1-.22-.1A.19.19,0,0,1,27.6,25.54Z" transform="translate(-9.2 -9.2)"/>
            <path class="ak" d="M27.78,25.65a.16.16,0,0,1-.07.2.14.14,0,0,1-.18-.08.17.17,0,0,1,.08-.2A.13.13,0,0,1,27.78,25.65Z" transform="translate(-9.2 -9.2)"/>
            <path class="al" d="M27.75,25.67a.11.11,0,0,1-.05.14.09.09,0,0,1-.13-.06.11.11,0,0,1,.05-.14A.09.09,0,0,1,27.75,25.67Z" transform="translate(-9.2 -9.2)"/>
            <path class="am" d="M27.72,25.68a.08.08,0,0,1,0,.1.06.06,0,0,1-.08,0,.08.08,0,0,1,0-.1S27.71,25.64,27.72,25.68Z" transform="translate(-9.2 -9.2)"/>
            <path class="ac" d="M27.69,25.7s0,0,0,0,0,0,0,0a0,0,0,0,1,0,0S27.68,25.68,27.69,25.7Z" transform="translate(-9.2 -9.2)"/>
          </g>
        </g>
        <g>
          <g>
            <g>
              <path class="c" d="M43,32.84a1.33,1.33,0,0,1,0,2.66h-3.7a4.38,4.38,0,0,1-.51,0A3.16,3.16,0,0,1,37,34.55a3.42,3.42,0,0,1-.59-.82c-.07-.15-.13-.31-.19-.47a4,4,0,0,1-.11-.5,2,2,0,0,1,0-.25V27.67a2.18,2.18,0,0,1,0-.25,2.42,2.42,0,0,1,0-.25c0-.08,0-.16,0-.25a3.19,3.19,0,0,1,.4-.93,3.15,3.15,0,0,1,.66-.75,3.35,3.35,0,0,1,.87-.52,3.44,3.44,0,0,1,1-.21H43a1.33,1.33,0,1,1,0,2.66H39.21a.41.41,0,0,0-.16,0,.54.54,0,0,0-.15.09.45.45,0,0,0-.11.13.33.33,0,0,0-.07.16s0,0,0,0,0,0,0,0,0,0,0,0v4.65s0,0,0,0a.19.19,0,0,0,0,.08s0,.06,0,.08a.71.71,0,0,0,.1.14.59.59,0,0,0,.3.16H43Z" transform="translate(-9.2 -9.2)"/>
              <path class="d" d="M43,32.88a1.3,1.3,0,1,1,0,2.59h-3.7a4,4,0,0,1-.5,0,3.18,3.18,0,0,1-1.76-.9,3.38,3.38,0,0,1-.58-.82c-.07-.15-.13-.3-.19-.46a4.31,4.31,0,0,1-.11-.49,2.11,2.11,0,0,1,0-.25V27.67c0-.08,0-.16,0-.24l0-.25a1.84,1.84,0,0,1,.05-.25,3.14,3.14,0,0,1,.4-.92,3.34,3.34,0,0,1,.65-.75,3.43,3.43,0,0,1,.87-.51,3.24,3.24,0,0,1,1-.21H43a1.3,1.3,0,1,1,0,2.59H39.21a.57.57,0,0,0-.18,0l-.15.1a.49.49,0,0,0-.12.13.36.36,0,0,0-.07.17.06.06,0,0,0,0,0s0,0,0,0v4.69a.09.09,0,0,0,0,0,.24.24,0,0,0,0,.08.32.32,0,0,0,0,.09.72.72,0,0,0,.11.15.58.58,0,0,0,.31.16H43Z" transform="translate(-9.2 -9.2)"/>
              <path class="e" d="M43,32.91a1.27,1.27,0,1,1,0,2.53h-3.7l-.5,0A3.19,3.19,0,0,1,37,34.5a3.06,3.06,0,0,1-.86-1.75,1,1,0,0,1,0-.24V27.68c0-.09,0-.17,0-.25a2.17,2.17,0,0,1,0-.25,1,1,0,0,1,.05-.24,3,3,0,0,1,.38-.91,3.29,3.29,0,0,1,.65-.74,3.55,3.55,0,0,1,.86-.51,3.18,3.18,0,0,1,1-.21H43a1.27,1.27,0,1,1,0,2.53H39.21l-.19,0-.16.1a.64.64,0,0,0-.13.15.51.51,0,0,0-.07.17.09.09,0,0,0,0,.05s0,0,0,0v4.7a.07.07,0,0,0,0,0s0,.06,0,.09a.36.36,0,0,1,0,.09.91.91,0,0,0,.11.16.65.65,0,0,0,.34.17H43Z" transform="translate(-9.2 -9.2)"/>
              <path class="f" d="M43,32.94a1.23,1.23,0,0,1,0,2.46h-3.7a2.63,2.63,0,0,1-.49,0A3.07,3.07,0,0,1,37,34.48a3,3,0,0,1-.86-1.73,1,1,0,0,1,0-.24v-.13a.46.46,0,0,1,0-.1v-4.6c0-.09,0-.17,0-.25a2,2,0,0,1,0-.24,2,2,0,0,1,.05-.24,2.66,2.66,0,0,1,.38-.9,3.06,3.06,0,0,1,.65-.74,3,3,0,0,1,.84-.5,3.11,3.11,0,0,1,1-.21H43a1.23,1.23,0,1,1,0,2.46H39.21l-.2,0a.62.62,0,0,0-.17.11.53.53,0,0,0-.21.33.09.09,0,0,0,0,.05s0,0,0,.05v4.64s0,0,0,0v.08a.29.29,0,0,1,0,.09.42.42,0,0,1,0,.1.83.83,0,0,0,.12.16.69.69,0,0,0,.35.18H43Z" transform="translate(-9.2 -9.2)"/>
              <path class="g" d="M43,33a1.2,1.2,0,0,1,0,2.4h-3.7a2.7,2.7,0,0,1-.49,0,3,3,0,0,1-1.7-.87,3.09,3.09,0,0,1-.85-1.72l0-.24v-.12s0-.08,0-.1v-4.6a2.09,2.09,0,0,1,0-.25,2,2,0,0,1,0-.24,2,2,0,0,1,.05-.24,3,3,0,0,1,.38-.89,3.17,3.17,0,0,1,.64-.73,3.3,3.3,0,0,1,.83-.49,2.83,2.83,0,0,1,1-.2H43A1.2,1.2,0,0,1,43,27H39.2l-.2,0a.78.78,0,0,0-.18.11.7.7,0,0,0-.14.16.82.82,0,0,0-.09.19s0,0,0,.06v.05a.07.07,0,0,1,0,.05v4.59s0,0,0,0v.08s0,.07,0,.1l0,.1a1.09,1.09,0,0,0,.13.17.66.66,0,0,0,.37.19H43Z" transform="translate(-9.2 -9.2)"/>
              <path class="h" d="M43,33a1.17,1.17,0,1,1,0,2.33h-3.7a3.88,3.88,0,0,1-.48,0,3.09,3.09,0,0,1-1.69-.86,3.12,3.12,0,0,1-.84-1.7,1.94,1.94,0,0,1,0-.24V27.68a1.93,1.93,0,0,1,0-.24,2,2,0,0,1,0-.24,2,2,0,0,1,0-.24,3.09,3.09,0,0,1,1-1.6,3.08,3.08,0,0,1,.82-.49,3,3,0,0,1,.94-.2H43A1.17,1.17,0,1,1,43,27H39.2A.49.49,0,0,0,39,27a.62.62,0,0,0-.19.12.57.57,0,0,0-.15.16,1,1,0,0,0-.09.21.43.43,0,0,0,0,0s0,0,0,.06v4.71a.43.43,0,0,0,0,0s0,.08,0,.11l0,.1a.76.76,0,0,0,.12.19.68.68,0,0,0,.39.19l.12,0H43Z" transform="translate(-9.2 -9.2)"/>
              <path class="i" d="M43,33a1.14,1.14,0,1,1,0,2.27h-3.7a3.88,3.88,0,0,1-.48,0,3,3,0,0,1-1.66-.86,3,3,0,0,1-.84-1.67,1.94,1.94,0,0,1,0-.24V27.68c0-.08,0-.16,0-.24l0-.24a1.89,1.89,0,0,1,0-.23,2.93,2.93,0,0,1,.37-.87,3.08,3.08,0,0,1,.63-.72,3.15,3.15,0,0,1,.81-.48,3,3,0,0,1,.93-.2H43A1.14,1.14,0,1,1,43,27H39.2A.54.54,0,0,0,39,27a.67.67,0,0,0-.2.12.69.69,0,0,0-.16.18.67.67,0,0,0-.09.21s0,0,0,.06,0,0,0,.05v4.72a.13.13,0,0,0,0,.06s0,.07,0,.11l.05.11a.8.8,0,0,0,.13.19.71.71,0,0,0,.41.21H43Z" transform="translate(-9.2 -9.2)"/>
              <path class="j" d="M43,33.07a1.1,1.1,0,0,1,0,2.2h-3.7a3.59,3.59,0,0,1-.47,0,3.06,3.06,0,0,1-1.65-.85,3,3,0,0,1-.83-1.66,1.79,1.79,0,0,1,0-.23V27.68c0-.08,0-.16,0-.24l0-.23a1.55,1.55,0,0,1,0-.23,3,3,0,0,1,.37-.87,3.18,3.18,0,0,1,.62-.7,3,3,0,0,1,.81-.48,2.86,2.86,0,0,1,.91-.2H43a1.1,1.1,0,0,1,0,2.2H39.2A1,1,0,0,0,39,27l-.21.13a.65.65,0,0,0-.15.18.62.62,0,0,0-.1.22.13.13,0,0,0,0,.06s0,0,0,.06v4.72a.13.13,0,0,0,0,.06.5.5,0,0,0,0,.12,1.17,1.17,0,0,0,.05.11.66.66,0,0,0,.14.2.78.78,0,0,0,.42.22H43Z" transform="translate(-9.2 -9.2)"/>
              <path class="k" d="M43,33.1a1.07,1.07,0,0,1,0,2.14h-3.7a2.49,2.49,0,0,1-.47,0,2.9,2.9,0,0,1-2.44-2.47,1,1,0,0,1,0-.23v-.12a.41.41,0,0,1,0-.1v-4.6c0-.08,0-.16,0-.24a1,1,0,0,1,0-.23,1.7,1.7,0,0,1,0-.22,3,3,0,0,1,1-1.56,3.37,3.37,0,0,1,.8-.47,3.16,3.16,0,0,1,.9-.2H43a1.07,1.07,0,1,1,0,2.14H39.2A1,1,0,0,0,39,27l-.22.13a1,1,0,0,0-.16.19.67.67,0,0,0-.1.23.15.15,0,0,0,0,.07s0,0,0,.06a.13.13,0,0,1,0,.06v4.59s0,0,0,0v.1l0,.12.05.12a1,1,0,0,0,.15.2.76.76,0,0,0,.44.23H43Z" transform="translate(-9.2 -9.2)"/>
              <path class="l" d="M43,33.13a1,1,0,0,1,0,2.08h-3.7a3.42,3.42,0,0,1-.46,0,2.89,2.89,0,0,1-2.42-2.45l0-.23v-.11a.33.33,0,0,1,0-.1v-4.6a1.69,1.69,0,0,1,0-.23,1.81,1.81,0,0,1,0-.23,1.85,1.85,0,0,1,0-.23,3.13,3.13,0,0,1,.36-.84,3.08,3.08,0,0,1,.61-.69,3,3,0,0,1,.79-.47,2.73,2.73,0,0,1,.9-.19H43a1,1,0,0,1,0,2.08H39.2a.75.75,0,0,0-.49.19.85.85,0,0,0-.17.2.64.64,0,0,0-.1.24.13.13,0,0,0,0,.06.15.15,0,0,0,0,.07.13.13,0,0,1,0,.06v4.73l0,.13,0,.12a1.07,1.07,0,0,0,.15.22.84.84,0,0,0,.46.23H43Z" transform="translate(-9.2 -9.2)"/>
              <path class="m" d="M43,33.17a1,1,0,1,1,0,2h-3.7a3.57,3.57,0,0,1-.46,0,2.85,2.85,0,0,1-1.59-.82,2.88,2.88,0,0,1-.8-1.6,1.79,1.79,0,0,1,0-.23V27.68a1.77,1.77,0,0,1,0-.23,1.81,1.81,0,0,1,0-.23,1.74,1.74,0,0,1,.05-.22,2.77,2.77,0,0,1,.35-.83,3,3,0,0,1,.6-.69,3.21,3.21,0,0,1,.78-.46,3,3,0,0,1,.89-.19H43a1,1,0,1,1,0,2H39.19a.58.58,0,0,0-.26.06,1.12,1.12,0,0,0-.24.13.91.91,0,0,0-.18.21.77.77,0,0,0-.1.25s0,0,0,.06,0,.05,0,.07v4.74s0,0,0,.07a.61.61,0,0,0,0,.13s0,.09,0,.13a.86.86,0,0,0,.64.46l.14,0H43Z" transform="translate(-9.2 -9.2)"/>
              <path class="n" d="M43,33.2a1,1,0,1,1,0,1.95h-3.7a3.42,3.42,0,0,1-.45,0,2.87,2.87,0,0,1-1.58-.81,2.84,2.84,0,0,1-.79-1.59,1.64,1.64,0,0,1,0-.22V27.68c0-.08,0-.15,0-.23l0-.22a1.74,1.74,0,0,1,.05-.22,2.86,2.86,0,0,1,1.71-2,3,3,0,0,1,.88-.19H43a1,1,0,1,1,0,1.95H39.19a.63.63,0,0,0-.27.06.89.89,0,0,0-.25.14.91.91,0,0,0-.18.21.66.66,0,0,0-.11.26.19.19,0,0,0,0,.07s0,.05,0,.07v4.74a.15.15,0,0,0,0,.07.7.7,0,0,0,0,.14s0,.09,0,.13a1.24,1.24,0,0,0,.17.23.86.86,0,0,0,.49.25.77.77,0,0,0,.15,0H43Z" transform="translate(-9.2 -9.2)"/>
              <path class="o" d="M43,33.23a.94.94,0,1,1,0,1.88h-3.7a3.4,3.4,0,0,1-.45,0,2.8,2.8,0,0,1-2.34-2.37,1.8,1.8,0,0,1,0-.22v-5l0-.22s0-.08,0-.11l0-.11a2.71,2.71,0,0,1,.35-.82,2.86,2.86,0,0,1,.58-.67,3.24,3.24,0,0,1,.76-.45,3,3,0,0,1,.87-.19H43a.94.94,0,0,1,0,1.88H39.19a1,1,0,0,0-.29.07.89.89,0,0,0-.25.14,1.3,1.3,0,0,0-.19.22,1,1,0,0,0-.11.27v.07s0,.05,0,.08v4.74a.22.22,0,0,0,0,.08.7.7,0,0,0,0,.14c0,.05,0,.09,0,.13a1,1,0,0,0,.17.24,1,1,0,0,0,.52.27H43Z" transform="translate(-9.2 -9.2)"/>
              <path class="p" d="M43,33.26a.91.91,0,1,1,0,1.82h-3.7a3.15,3.15,0,0,1-.44,0,2.82,2.82,0,0,1-1.54-.79,2.73,2.73,0,0,1-.77-1.56.78.78,0,0,1,0-.22v-.1s0-.08,0-.1v-4.6l0-.22a1.64,1.64,0,0,1,0-.22.43.43,0,0,0,0-.11l0-.11a2.58,2.58,0,0,1,.34-.8,3.05,3.05,0,0,1,.58-.66,2.77,2.77,0,0,1,.76-.45,2.49,2.49,0,0,1,.85-.18H43a.91.91,0,0,1,0,1.82H39.19a1.09,1.09,0,0,0-.3.07.76.76,0,0,0-.26.15.9.9,0,0,0-.2.23,1.31,1.31,0,0,0-.12.27v.08s0,.05,0,.07a.19.19,0,0,1,0,.08v4.59a.07.07,0,0,0,0,0v0a.17.17,0,0,0,0,.07.8.8,0,0,0,0,.15.84.84,0,0,0,.06.14.91.91,0,0,0,.7.52H43Z" transform="translate(-9.2 -9.2)"/>
            </g>
            <g>
              <path class="q" d="M43,26.53H39.18a1.05,1.05,0,0,0-.36.08,1.13,1.13,0,0,0-.32.19.92.92,0,0,0-.24.28,1,1,0,0,0-.15.33v.09s0,.07,0,.1v.09a.66.66,0,0,0,0,.14v4.45a.2.2,0,0,0,0,0v.05a.28.28,0,0,0,0,.09.58.58,0,0,0,0,.18.87.87,0,0,0,.07.17,1.08,1.08,0,0,0,.21.3,1.13,1.13,0,0,0,.65.33.58.58,0,0,0,.19,0H43a.7.7,0,1,1,0,1.4h-3.7a2.83,2.83,0,0,1-.41,0,2.58,2.58,0,0,1-2.14-2.17,1.23,1.23,0,0,1,0-.2v-.1a.31.31,0,0,1,0-.09v-4.8l0-.21s0-.06,0-.1l0-.09a2.5,2.5,0,0,1,.32-.75,2.84,2.84,0,0,1,.53-.61,2.74,2.74,0,0,1,.7-.41,2.45,2.45,0,0,1,.8-.18H43a.7.7,0,0,1,0,1.4Z" transform="translate(-9.2 -9.2)"/>
              <path class="r" d="M43,33.52a.65.65,0,0,1,0,1.3h-3.7a2.6,2.6,0,0,1-.4,0,2.53,2.53,0,0,1-1.4-.72,2.5,2.5,0,0,1-.7-1.4,1.5,1.5,0,0,1,0-.2v-.1s0-.07,0-.09v-4.8a1.36,1.36,0,0,1,0-.2s0-.06,0-.09l0-.1a2.63,2.63,0,0,1,.31-.73,2.54,2.54,0,0,1,.53-.6,2.22,2.22,0,0,1,.68-.4,2.1,2.1,0,0,1,.78-.17H43a.65.65,0,1,1,0,1.3H39.17a1.17,1.17,0,0,0-.37.08,1.68,1.68,0,0,0-.34.2,1.41,1.41,0,0,0-.25.29,1.19,1.19,0,0,0-.15.35v.1s0,.06,0,.09a.34.34,0,0,1,0,.1v4.69a.31.31,0,0,0,0,.1.65.65,0,0,0,0,.19,1.34,1.34,0,0,0,.07.18,1.14,1.14,0,0,0,.23.31,1.25,1.25,0,0,0,.67.35H43Z" transform="translate(-9.2 -9.2)"/>
              <path class="s" d="M43,33.58a.59.59,0,0,1,.6.59.6.6,0,0,1-.6.6h-3.7l-.39,0A2.49,2.49,0,0,1,37.49,34a2.39,2.39,0,0,1-.68-1.37.68.68,0,0,1,0-.2v-5a1.36,1.36,0,0,1,0-.2s0-.06,0-.09l0-.1a2.42,2.42,0,0,1,.31-.72,2.56,2.56,0,0,1,.51-.58,2.53,2.53,0,0,1,.67-.4,2.46,2.46,0,0,1,.76-.16H43a.6.6,0,0,1,.6.6.59.59,0,0,1-.6.59H39.17a1.29,1.29,0,0,0-.39.08,1.28,1.28,0,0,0-.61.51,1,1,0,0,0-.16.37v.1s0,.06,0,.1v4.8a.44.44,0,0,0,0,.1.65.65,0,0,0,0,.19,1.07,1.07,0,0,0,.07.19,1.55,1.55,0,0,0,.24.33,1.28,1.28,0,0,0,.7.36l.21,0H43Z" transform="translate(-9.2 -9.2)"/>
              <path class="s" d="M43,33.63a.55.55,0,0,1,.55.54.55.55,0,0,1-.55.55h-3.7a2.33,2.33,0,0,1-.38,0A2.37,2.37,0,0,1,37.53,34a2.52,2.52,0,0,1-.45-.62c0-.12-.1-.24-.14-.36a2.21,2.21,0,0,1-.08-.37,1.23,1.23,0,0,1,0-.19v-5c0-.06,0-.13,0-.19s0-.06,0-.09l0-.1a2.39,2.39,0,0,1,.3-.7,2.4,2.4,0,0,1,1.9-1.12H43a.55.55,0,0,1,.55.55.55.55,0,0,1-.55.54H39.17a1.15,1.15,0,0,0-.41.08,1.65,1.65,0,0,0-.36.22,1.38,1.38,0,0,0-.28.31,1.34,1.34,0,0,0-.16.39v.1a.36.36,0,0,0,0,.1v4.81s0,.07,0,.1a1.6,1.6,0,0,0,0,.21.77.77,0,0,0,.08.19,1.16,1.16,0,0,0,.24.34,1.32,1.32,0,0,0,.74.38l.21,0H43Z" transform="translate(-9.2 -9.2)"/>
              <path class="t" d="M43,33.68a.49.49,0,0,1,0,1h-3.7a1.63,1.63,0,0,1-.38,0,2.32,2.32,0,0,1-1.74-1.28A2,2,0,0,1,37,33a2.21,2.21,0,0,1-.08-.37,1.1,1.1,0,0,1,0-.18v-5a1.13,1.13,0,0,1,0-.18s0-.06,0-.09l0-.09a2.13,2.13,0,0,1,.3-.69,2.38,2.38,0,0,1,.49-.56,2.31,2.31,0,0,1,.64-.38,2.58,2.58,0,0,1,.73-.16H43a.49.49,0,1,1,0,1H39.16a1.23,1.23,0,0,0-.42.1,1.34,1.34,0,0,0-.38.22,1.43,1.43,0,0,0-.28.32,1.27,1.27,0,0,0-.17.4l0,.06v0a.43.43,0,0,0,0,.11v.11a.65.65,0,0,0,0,.14v4.45s0,0,0,.06v0s0,.08,0,.11a1.6,1.6,0,0,0,0,.21,1.8,1.8,0,0,0,.08.21,1.48,1.48,0,0,0,.25.35,1.36,1.36,0,0,0,.77.39.78.78,0,0,0,.22,0H43Z" transform="translate(-9.2 -9.2)"/>
              <path class="u" d="M43,33.73a.44.44,0,0,1,0,.88h-3.7a2.22,2.22,0,0,1-.37,0,2.3,2.3,0,0,1-1.28-.66,2.26,2.26,0,0,1-.42-.59A2,2,0,0,1,37,33a3.59,3.59,0,0,1-.08-.35,1.23,1.23,0,0,1,0-.19c0-.05,0-.12,0-.17V27.5l0-.18a1.16,1.16,0,0,1,0-.18,2,2,0,0,1,.28-.67,2.29,2.29,0,0,1,.48-.55,2.48,2.48,0,0,1,.63-.37,2.44,2.44,0,0,1,.71-.16H43a.44.44,0,0,1,0,.88H39.16a1.34,1.34,0,0,0-.44.1,1.29,1.29,0,0,0-.39.23,1.66,1.66,0,0,0-.3.34,1.15,1.15,0,0,0-.17.41l0,.11s0,.08,0,.11v4.71s0,.08,0,.12a.45.45,0,0,0,0,.11,1.74,1.74,0,0,0,.05.22,1.8,1.8,0,0,0,.08.21,1.59,1.59,0,0,0,.27.37,1.4,1.4,0,0,0,.79.4.86.86,0,0,0,.23,0H43Z" transform="translate(-9.2 -9.2)"/>
              <path class="v" d="M43,33.79a.39.39,0,1,1,0,.77h-3.7l-.36,0a2.28,2.28,0,0,1-1.25-.64,2.11,2.11,0,0,1-.41-.58,2.33,2.33,0,0,1-.14-.33c0-.12-.06-.23-.08-.35s0-.12,0-.18v-5a1,1,0,0,1,0-.17,1.16,1.16,0,0,1,0-.18,2,2,0,0,1,.28-.65A2,2,0,0,1,37.8,26a2.57,2.57,0,0,1,.62-.36,2.08,2.08,0,0,1,.69-.15H43a.39.39,0,1,1,0,.77H39.16a1.46,1.46,0,0,0-.46.1,1.63,1.63,0,0,0-.4.24,1.47,1.47,0,0,0-.31.35,1.16,1.16,0,0,0-.18.43l0,.11s0,.08,0,.12v4.71a.45.45,0,0,0,0,.12.49.49,0,0,0,0,.12,1.22,1.22,0,0,0,.14.44,1.46,1.46,0,0,0,.27.38,1.44,1.44,0,0,0,.82.42,2,2,0,0,0,.24,0H43Z" transform="translate(-9.2 -9.2)"/>
            </g>
            <g>
              <path class="w" d="M42.93,34c.19,0,.33.11.33.25s-.14.25-.33.25H39l-.18,0a2.48,2.48,0,0,1-.64-.24,2.18,2.18,0,0,1-.54-.42,2,2,0,0,1-.22-.27,1.73,1.73,0,0,1-.16-.3,1.92,1.92,0,0,1-.19-.66c0-.06,0-.11,0-.17V27.8c0-.09,0-.21,0-.32a1.86,1.86,0,0,1,.07-.34,2.07,2.07,0,0,1,.27-.63,2.47,2.47,0,0,1,.46-.51,2,2,0,0,1,.6-.34l.33-.1a1.86,1.86,0,0,1,.34,0H43c.19,0,.33.11.33.25S43.14,26,43,26h-3.5a2.8,2.8,0,0,0-.29,0,2.3,2.3,0,0,0-.26,0,1.12,1.12,0,0,0-.26.08,1.75,1.75,0,0,0-.46.26,1.65,1.65,0,0,0-.35.4,1.74,1.74,0,0,0-.22.48,1.28,1.28,0,0,0,0,.27c0,.09,0,.17,0,.27v4.57a.57.57,0,0,0,0,.13,1.49,1.49,0,0,0,.14.51,1.83,1.83,0,0,0,.13.24,1.63,1.63,0,0,0,.17.2,1.5,1.5,0,0,0,.42.33,1.43,1.43,0,0,0,.5.18l.13,0h3.87Z" transform="translate(-9.2 -9.2)"/>
              <path class="x" d="M42.94,34c.18,0,.3.09.3.22s-.12.22-.3.22H39l-.17,0a2.17,2.17,0,0,1-.65-.22,2,2,0,0,1-.53-.42,2,2,0,0,1-.39-.56,2.5,2.5,0,0,1-.19-.66.91.91,0,0,1,0-.17V27.63a.91.91,0,0,1,0-.17l0-.17a1,1,0,0,1,0-.17,2,2,0,0,1,.28-.62,2.17,2.17,0,0,1,1.73-1H43c.18,0,.3.09.3.22s-.12.22-.3.22H39.19a1.61,1.61,0,0,0-.53.1,1.77,1.77,0,0,0-.84.66,1.62,1.62,0,0,0-.23.5l0,.13,0,.13a1.31,1.31,0,0,0,0,.28v4.6a.57.57,0,0,0,0,.13,1.83,1.83,0,0,0,.15.52,1.57,1.57,0,0,0,.31.45,1.91,1.91,0,0,0,.42.33,1.69,1.69,0,0,0,.52.18l.13,0h3.87Z" transform="translate(-9.2 -9.2)"/>
              <path class="y" d="M43,34.05c.17,0,.27.08.27.19s-.1.19-.27.19h-3.9l-.17,0a2.11,2.11,0,0,1-.64-.22,1.93,1.93,0,0,1-.54-.41,2.08,2.08,0,0,1-.38-.55,1.94,1.94,0,0,1-.19-.65,1,1,0,0,1,0-.17V27.6a.86.86,0,0,1,0-.16l0-.17.05-.17a2.13,2.13,0,0,1,.29-.61,2.08,2.08,0,0,1,1.73-.92H43c.16,0,.26.09.26.2s-.1.19-.26.19H39.22a1.65,1.65,0,0,0-.54.09,1.79,1.79,0,0,0-.87.66,1.54,1.54,0,0,0-.24.5,1.7,1.7,0,0,0-.07.55v4.62s0,.09,0,.14a1.46,1.46,0,0,0,.15.53,1.77,1.77,0,0,0,.31.46,2,2,0,0,0,.44.33A1.75,1.75,0,0,0,39,34l.14,0H43Z" transform="translate(-9.2 -9.2)"/>
              <path class="z" d="M43,34.07c.16,0,.24.07.24.17s-.08.17-.24.17H39.24l-.33,0a2.11,2.11,0,0,1-1.18-.61,2.19,2.19,0,0,1-.58-1.2,1,1,0,0,1,0-.17V27.75a2.1,2.1,0,0,1,.09-.66,2,2,0,0,1,.29-.61,2.17,2.17,0,0,1,1.07-.79,2.53,2.53,0,0,1,.67-.1H43c.15,0,.24.07.24.17s-.09.17-.24.17H39.26a1.8,1.8,0,0,0-1.46.75,1.8,1.8,0,0,0-.25.5,2.18,2.18,0,0,0-.08.57v4.19c0,.2,0,.4,0,.59A1.77,1.77,0,0,0,39,34.05l.28,0H43Z" transform="translate(-9.2 -9.2)"/>
              <path class="aa" d="M43,34.1c.14,0,.21.06.21.14s-.07.14-.21.14H39.26a1.83,1.83,0,0,1-.33,0,2.09,2.09,0,0,1-1.75-1.79.91.91,0,0,1,0-.17.86.86,0,0,1,0-.16V27.73a2.11,2.11,0,0,1,.1-.66,2.41,2.41,0,0,1,.3-.6,2.1,2.1,0,0,1,1.07-.76,2.15,2.15,0,0,1,.66-.09H43c.15,0,.21.06.21.14s-.06.14-.21.14H39.29a1.79,1.79,0,0,0-.57.08,1.88,1.88,0,0,0-.93.66,2,2,0,0,0-.26.52,2.12,2.12,0,0,0-.08.57v4.21a3.79,3.79,0,0,0,0,.59,1.75,1.75,0,0,0,.49,1,1.78,1.78,0,0,0,1,.51l.29,0H43Z" transform="translate(-9.2 -9.2)"/>
              <path class="ab" d="M43,34.12c.13,0,.18.05.18.12s0,.12-.18.12H39a2.12,2.12,0,0,1-1.17-.59,2.05,2.05,0,0,1-.57-1.18s0-.11,0-.16v-4.7a2.05,2.05,0,0,1,.1-.65,2.1,2.1,0,0,1,1.38-1.34l.16,0,.17,0,.16,0H43c.14,0,.18.05.18.12s0,.12-.18.12H39.32a1.88,1.88,0,0,0-.58.07,1.78,1.78,0,0,0-1,.66,1.75,1.75,0,0,0-.28.52,2.26,2.26,0,0,0-.09.58v4.23a5.82,5.82,0,0,0,0,.6,1.86,1.86,0,0,0,.51,1,1.79,1.79,0,0,0,1,.52,4,4,0,0,0,.6,0H43Z" transform="translate(-9.2 -9.2)"/>
              <path class="ac" d="M43,25.85h-4l-.29.06a1.75,1.75,0,0,0-.54.24,2.16,2.16,0,0,0-.44.41,1.83,1.83,0,0,0-.38,1.12V32a4,4,0,0,0,0,.6,1.81,1.81,0,0,0,.52,1.06,1.84,1.84,0,0,0,1.06.52,4,4,0,0,0,.6,0H43c.12,0,.15,0,.15.09s0,.09-.15.09H39.14l-.17,0a2,2,0,0,1-1.16-.57,2.07,2.07,0,0,1-.58-1.16,1,1,0,0,1,0-.17s0-.11,0-.16V27.69a2.1,2.1,0,0,1,.42-1.23,2.27,2.27,0,0,1,.48-.45,2.3,2.3,0,0,1,.6-.27l.33-.06a1.74,1.74,0,0,1,.32,0H43c.12,0,.14,0,.14.09S43.15,25.85,43,25.85Z" transform="translate(-9.2 -9.2)"/>
            </g>
            <path class="ac" d="M43.43,34.2v.07a.41.41,0,0,1,0,.18.62.62,0,0,1-.22.2L43,34.7a.65.65,0,0,1-.2,0H39l-.09,0a1,1,0,0,1-.17,0,2.4,2.4,0,0,1-1.26-.72,2.44,2.44,0,0,1-.62-1.36c0-.06,0-.12,0-.19V27.57c0-.07,0-.13,0-.19l0-.19,0-.18a2.49,2.49,0,0,1,.32-.68,2.39,2.39,0,0,1,1.15-.89,2.24,2.24,0,0,1,.34-.11,2.2,2.2,0,0,1,.36,0H43l.18.05a.45.45,0,0,1,.22.21.55.55,0,0,1,.05.18v0a.68.68,0,0,0-.07-.17.46.46,0,0,0-.21-.17L43,25.34H39.1a2,2,0,0,0-.34,0,1.89,1.89,0,0,0-.34.09,2.42,2.42,0,0,0-1.12.88A2.59,2.59,0,0,0,37,27l-.05.18,0,.19c0,.06,0,.12,0,.18v4.82a1.21,1.21,0,0,0,0,.19,2.41,2.41,0,0,0,.61,1.32,2.35,2.35,0,0,0,1.23.7l.17,0,.09,0h4a.47.47,0,0,0,.17,0,.48.48,0,0,0,.21-.18.34.34,0,0,0,.07-.17A.28.28,0,0,0,43.43,34.2Z" transform="translate(-9.2 -9.2)"/>
            <path class="ac" d="M42.88,33.77h-3.8a1.47,1.47,0,0,1-1-.62,1.41,1.41,0,0,1-.26-.6,1,1,0,0,1,0-.17V27.67c0-.06,0-.11,0-.17a1.46,1.46,0,0,1,.23-.61,1.5,1.5,0,0,1,1-.66H43l-.05,0H39a1.47,1.47,0,0,0-1,.64,1.55,1.55,0,0,0-.22.6s0,.11,0,.16v4.72c0,.06,0,.11,0,.16a1.46,1.46,0,0,0,1.27,1.19h3.74Z" transform="translate(-9.2 -9.2)"/>
            <g class="ad">
              <path class="ae" d="M43.39,33.79a.4.4,0,0,0-.28-.16h-4a1.31,1.31,0,0,1-.81-.44,1.27,1.27,0,0,1-.34-.85V27.63s0-.08,0-.12a1.89,1.89,0,0,1,0-.23,1.44,1.44,0,0,1,.57-.72,1.39,1.39,0,0,1,.44-.17l.11,0H43a1,1,0,0,0,.28-.07.48.48,0,0,0,.19-.21.39.39,0,0,1-.17.25.79.79,0,0,1-.29.11H39.1l-.1,0a1.16,1.16,0,0,0-.4.16,1.23,1.23,0,0,0-.53.66,1.6,1.6,0,0,0,0,.21.45.45,0,0,0,0,.11v4.71a1.18,1.18,0,0,0,.32.79,1.2,1.2,0,0,0,.75.39H43l.17,0a.48.48,0,0,1,.16.08A.28.28,0,0,1,43.39,33.79Z" transform="translate(-9.2 -9.2)"/>
            </g>
            <g class="ad">
              <path class="ae" d="M43.65,25.77a.74.74,0,0,0,0-.14l-.06-.12a.61.61,0,0,0-.19-.2.71.71,0,0,0-.25-.11h-4l-.38.05a2.55,2.55,0,0,0-.7.25,2.62,2.62,0,0,0-.6.45,2.9,2.9,0,0,0-.44.6,2.57,2.57,0,0,0-.23.71l0,.19v.18a.85.85,0,0,0,0,.16v4.67a2.48,2.48,0,0,0,.53,1.38,2.39,2.39,0,0,0,.54.51,2.78,2.78,0,0,0,.67.33,2.64,2.64,0,0,0,.73.11H43l.14,0a.77.77,0,0,0,.25-.1.61.61,0,0,0,.19-.2l0-.06,0-.06s0-.1,0-.14l0,.14a.78.78,0,0,1,0,.14.79.79,0,0,1-.19.22,1.23,1.23,0,0,1-.26.12.93.93,0,0,1-.29,0h-3.6a2.85,2.85,0,0,1-.76-.11,3,3,0,0,1-.69-.34,2.82,2.82,0,0,1-.56-.53,2.54,2.54,0,0,1-.54-1.42v-5l0-.19a2.74,2.74,0,0,1,.25-.73,2.52,2.52,0,0,1,.45-.62,2.76,2.76,0,0,1,.61-.47,3.18,3.18,0,0,1,.73-.26,2.45,2.45,0,0,1,.38,0H43l.14,0a.72.72,0,0,1,.44.34.78.78,0,0,1,0,.14.57.57,0,0,1,0,.14Z" transform="translate(-9.2 -9.2)"/>
            </g>
            <g>
              <path class="af" d="M43.2,34.49a.13.13,0,0,1,.13-.13.13.13,0,0,1,0,.26A.13.13,0,0,1,43.2,34.49Z" transform="translate(-9.2 -9.2)"/>
              <circle class="ag" cx="34.12" cy="25.29" r="0.1"/>
              <path class="ah" d="M43.33,34.41a.08.08,0,0,1,0,.16.08.08,0,0,1,0-.16Z" transform="translate(-9.2 -9.2)"/>
              <path class="ai" d="M43.33,34.44a.05.05,0,1,1,0,.1.05.05,0,1,1,0-.1Z" transform="translate(-9.2 -9.2)"/>
              <path class="ac" d="M43.33,34.46s0,0,0,0l0,0s0,0,0,0A0,0,0,0,1,43.33,34.46Z" transform="translate(-9.2 -9.2)"/>
            </g>
            <g>
              <circle class="aj" cx="33.98" cy="16.73" r="0.17"/>
              <path class="ak" d="M43.18,26.07a.13.13,0,0,1-.13-.13.13.13,0,1,1,.26,0A.13.13,0,0,1,43.18,26.07Z" transform="translate(-9.2 -9.2)"/>
              <circle class="al" cx="33.98" cy="16.73" r="0.1"/>
              <path class="am" d="M43.18,26a.06.06,0,0,1-.06-.06.07.07,0,0,1,.06-.07.07.07,0,0,1,.07.07A.07.07,0,0,1,43.18,26Z" transform="translate(-9.2 -9.2)"/>
              <path class="ac" d="M43.18,26a0,0,0,0,1,0,0s0,0,0,0,0,0,0,0A0,0,0,0,1,43.18,26Z" transform="translate(-9.2 -9.2)"/>
            </g>
          </g>
          <g>
            <g>
              <path class="c" d="M38.7,31.33a1.33,1.33,0,0,1,0-2.66H43a1.33,1.33,0,0,1,0,2.66H38.7Z" transform="translate(-9.2 -9.2)"/>
              <path class="d" d="M38.7,31.3a1.3,1.3,0,0,1,0-2.6H43a1.3,1.3,0,0,1,0,2.6H38.7Z" transform="translate(-9.2 -9.2)"/>
              <path class="e" d="M38.7,31.26a1.26,1.26,0,0,1,0-2.52H43a1.26,1.26,0,1,1,0,2.52H38.7Z" transform="translate(-9.2 -9.2)"/>
              <path class="f" d="M38.7,31.23a1.23,1.23,0,0,1,0-2.46H43a1.23,1.23,0,0,1,0,2.46H38.7Z" transform="translate(-9.2 -9.2)"/>
              <path class="g" d="M38.7,31.2a1.2,1.2,0,0,1,0-2.4H43a1.2,1.2,0,0,1,0,2.4H38.7Z" transform="translate(-9.2 -9.2)"/>
              <path class="h" d="M38.7,31.17a1.17,1.17,0,0,1,0-2.34H43a1.17,1.17,0,0,1,0,2.34H38.7Z" transform="translate(-9.2 -9.2)"/>
              <path class="i" d="M38.7,31.13a1.13,1.13,0,0,1,0-2.26H43a1.13,1.13,0,1,1,0,2.26H38.7Z" transform="translate(-9.2 -9.2)"/>
              <path class="j" d="M38.7,31.1a1.1,1.1,0,0,1,0-2.2H43a1.1,1.1,0,0,1,0,2.2H38.7Z" transform="translate(-9.2 -9.2)"/>
              <path class="k" d="M38.7,31.07a1.07,1.07,0,0,1,0-2.14H43a1.07,1.07,0,0,1,0,2.14H38.7Z" transform="translate(-9.2 -9.2)"/>
              <path class="l" d="M38.7,31a1,1,0,0,1,0-2.08H43A1,1,0,0,1,43,31H38.7Z" transform="translate(-9.2 -9.2)"/>
              <path class="m" d="M38.7,31a1,1,0,0,1,0-2H43a1,1,0,0,1,0,2H38.7Z" transform="translate(-9.2 -9.2)"/>
              <path class="n" d="M38.7,31a1,1,0,1,1,0-1.94H43A1,1,0,1,1,43,31H38.7Z" transform="translate(-9.2 -9.2)"/>
              <path class="o" d="M38.7,30.94a.94.94,0,0,1,0-1.88H43a.94.94,0,0,1,0,1.88H38.7Z" transform="translate(-9.2 -9.2)"/>
              <path class="p" d="M38.7,30.91a.91.91,0,0,1,0-1.82H43a.91.91,0,0,1,0,1.82H38.7Z" transform="translate(-9.2 -9.2)"/>
            </g>
            <g>
              <path class="q" d="M43,30.7H38.7a.7.7,0,0,1,0-1.4H43a.7.7,0,0,1,0,1.4Z" transform="translate(-9.2 -9.2)"/>
              <path class="r" d="M38.7,30.65a.65.65,0,1,1,0-1.3H43a.65.65,0,0,1,0,1.3H38.7Z" transform="translate(-9.2 -9.2)"/>
              <path class="s" d="M38.7,30.6a.6.6,0,0,1,0-1.2H43a.6.6,0,1,1,0,1.2H38.7Z" transform="translate(-9.2 -9.2)"/>
              <path class="s" d="M38.7,30.54a.54.54,0,1,1,0-1.08H43a.54.54,0,1,1,0,1.08H38.7Z" transform="translate(-9.2 -9.2)"/>
              <path class="t" d="M38.7,30.49a.49.49,0,1,1,0-1H43a.49.49,0,1,1,0,1H38.7Z" transform="translate(-9.2 -9.2)"/>
              <path class="u" d="M38.7,30.44a.44.44,0,1,1,0-.88H43a.44.44,0,1,1,0,.88H38.7Z" transform="translate(-9.2 -9.2)"/>
              <path class="v" d="M38.7,30.39a.39.39,0,0,1,0-.78H43a.39.39,0,0,1,0,.78H38.7Z" transform="translate(-9.2 -9.2)"/>
            </g>
            <g>
              <path class="w" d="M38.72,30.18c-.19,0-.33-.11-.33-.25s.14-.24.33-.24H43c.19,0,.33.1.33.24s-.14.25-.33.25H38.72Z" transform="translate(-9.2 -9.2)"/>
              <path class="x" d="M38.71,30.15c-.18,0-.29-.09-.29-.22s.11-.22.29-.22H43c.18,0,.3.09.3.22s-.12.22-.3.22H38.71Z" transform="translate(-9.2 -9.2)"/>
              <path class="y" d="M38.7,30.13c-.17,0-.26-.09-.26-.2s.09-.19.26-.19H43c.16,0,.26.08.26.19s-.1.2-.26.2H38.7Z" transform="translate(-9.2 -9.2)"/>
              <path class="z" d="M38.69,30.1c-.15,0-.23-.07-.23-.17s.08-.17.23-.17H43c.15,0,.24.08.24.17s-.09.17-.24.17h-4.3Z" transform="translate(-9.2 -9.2)"/>
              <path class="aa" d="M38.68,30.07c-.14,0-.2-.06-.2-.14s.06-.14.2-.14H43c.15,0,.21.06.21.14s-.06.14-.21.14H38.68Z" transform="translate(-9.2 -9.2)"/>
              <path class="ab" d="M38.67,30.05c-.13,0-.17-.05-.17-.12s0-.12.17-.12H43c.14,0,.18.05.18.12s0,.12-.18.12H38.67Z" transform="translate(-9.2 -9.2)"/>
              <path class="ac" d="M43,30H38.66c-.12,0-.14,0-.14-.09s0-.09.14-.09H43c.12,0,.14,0,.14.09S43.15,30,43,30Z" transform="translate(-9.2 -9.2)"/>
            </g>
            <path class="ac" d="M38.22,30h0v-.05a.67.67,0,0,1,.06-.19.48.48,0,0,1,.22-.2l.17-.05H43a.48.48,0,0,1,.18.06.4.4,0,0,1,.22.2.55.55,0,0,1,.05.18v0a.68.68,0,0,0-.07-.17.46.46,0,0,0-.21-.17.42.42,0,0,0-.16,0H38.68l-.17,0a.54.54,0,0,0-.21.18.56.56,0,0,0-.07.17A.28.28,0,0,0,38.22,30Z" transform="translate(-9.2 -9.2)"/>
            <path class="ac" d="M38.78,30.41l0,0H42.9l.05,0H38.78Z" transform="translate(-9.2 -9.2)"/>
            <g class="ad">
              <path class="ae" d="M38.27,30.38a.39.39,0,0,0,.28.16H43a.58.58,0,0,0,.28-.07.43.43,0,0,0,.19-.21.39.39,0,0,1-.17.25.79.79,0,0,1-.29.11H38.71a.57.57,0,0,1-.18,0l-.16-.07A.23.23,0,0,1,38.27,30.38Z" transform="translate(-9.2 -9.2)"/>
            </g>
            <g class="ad">
              <path class="ae" d="M43.65,29.94a.74.74,0,0,0,0-.14l-.06-.12a.61.61,0,0,0-.19-.2.69.69,0,0,0-.25-.1l-.13,0h-.14s0,0-.06,0h-3.2a2.08,2.08,0,0,1-.25,0h-.65l-.13,0a.69.69,0,0,0-.25.1.52.52,0,0,0-.19.2l0,.06a.14.14,0,0,0,0,.07A.57.57,0,0,0,38,30a.77.77,0,0,1,0-.15s0-.09,0-.13a.59.59,0,0,1,.19-.22.68.68,0,0,1,.26-.12.74.74,0,0,1,.29,0h4a.7.7,0,0,1,.29,0,.68.68,0,0,1,.26.12.79.79,0,0,1,.18.22.5.5,0,0,1,0,.13.74.74,0,0,1,0,.14Z" transform="translate(-9.2 -9.2)"/>
            </g>
            <g>
              <path class="af" d="M38.46,29.68a.13.13,0,1,1-.26,0,.13.13,0,1,1,.26,0Z" transform="translate(-9.2 -9.2)"/>
              <path class="ag" d="M38.33,29.79a.11.11,0,0,1-.11-.11.11.11,0,0,1,.11-.1.11.11,0,0,1,.1.1A.11.11,0,0,1,38.33,29.79Z" transform="translate(-9.2 -9.2)"/>
              <path class="ah" d="M38.33,29.76a.07.07,0,0,1-.08-.08.07.07,0,0,1,.08-.07.07.07,0,0,1,.07.07A.07.07,0,0,1,38.33,29.76Z" transform="translate(-9.2 -9.2)"/>
              <path class="ai" d="M38.33,29.73a.05.05,0,1,1,.05-.05A0,0,0,0,1,38.33,29.73Z" transform="translate(-9.2 -9.2)"/>
              <path class="ac" d="M38.33,29.71a0,0,0,0,1,0,0s0,0,0,0a0,0,0,0,1,0,0S38.34,29.71,38.33,29.71Z" transform="translate(-9.2 -9.2)"/>
            </g>
            <g>
              <circle class="aj" cx="33.98" cy="20.91" r="0.17"/>
              <path class="ak" d="M43.18,30.24a.13.13,0,0,1-.13-.13.13.13,0,1,1,.26,0A.13.13,0,0,1,43.18,30.24Z" transform="translate(-9.2 -9.2)"/>
              <circle class="al" cx="33.98" cy="20.91" r="0.1"/>
              <path class="am" d="M43.18,30.17a.06.06,0,0,1-.06-.06.07.07,0,0,1,.06-.07.07.07,0,0,1,.07.07A.07.07,0,0,1,43.18,30.17Z" transform="translate(-9.2 -9.2)"/>
              <path class="ac" d="M43.18,30.14a0,0,0,0,1,0,0s0,0,0,0,0,0,0,0A0,0,0,0,1,43.18,30.14Z" transform="translate(-9.2 -9.2)"/>
            </g>
          </g>
        </g>
        <g>
          <g>
            <path class="c" d="M23.71,25.82a1.32,1.32,0,0,1,2.64,0v8.36a1.32,1.32,0,1,1-2.64,0Z" transform="translate(-9.2 -9.2)"/>
            <path class="d" d="M23.74,25.82a1.29,1.29,0,0,1,2.58,0v8.36a1.29,1.29,0,1,1-2.58,0Z" transform="translate(-9.2 -9.2)"/>
            <path class="e" d="M23.77,25.82a1.26,1.26,0,1,1,2.52,0v8.36a1.26,1.26,0,1,1-2.52,0Z" transform="translate(-9.2 -9.2)"/>
            <path class="f" d="M23.8,25.82a1.23,1.23,0,0,1,2.46,0v8.36a1.23,1.23,0,0,1-2.46,0Z" transform="translate(-9.2 -9.2)"/>
            <path class="g" d="M23.84,25.82a1.2,1.2,0,0,1,2.39,0v8.36a1.2,1.2,0,0,1-2.39,0Z" transform="translate(-9.2 -9.2)"/>
            <path class="h" d="M23.87,25.82a1.16,1.16,0,0,1,2.32,0v8.36a1.16,1.16,0,0,1-2.32,0Z" transform="translate(-9.2 -9.2)"/>
            <path class="i" d="M23.9,25.82a1.13,1.13,0,0,1,2.26,0v8.36a1.13,1.13,0,0,1-2.26,0Z" transform="translate(-9.2 -9.2)"/>
            <path class="j" d="M23.93,25.82a1.1,1.1,0,1,1,2.2,0v8.36a1.1,1.1,0,1,1-2.2,0Z" transform="translate(-9.2 -9.2)"/>
            <path class="k" d="M24,25.82a1.07,1.07,0,0,1,2.14,0v8.36a1.07,1.07,0,0,1-2.14,0Z" transform="translate(-9.2 -9.2)"/>
            <path class="l" d="M24,25.82a1,1,0,0,1,2.07,0v8.36a1,1,0,0,1-2.07,0Z" transform="translate(-9.2 -9.2)"/>
            <path class="m" d="M24,25.82a1,1,0,0,1,2,0v8.36a1,1,0,0,1-2,0Z" transform="translate(-9.2 -9.2)"/>
            <path class="n" d="M24.06,25.82a1,1,0,1,1,1.94,0v8.36a1,1,0,1,1-1.94,0Z" transform="translate(-9.2 -9.2)"/>
            <path class="o" d="M24.09,25.82a.94.94,0,0,1,1.88,0v8.36a.94.94,0,0,1-1.88,0Z" transform="translate(-9.2 -9.2)"/>
            <path class="p" d="M24.12,25.82a.91.91,0,0,1,1.82,0v8.36a.91.91,0,0,1-1.82,0Z" transform="translate(-9.2 -9.2)"/>
          </g>
          <g>
            <path class="q" d="M24.33,34.18V25.82a.7.7,0,0,1,1.4,0v8.36a.7.7,0,0,1-1.4,0Z" transform="translate(-9.2 -9.2)"/>
            <path class="r" d="M24.39,25.82a.64.64,0,0,1,.64-.64.65.65,0,0,1,.65.64v8.36a.65.65,0,0,1-.65.64.64.64,0,0,1-.64-.64Z" transform="translate(-9.2 -9.2)"/>
            <path class="s" d="M24.44,25.82a.59.59,0,0,1,.59-.59.6.6,0,0,1,.6.59v8.36a.6.6,0,0,1-.6.59.59.59,0,0,1-.59-.59Z" transform="translate(-9.2 -9.2)"/>
            <path class="s" d="M24.49,25.82a.54.54,0,0,1,1.08,0v8.36a.54.54,0,0,1-1.08,0Z" transform="translate(-9.2 -9.2)"/>
            <path class="t" d="M24.54,25.82a.49.49,0,1,1,1,0v8.36a.49.49,0,0,1-1,0Z" transform="translate(-9.2 -9.2)"/>
            <path class="u" d="M24.59,25.82a.44.44,0,0,1,.88,0v8.36a.44.44,0,0,1-.88,0Z" transform="translate(-9.2 -9.2)"/>
            <path class="v" d="M24.65,25.82a.38.38,0,0,1,.38-.38.39.39,0,0,1,.39.38v8.36a.39.39,0,0,1-.39.38.38.38,0,0,1-.38-.38Z" transform="translate(-9.2 -9.2)"/>
          </g>
          <g>
            <path class="w" d="M24.85,25.84c0-.19.11-.32.25-.32s.24.13.24.32v8.34c0,.18-.1.32-.24.32a.29.29,0,0,1-.25-.32Z" transform="translate(-9.2 -9.2)"/>
            <path class="x" d="M24.88,25.83c0-.17.09-.29.22-.29s.22.12.22.29v8.36c0,.18-.09.29-.22.29s-.22-.11-.22-.29Z" transform="translate(-9.2 -9.2)"/>
            <path class="y" d="M24.91,25.82c0-.16.08-.26.19-.26s.19.1.19.26V34.2c0,.17-.08.27-.19.27s-.19-.1-.19-.27Z" transform="translate(-9.2 -9.2)"/>
            <path class="z" d="M24.93,25.81c0-.15.07-.23.17-.23s.17.08.17.23v8.4c0,.16-.07.24-.17.24s-.17-.08-.17-.24Z" transform="translate(-9.2 -9.2)"/>
            <path class="aa" d="M25,25.8c0-.14.06-.2.14-.2s.14.06.14.2v8.43c0,.14-.06.2-.14.2s-.14-.06-.14-.2Z" transform="translate(-9.2 -9.2)"/>
            <path class="ab" d="M25,25.79c0-.13.05-.17.12-.17s.12,0,.12.17v8.45c0,.13,0,.18-.12.18s-.12-.05-.12-.18Z" transform="translate(-9.2 -9.2)"/>
            <path class="ac" d="M25,34.25V25.78c0-.12,0-.14.09-.14s.09,0,.09.14v8.47c0,.12,0,.15-.09.15S25,34.37,25,34.25Z" transform="translate(-9.2 -9.2)"/>
          </g>
          <path class="ac" d="M25.06,25.35h0s0,0,0,0a.41.41,0,0,1,.19,0,.48.48,0,0,1,.2.22.84.84,0,0,1,0,.17,1.41,1.41,0,0,1,0,.2c0,.44,0,1,0,1.49s0,2.69,0,3.28,0,1.18,0,1.74,0,1.07,0,1.51v.23a.64.64,0,0,1-.06.18.45.45,0,0,1-.38.26h0a.58.58,0,0,0,.17-.06.52.52,0,0,0,.17-.21.47.47,0,0,0,0-.17.06.06,0,0,0,0,0V34c0-.44,0-1,0-1.51s0-1.15,0-1.74V26a1.21,1.21,0,0,0,0-.19.75.75,0,0,0,0-.16.58.58,0,0,0-.18-.22.32.32,0,0,0-.17-.06Z" transform="translate(-9.2 -9.2)"/>
          <path class="ac" d="M24.63,25.9a.18.18,0,0,0,0,.05v8.18a.18.18,0,0,0,0,0l0,0V26Z" transform="translate(-9.2 -9.2)"/>
          <g class="ad">
            <path class="ae" d="M24.65,25.39a.35.35,0,0,0-.15.28.88.88,0,0,0,0,.16.81.81,0,0,0,0,.16h0v8.06s0,0,0,0v.11a.82.82,0,0,0,.07.28.43.43,0,0,0,.21.19.36.36,0,0,1-.25-.17.59.59,0,0,1-.1-.29.19.19,0,0,1,0-.08v0s0,0,0,0V26h0a1,1,0,0,1,0-.17l0-.18a.44.44,0,0,1,.08-.15A.28.28,0,0,1,24.65,25.39Z" transform="translate(-9.2 -9.2)"/>
          </g>
          <g class="ad">
            <path class="ae" d="M25.09,34.87l.14,0,.12-.06a.7.7,0,0,0,.2-.18.77.77,0,0,0,.1-.25.59.59,0,0,0,0-.13v-.14h0a.17.17,0,0,1,0-.1V27.13c0-.14,0-.28,0-.42V26a.17.17,0,0,1,0-.07h0V25.8a.59.59,0,0,0,0-.13.69.69,0,0,0-.1-.25.61.61,0,0,0-.2-.19l-.06,0-.06,0-.14,0,.14,0,.13.05a.56.56,0,0,1,.22.18.66.66,0,0,1,.12.27.67.67,0,0,1,0,.28h0v8.12h0a.88.88,0,0,1-.15.55.55.55,0,0,1-.22.18l-.13.06-.14,0Z" transform="translate(-9.2 -9.2)"/>
          </g>
          <g>
            <path class="af" d="M25.35,25.58a.13.13,0,1,1,.13-.13A.13.13,0,0,1,25.35,25.58Z" transform="translate(-9.2 -9.2)"/>
            <path class="ag" d="M25.24,25.45a.1.1,0,0,1,.11-.1.1.1,0,0,1,0,.2A.1.1,0,0,1,25.24,25.45Z" transform="translate(-9.2 -9.2)"/>
            <path class="ah" d="M25.27,25.45a.08.08,0,0,1,.08-.08.08.08,0,0,1,0,.16A.08.08,0,0,1,25.27,25.45Z" transform="translate(-9.2 -9.2)"/>
            <path class="ai" d="M25.3,25.45a.05.05,0,1,1,.05.05A0,0,0,0,1,25.3,25.45Z" transform="translate(-9.2 -9.2)"/>
            <path class="ac" d="M25.32,25.45a0,0,0,0,1,0,0s0,0,0,0,0,0,0,0A0,0,0,0,1,25.32,25.45Z" transform="translate(-9.2 -9.2)"/>
          </g>
          <g>
            <path class="aj" d="M24.92,34.57a.16.16,0,0,1-.16-.16.16.16,0,0,1,.16-.17.16.16,0,0,1,.17.17A.16.16,0,0,1,24.92,34.57Z" transform="translate(-9.2 -9.2)"/>
            <circle class="ak" cx="15.72" cy="25.21" r="0.13"/>
            <path class="al" d="M24.83,34.41a.09.09,0,0,1,.09-.1.09.09,0,0,1,.1.1.09.09,0,0,1-.1.09A.09.09,0,0,1,24.83,34.41Z" transform="translate(-9.2 -9.2)"/>
            <path class="am" d="M24.86,34.41a.07.07,0,0,1,.06-.07.07.07,0,0,1,.07.07.07.07,0,0,1-.07.06A.06.06,0,0,1,24.86,34.41Z" transform="translate(-9.2 -9.2)"/>
            <path class="ac" d="M24.89,34.41a0,0,0,0,1,0,0,0,0,0,0,1,0,0,0,0,0,0,1-.07,0Z" transform="translate(-9.2 -9.2)"/>
          </g>
        </g>
      </g>
      <g>
        <g>
          <path class="an" d="M41,43.26a1.49,1.49,0,0,1,.58-.31l.32-.07h.33a2,2,0,0,1,1.25.56,1.66,1.66,0,0,1,.5,1.29,2.25,2.25,0,0,1-.06.36,1.48,1.48,0,0,1-.13.35,2.12,2.12,0,0,1-.49.6l-.15.13-.08.06-.46.36c-.28.22-.58.42-.87.62a20.7,20.7,0,0,1-7.82,3.24,21.1,21.1,0,0,1-8.45-.15A20.8,20.8,0,1,1,37.25,10.51,20.54,20.54,0,0,1,44.41,15,20.84,20.84,0,0,1,49,38.54a20.43,20.43,0,0,1-2.14,3.68c-.21.29-.43.57-.65.85l-.06.08h0v0l-.07.08a2.12,2.12,0,0,1-.6.49,1.48,1.48,0,0,1-.35.13,2.25,2.25,0,0,1-.36.06,1.66,1.66,0,0,1-1.29-.5,2,2,0,0,1-.56-1.25c0-.11,0-.22,0-.33s0-.21.07-.32a1.49,1.49,0,0,1,.31-.58l.05-.06,0,0h0l.05-.07c.18-.23.37-.46.54-.7a16.62,16.62,0,0,0,1.76-3A17.21,17.21,0,0,0,41.92,17.6a17.21,17.21,0,0,0-28.41,7.49,17.5,17.5,0,0,0-.58,7A17.22,17.22,0,0,0,33.21,46.9a17,17,0,0,0,6.45-2.67c.24-.17.49-.33.72-.52l.38-.29.07-.05Z" transform="translate(-9.2 -9.2)"/>
          <path class="ao" d="M41,43.29a1.6,1.6,0,0,1,.56-.3,1.8,1.8,0,0,1,.32-.06,1.13,1.13,0,0,1,.32,0,1.83,1.83,0,0,1,1.22.55,1.58,1.58,0,0,1,.48,1.25,1.34,1.34,0,0,1-.05.35,2,2,0,0,1-.13.34,2.22,2.22,0,0,1-.48.59l-.15.13-.08.06-.46.36c-.28.22-.57.41-.86.62a20.8,20.8,0,0,1-23.93-.42,21,21,0,0,1-5.65-6.26,20.51,20.51,0,0,1-2.69-8,21,21,0,0,1,.7-8.41A20.81,20.81,0,0,1,20.73,11.43a20.7,20.7,0,0,1,16.51-.88A20.71,20.71,0,0,1,50.75,30.29a20.94,20.94,0,0,1-1.82,8.24A21.65,21.65,0,0,1,46.8,42.2l-.65.84-.06.08h0l0,0-.06.07a2.22,2.22,0,0,1-.59.48,2,2,0,0,1-.34.13,1.34,1.34,0,0,1-.35.05,1.58,1.58,0,0,1-1.25-.48,1.83,1.83,0,0,1-.55-1.22,1.13,1.13,0,0,1,0-.32,1.8,1.8,0,0,1,.06-.32,1.6,1.6,0,0,1,.3-.56l.06-.06v0h0l.05-.06c.18-.23.36-.46.53-.7a16.27,16.27,0,0,0,1.77-3.05,17.34,17.34,0,0,0,1.52-6.84,17.9,17.9,0,0,0-.31-3.51,16.67,16.67,0,0,0-1-3.38A17.26,17.26,0,0,0,29.08,12.78,17.22,17.22,0,0,0,16.8,18.91a17.24,17.24,0,0,0,9.4,27.91,17.42,17.42,0,0,0,7,.12,17,17,0,0,0,6.48-2.68c.24-.17.49-.33.71-.51l.39-.3.06-.05A.69.69,0,0,0,41,43.29Z" transform="translate(-9.2 -9.2)"/>
          <path class="ap" d="M41,43.33a1.35,1.35,0,0,1,.55-.3l.15,0a.8.8,0,0,1,.15,0,1.71,1.71,0,0,1,.32,0,1.84,1.84,0,0,1,1.19.54,1.61,1.61,0,0,1,.47,1.22,1.86,1.86,0,0,1-.06.34.84.84,0,0,1-.05.17l-.07.16a1.93,1.93,0,0,1-.46.57l-.16.13-.08.07-.46.35c-.27.22-.57.42-.86.62a20.58,20.58,0,0,1-7.78,3.22,21,21,0,0,1-8.42-.15,20.54,20.54,0,0,1-7.67-3.48,21.15,21.15,0,0,1-3.14-2.84,20.53,20.53,0,0,1-2.51-3.41A20.72,20.72,0,0,1,28.9,9.32,20.71,20.71,0,0,1,49.11,22a20.36,20.36,0,0,1,1.23,4.05,21.3,21.3,0,0,1,.37,4.22,20.84,20.84,0,0,1-1.82,8.22,20.56,20.56,0,0,1-2.13,3.66c-.21.29-.43.56-.65.84l-.06.08h0l0,0L46,43.2a1.93,1.93,0,0,1-.57.46l-.16.07-.17.05a1.86,1.86,0,0,1-.34.06,1.61,1.61,0,0,1-1.22-.47A1.84,1.84,0,0,1,43,42.18a1.71,1.71,0,0,1,0-.32.8.8,0,0,1,0-.15.8.8,0,0,1,0-.15,1.35,1.35,0,0,1,.3-.55l.05-.06v0h0l.05-.06.54-.7a17.34,17.34,0,0,0,3-13.44,16.48,16.48,0,0,0-1-3.38,17.27,17.27,0,0,0-29.19-4.45,17.18,17.18,0,0,0-3.33,6.18A17.28,17.28,0,0,0,33.22,47a17,17,0,0,0,6.49-2.68c.24-.17.49-.33.72-.52l.38-.29.07-.06Z" transform="translate(-9.2 -9.2)"/>
          <path class="aq" d="M41,43.36A1.57,1.57,0,0,1,42.18,43a1.8,1.8,0,0,1,1.16.53,1.53,1.53,0,0,1,.45,1.19,1.71,1.71,0,0,1-.62,1.21l-.16.13-.08.06-.45.36c-.28.22-.57.41-.86.61a20.6,20.6,0,0,1-7.77,3.22,20.63,20.63,0,0,1-19.19-6.46,19.85,19.85,0,0,1-2.5-3.4A20.67,20.67,0,1,1,50.3,26.08a21.19,21.19,0,0,1,.36,4.21,20.74,20.74,0,0,1-1.81,8.2,20.51,20.51,0,0,1-2.12,3.66l-.65.84-.06.07h0v0l-.07.08a1.71,1.71,0,0,1-1.21.62,1.53,1.53,0,0,1-1.19-.45A1.8,1.8,0,0,1,43,42.18,1.57,1.57,0,0,1,43.36,41l0-.07h0l.06-.06c.17-.24.36-.47.54-.71a16.92,16.92,0,0,0,1.77-3.06A17.33,17.33,0,0,0,36,13.76a17.19,17.19,0,0,0-7-1.06A17.32,17.32,0,0,0,19.77,44a17.11,17.11,0,0,0,6.41,2.91,17.62,17.62,0,0,0,7,.13,17.13,17.13,0,0,0,6.51-2.7c.24-.17.49-.33.72-.51l.38-.3.07-.05A.69.69,0,0,1,41,43.36Z" transform="translate(-9.2 -9.2)"/>
          <path class="ar" d="M41.07,43.39A1.58,1.58,0,0,1,42.18,43a1.79,1.79,0,0,1,1.13.52,1.53,1.53,0,0,1,.44,1.16,1.67,1.67,0,0,1-.61,1.18L43,46l-.08.06-.46.35c-.27.22-.57.41-.86.62a20.41,20.41,0,0,1-7.75,3.2,20.75,20.75,0,0,1-8.38-.14,20.55,20.55,0,0,1-7.64-3.47,20.94,20.94,0,0,1-3.13-2.82,21.19,21.19,0,0,1-2.49-3.4,20.46,20.46,0,0,1-2.67-8,20.63,20.63,0,0,1,27.66-21.8A20.71,20.71,0,0,1,49,22.05a19.61,19.61,0,0,1,1.22,4,20.38,20.38,0,0,1,.37,4.2,20.81,20.81,0,0,1-1.81,8.18,20.43,20.43,0,0,1-2.12,3.65l-.64.84L46,43h0l0,0-.06.08a1.67,1.67,0,0,1-1.18.61,1.53,1.53,0,0,1-1.16-.44A1.79,1.79,0,0,1,43,42.18a1.58,1.58,0,0,1,.35-1.11l.06-.07h0l.05-.07c.18-.23.37-.46.54-.7a16.8,16.8,0,0,0,1.78-3.07A17.47,17.47,0,0,0,47.06,26.7a17.07,17.07,0,0,0-1-3.4A17.37,17.37,0,1,0,15,38.78,17.75,17.75,0,0,0,19.74,44a17.2,17.2,0,0,0,6.43,2.91,17.54,17.54,0,0,0,7.07.13,17.24,17.24,0,0,0,6.52-2.7c.24-.17.49-.33.72-.52l.39-.3.07,0Z" transform="translate(-9.2 -9.2)"/>
          <path class="as" d="M41.09,43.43a1.49,1.49,0,0,1,1.09-.34,1.65,1.65,0,0,1,1.1.5,1.46,1.46,0,0,1,.42,1.13,1.57,1.57,0,0,1-.59,1.14L43,46l-.08.06-.46.36c-.27.22-.56.41-.85.61a20.36,20.36,0,0,1-7.74,3.2,20.65,20.65,0,0,1-8.36-.15A20.58,20.58,0,0,1,14.73,43.8a19.79,19.79,0,0,1-2.49-3.4,20.33,20.33,0,0,1-2.67-7.93,20.54,20.54,0,0,1,4.67-15.71A20.54,20.54,0,0,1,28.91,9.45,20.61,20.61,0,0,1,49,22.07a20.15,20.15,0,0,1,1.22,4,20.62,20.62,0,0,1-1.44,12.35,20,20,0,0,1-2.12,3.64c-.2.29-.42.56-.64.84L46,43h0v0l-.07.07a1.57,1.57,0,0,1-1.14.59,1.46,1.46,0,0,1-1.13-.42,1.65,1.65,0,0,1-.5-1.1,1.49,1.49,0,0,1,.34-1.09l0-.06,0,0h0s0,0,0-.06l.55-.71a17.37,17.37,0,0,0,3.31-10,17.22,17.22,0,0,0-1.34-6.95,17.43,17.43,0,0,0-23.84-8.88,17.38,17.38,0,0,0-9.52,17.68,17.42,17.42,0,0,0,7,12A17.21,17.21,0,0,0,26.16,47a17.64,17.64,0,0,0,7.09.12,17.33,17.33,0,0,0,6.54-2.7c.24-.18.49-.34.72-.52l.39-.3.06-.05Z" transform="translate(-9.2 -9.2)"/>
          <path class="at" d="M41.12,43.46a1.45,1.45,0,0,1,1.06-.33,1.61,1.61,0,0,1,1.07.49,1.47,1.47,0,0,1,.41,1.1,1.57,1.57,0,0,1-.58,1.11l-.15.13-.08.06-.45.35c-.28.22-.57.41-.86.62a20.28,20.28,0,0,1-7.71,3.19A20.6,20.6,0,0,1,25.48,50a20.37,20.37,0,0,1-7.61-3.45,20.57,20.57,0,0,1-7.56-22.44A20.55,20.55,0,0,1,49,22.08a20.15,20.15,0,0,1,1.58,8.2,20.4,20.4,0,0,1-3.91,11.79L46,42.9l-.06.08h0l0,0-.06.07a1.57,1.57,0,0,1-1.11.58,1.47,1.47,0,0,1-1.1-.41,1.61,1.61,0,0,1-.49-1.07,1.45,1.45,0,0,1,.33-1.06l.06-.06v0h0l.05-.06c.18-.24.37-.47.54-.71a17.5,17.5,0,0,0,3.33-10,18.55,18.55,0,0,0-.31-3.56,17.67,17.67,0,0,0-1-3.41,17.46,17.46,0,0,0-23.9-8.89A17.41,17.41,0,0,0,12.67,32.1a17.28,17.28,0,0,0,2.26,6.72,17.55,17.55,0,0,0,4.76,5.28A17.37,17.37,0,0,0,26.15,47a17.69,17.69,0,0,0,7.1.13,17.39,17.39,0,0,0,6.56-2.72c.24-.17.5-.33.73-.52l.38-.3.07,0A.69.69,0,0,0,41.12,43.46Z" transform="translate(-9.2 -9.2)"/>
          <path class="au" d="M41.15,43.49a1.32,1.32,0,0,1,.48-.26l.27,0h.28a1.53,1.53,0,0,1,1,.48,1.36,1.36,0,0,1,.4,1.07,1.54,1.54,0,0,1,0,.3,1.39,1.39,0,0,1-.12.28,1.83,1.83,0,0,1-.39.5l-.16.12-.08.07-.45.35c-.27.22-.56.41-.85.61a20.39,20.39,0,0,1-7.7,3.19A20.86,20.86,0,0,1,25.49,50a20.29,20.29,0,0,1-7.59-3.45,20.49,20.49,0,1,1,31-24.44,20.51,20.51,0,0,1,1.58,8.18,20.57,20.57,0,0,1-1.8,8.14A20.13,20.13,0,0,1,46.58,42c-.2.29-.42.56-.63.84-.08.09-.06.06-.06.07h0l0,0-.06.08a1.83,1.83,0,0,1-.5.39,1.39,1.39,0,0,1-.28.12,1.54,1.54,0,0,1-.3,0,1.36,1.36,0,0,1-1.07-.4,1.53,1.53,0,0,1-.48-1,2.62,2.62,0,0,1,0-.28,2.56,2.56,0,0,1,0-.27,1.32,1.32,0,0,1,.26-.48l.06-.07h0l0-.07.55-.71A17.26,17.26,0,0,0,46,37.19,17.51,17.51,0,1,0,12.63,32.1a17.36,17.36,0,0,0,2.26,6.75,17.61,17.61,0,0,0,4.78,5.28,17.21,17.21,0,0,0,6.47,2.94,17.48,17.48,0,0,0,13.7-2.59c.24-.18.49-.34.72-.53l.39-.29L41,43.6Z" transform="translate(-9.2 -9.2)"/>
          <path class="av" d="M41.18,43.53a1.28,1.28,0,0,1,.47-.26l.26-.05h.27a1.56,1.56,0,0,1,1,.47A1.36,1.36,0,0,1,43.52,45a1,1,0,0,1-.11.27,1.58,1.58,0,0,1-.38.48l-.15.13L42.8,46l-.46.35c-.27.22-.56.41-.84.61a20.23,20.23,0,0,1-7.69,3.18A20.59,20.59,0,0,1,25.5,50,20.41,20.41,0,0,1,9.7,32.45a20.69,20.69,0,0,1,.69-8.28,20.46,20.46,0,0,1,38.48-2.05,20,20,0,0,1,1.21,4A20.46,20.46,0,0,1,48.65,38.4,20.43,20.43,0,0,1,46.55,42l-.64.83c-.07.1,0,.06-.06.07h0v0l-.07.08a1.58,1.58,0,0,1-.48.38,1,1,0,0,1-.27.11,1.36,1.36,0,0,1-1.33-.34,1.56,1.56,0,0,1-.47-1,2.44,2.44,0,0,1,0-.27,2,2,0,0,1,.05-.26,1.28,1.28,0,0,1,.26-.47l0-.07h0l.06-.07.54-.71a17.15,17.15,0,0,0,1.8-3.1,17.6,17.6,0,0,0,1.54-7,17.28,17.28,0,0,0-1.35-7,17.55,17.55,0,0,0-33,1.75,17.85,17.85,0,0,0-.6,7.12,17.64,17.64,0,0,0,2.27,6.76,17.84,17.84,0,0,0,4.79,5.3,17.52,17.52,0,0,0,6.49,2.94,17.71,17.71,0,0,0,7.14.13,17.38,17.38,0,0,0,6.59-2.73c.24-.17.5-.33.73-.52l.39-.3.07,0A.69.69,0,0,1,41.18,43.53Z" transform="translate(-9.2 -9.2)"/>
          <path class="aw" d="M41.2,43.56a1.3,1.3,0,0,1,.46-.25,1.84,1.84,0,0,1,.52-.05,1.48,1.48,0,0,1,1,.45,1.34,1.34,0,0,1,.38,1,1.3,1.3,0,0,1-.16.54,1.63,1.63,0,0,1-.37.47l-.15.13-.08.06-.45.35c-.27.22-.57.41-.85.61A20.45,20.45,0,0,1,18,46.47a20.41,20.41,0,0,1-7.51-22.29A20.5,20.5,0,0,1,20.89,11.74,20.42,20.42,0,0,1,48.83,22.13a20,20,0,0,1,1.21,4,20.6,20.6,0,0,1-1.43,12.25A20,20,0,0,1,46.51,42c-.2.28-.42.55-.63.83l-.06.08h0l-.06.08a1.63,1.63,0,0,1-.47.37,1.3,1.3,0,0,1-.54.16,1.34,1.34,0,0,1-1-.38,1.48,1.48,0,0,1-.45-1,1.84,1.84,0,0,1,.05-.52,1.3,1.3,0,0,1,.25-.46l.06-.06v0h0l0-.06c.18-.24.37-.47.55-.72a17.58,17.58,0,0,0,3-13.67,16.63,16.63,0,0,0-1-3.44,17.63,17.63,0,0,0-10.09-9.71,17.6,17.6,0,0,0-19.61,5.18,17.61,17.61,0,0,0-1.71,20.2,17.57,17.57,0,0,0,18.46,8.39,17.54,17.54,0,0,0,6.61-2.73c.24-.17.49-.34.73-.53l.39-.3.06,0A.69.69,0,0,0,41.2,43.56Z" transform="translate(-9.2 -9.2)"/>
          <path class="ax" d="M41.23,43.59a1.31,1.31,0,0,1,.45-.24,1.67,1.67,0,0,1,.5-.05,1.4,1.4,0,0,1,.94.44,1.29,1.29,0,0,1,.36,1,1.2,1.2,0,0,1-.15.52,1.41,1.41,0,0,1-.36.46l-.15.12-.08.06-.45.35c-.27.22-.56.41-.84.61A20.18,20.18,0,0,1,33.79,50a20.57,20.57,0,0,1-8.27-.15A20.34,20.34,0,0,1,9.79,32.44,20.34,20.34,0,0,1,20.91,11.78a20.15,20.15,0,0,1,8-2.11A20.37,20.37,0,0,1,46.48,42c-.21.28-.42.55-.64.82l-.06.08h0l0,0L45.7,43a1.41,1.41,0,0,1-.46.36,1.2,1.2,0,0,1-.52.15,1.29,1.29,0,0,1-1-.36,1.4,1.4,0,0,1-.44-.94,1.67,1.67,0,0,1,.05-.5,1.31,1.31,0,0,1,.24-.45l.06-.06v0h0l0-.06.55-.72a17,17,0,0,0,1.81-3.12,17.58,17.58,0,0,0,1.55-7,18,18,0,0,0-.31-3.59,17.73,17.73,0,0,0-5.1-9.36A17.62,17.62,0,0,0,12.5,32.12a17.41,17.41,0,0,0,2.28,6.79,17.67,17.67,0,0,0,18.51,8.42,17.54,17.54,0,0,0,6.62-2.74c.25-.18.5-.34.73-.53l.39-.3.07-.06A.69.69,0,0,0,41.23,43.59Z" transform="translate(-9.2 -9.2)"/>
          <path class="ay" d="M41.26,43.63a1.23,1.23,0,0,1,.92-.29,1.37,1.37,0,0,1,.91.43,1.25,1.25,0,0,1,.35.95,1.34,1.34,0,0,1-.5.94s-.09.09-.15.13l-.07.06-.45.35c-.27.22-.57.4-.85.61A20.07,20.07,0,0,1,33.79,50a20.32,20.32,0,1,1,15-27.79,19.75,19.75,0,0,1,1.2,4,20.56,20.56,0,0,1,.36,4.14,20.13,20.13,0,0,1-3.87,11.66c-.2.28-.42.55-.63.83l-.06.07h0v0l-.07.07a1.34,1.34,0,0,1-.94.5,1.25,1.25,0,0,1-.95-.35,1.37,1.37,0,0,1-.43-.91,1.23,1.23,0,0,1,.29-.92l0-.07h0l.06-.07.55-.71a17.44,17.44,0,0,0,1.81-3.13,17.68,17.68,0,0,0,1.55-7A17.65,17.65,0,0,0,29.06,12.35a17.67,17.67,0,0,0-9.5,31.92,17.46,17.46,0,0,0,6.55,3,17.77,17.77,0,0,0,7.19.13,17.44,17.44,0,0,0,6.63-2.75c.25-.17.5-.34.74-.53l.39-.3.07,0Z" transform="translate(-9.2 -9.2)"/>
          <path class="az" d="M41.29,43.66a1.24,1.24,0,0,1,.89-.27,1.34,1.34,0,0,1,.88.41,1.21,1.21,0,0,1,.33.92,1.33,1.33,0,0,1-.47.91l-.15.12-.08.07-.45.34c-.27.22-.56.41-.84.61a20.19,20.19,0,0,1-7.62,3.15,20.6,20.6,0,0,1-8.24-.14A20.24,20.24,0,0,1,18,46.37a20.3,20.3,0,0,1-7.47-22.15,20.29,20.29,0,0,1,38.15-2,19.75,19.75,0,0,1,1.2,4,20.45,20.45,0,0,1-1.42,12.18,20.25,20.25,0,0,1-2.08,3.58l-.63.83c-.08.1-.06.06-.06.07h0l0,0-.06.08a1.33,1.33,0,0,1-.91.47,1.21,1.21,0,0,1-.92-.33,1.34,1.34,0,0,1-.41-.88,1.24,1.24,0,0,1,.27-.89l.06-.07h0s0,0,0-.07c.18-.24.37-.47.55-.72A17.74,17.74,0,0,0,47.4,26.63a17.76,17.76,0,0,0-5.12-9.4A17.73,17.73,0,0,0,14.7,39a17.93,17.93,0,0,0,4.84,5.35A17.74,17.74,0,0,0,40,44.66c.25-.18.5-.34.74-.53l.39-.31.07,0Z" transform="translate(-9.2 -9.2)"/>
          <path class="ba" d="M41.32,43.69a1.21,1.21,0,0,1,.86-.26,1.26,1.26,0,0,1,.84.4,1.14,1.14,0,0,1,.33.89,1.28,1.28,0,0,1-.46.87l-.15.13-.08.06-.45.35c-.27.22-.56.4-.84.6a20.1,20.1,0,0,1-7.6,3.15,20.32,20.32,0,0,1-8.22-.15,20,20,0,0,1-7.5-3.4,20.48,20.48,0,0,1-5.51-6.1,20.26,20.26,0,0,1-2.62-7.8,20.47,20.47,0,0,1,.68-8.2A20.24,20.24,0,1,1,48.45,38.31a20,20,0,0,1-2.08,3.58c-.2.28-.42.55-.63.82l0,0v0h0l-.07.08a1.28,1.28,0,0,1-.87.46,1.14,1.14,0,0,1-.89-.33,1.26,1.26,0,0,1-.4-.84,1.21,1.21,0,0,1,.26-.86l.06-.07,0,0h0l0-.07.56-.72A18.2,18.2,0,0,0,46.2,37.3a17.87,17.87,0,0,0,1.56-7,17.54,17.54,0,0,0-.32-3.62,17,17,0,0,0-1-3.48,17.84,17.84,0,0,0-10.19-9.8,17.79,17.79,0,0,0-14.13.75,17.73,17.73,0,0,0-9.7,18A17.55,17.55,0,0,0,14.67,39a17.85,17.85,0,0,0,4.84,5.36,17.63,17.63,0,0,0,6.58,3,17.92,17.92,0,0,0,7.22.12A17.41,17.41,0,0,0,40,44.69c.25-.17.51-.34.74-.53l.39-.3.07,0Z" transform="translate(-9.2 -9.2)"/>
        </g>
        <g>
          <path class="bb" d="M43.91,41.5l.06-.07v0h0v0l0,0c.18-.25.38-.49.56-.74a18.05,18.05,0,1,0-25.27,4,17.84,17.84,0,0,0,6.68,3,18.15,18.15,0,0,0,7.34.13,17.75,17.75,0,0,0,6.78-2.8c.25-.18.51-.35.75-.54l.4-.31.07,0,.14-.12a.92.92,0,0,1,.67-.21,1.06,1.06,0,0,1,.65.32.9.9,0,0,1,.24.69,1,1,0,0,1-.35.67l-.15.12-.08.06L42,45.9c-.26.22-.55.4-.83.6a19.9,19.9,0,0,1-7.49,3.1,20.14,20.14,0,0,1-8.11-.14A19.91,19.91,0,0,1,10.2,32.39,20,20,0,0,1,48.41,22.31a19.64,19.64,0,0,1,1.53,8,19.86,19.86,0,0,1-3.8,11.45c-.2.28-.41.54-.62.81l0,0v0h0l-.06.08a1,1,0,0,1-.67.35.9.9,0,0,1-.69-.24,1.06,1.06,0,0,1-.32-.65A.92.92,0,0,1,43.91,41.5Z" transform="translate(-9.2 -9.2)"/>
          <path class="bc" d="M41.54,44a.9.9,0,0,1,1.23.1.86.86,0,0,1-.11,1.25s-.09.09-.15.13l-.07.06-.44.34c-.26.21-.55.39-.83.59a19.73,19.73,0,0,1-7.47,3.09,20.18,20.18,0,0,1-8.08-.14,19.9,19.9,0,0,1-7.36-3.34,20.19,20.19,0,0,1-5.42-6,19.88,19.88,0,1,1,35.5-17.71,19.61,19.61,0,0,1,1.18,3.89,20.3,20.3,0,0,1,.35,4,19.92,19.92,0,0,1-1.74,7.9,20.85,20.85,0,0,1-2,3.51l-.62.81,0,0,0,0h0l0,0-.06.07a.86.86,0,0,1-1.25.11.9.9,0,0,1-.1-1.23l.06-.07h0l0,0,0,0,.57-.73a18.23,18.23,0,0,0,3.44-10.4,18.22,18.22,0,0,0-.32-3.69A17.7,17.7,0,0,0,46.72,23a18.11,18.11,0,0,0-30.59-4.66,17.92,17.92,0,0,0-3.5,6.48A18.25,18.25,0,0,0,12,32.18a18,18,0,0,0,2.34,7A18.06,18.06,0,0,0,26,47.67a18.12,18.12,0,0,0,7.37.13A17.92,17.92,0,0,0,40.18,45c.26-.18.52-.35.76-.54l.4-.31.07-.06Z" transform="translate(-9.2 -9.2)"/>
          <path class="bd" d="M41.59,44a.83.83,0,0,1,1.13.1.81.81,0,0,1-.1,1.15l-.15.12-.08.06-.43.34c-.27.21-.55.4-.83.59a19.57,19.57,0,0,1-7.44,3.08,20,20,0,0,1-8-.14A19.72,19.72,0,0,1,18.3,46,19.86,19.86,0,0,1,11,24.35,19.87,19.87,0,0,1,21.16,12.28,20,20,0,0,1,29,10.22,19.85,19.85,0,0,1,48.28,22.36a19.67,19.67,0,0,1,1.52,7.91,20,20,0,0,1-1.74,7.87,19.69,19.69,0,0,1-2,3.5c-.2.27-.41.53-.62.8l0,.05v0h0l-.06.08a.81.81,0,0,1-1.15.1.83.83,0,0,1-.1-1.13l.06-.07v0h0l.06-.06c.18-.25.38-.49.56-.74a18.18,18.18,0,0,0,3.14-14.14A17.6,17.6,0,0,0,46.79,23a18.2,18.2,0,0,0-34.23,1.82,18.54,18.54,0,0,0-.62,7.37A18.2,18.2,0,0,0,40.22,45.05c.26-.18.52-.35.76-.55l.4-.31.07,0Z" transform="translate(-9.2 -9.2)"/>
          <path class="be" d="M41.63,44.08a.74.74,0,0,1,1,.08.72.72,0,0,1-.09,1.05l-.14.13-.08,0-.44.34c-.26.21-.54.4-.82.59a19.42,19.42,0,0,1-7.41,3.07,19.93,19.93,0,0,1-8-.14A19.71,19.71,0,0,1,10.41,32.37,19.74,19.74,0,0,1,29,10.29a19.66,19.66,0,0,1,14.72,5.49,19.7,19.7,0,0,1,5.71,10.47A19.68,19.68,0,0,1,46,41.6l-.61.8,0,.05,0,0h0l0,0-.06.07a.72.72,0,0,1-1.05.09.74.74,0,0,1-.08-1l.05-.07h0l.05-.07c.19-.25.39-.49.57-.74a18.22,18.22,0,0,0,1.87-3.23,18.27,18.27,0,0,0,1.28-11A17.91,17.91,0,0,0,46.85,23a18.28,18.28,0,0,0-34.36,1.83,18.69,18.69,0,0,0-.62,7.4,18.24,18.24,0,0,0,7.35,12.55A18,18,0,0,0,26,47.81a18.36,18.36,0,0,0,7.42.13,17.86,17.86,0,0,0,6.86-2.84c.26-.18.52-.34.76-.54l.41-.31.07-.06Z" transform="translate(-9.2 -9.2)"/>
          <path class="bf" d="M41.68,44.13a.67.67,0,0,1,.85,1l-.15.12-.07.06-.44.34c-.26.21-.54.39-.82.58a19.32,19.32,0,0,1-7.39,3.06,19.65,19.65,0,1,1,14.49-26.9,19.19,19.19,0,0,1,1.16,3.85,19.67,19.67,0,0,1-3.4,15.29c-.19.27-.4.53-.61.79l-.06.08h0l-.06.08a.67.67,0,0,1-1-.85l.06-.07v0h0s0,0,.06-.06l.57-.75a19,19,0,0,0,1.88-3.24,18.6,18.6,0,0,0,1.61-7.28,18.4,18.4,0,0,0-1.41-7.32,18.35,18.35,0,0,0-31-4.72,18.24,18.24,0,0,0-4.16,14A18.32,18.32,0,0,0,26,47.88a18.56,18.56,0,0,0,7.46.13,18.13,18.13,0,0,0,6.88-2.85c.26-.18.52-.35.76-.55l.41-.31.07,0Z" transform="translate(-9.2 -9.2)"/>
          <path class="bg" d="M41.72,44.19a.59.59,0,0,1,.76.91l-.14.13-.08.05-.43.34c-.26.21-.54.39-.82.59A19.58,19.58,0,0,1,10.55,32.35a19.92,19.92,0,0,1,.66-7.94A19.58,19.58,0,0,1,36.83,11.64a19.38,19.38,0,0,1,6.75,4.24,19.69,19.69,0,0,1,4.5,6.57,19,19,0,0,1,1.16,3.83,19.55,19.55,0,0,1-3.38,15.23l-.61.8-.06.07h0v0l-.07.07a.59.59,0,0,1-.91-.76l.05-.07h0s0,0,0-.07c.19-.25.39-.49.57-.75a17.55,17.55,0,0,0,1.89-3.25,18.58,18.58,0,0,0,1.62-7.31,18.07,18.07,0,0,0-.33-3.74A17.82,17.82,0,0,0,47,22.91,18.4,18.4,0,0,0,29,11.62a18.34,18.34,0,0,0-13.11,6.55,18.22,18.22,0,0,0-3.55,6.58A18.41,18.41,0,0,0,33.43,48.08a18.12,18.12,0,0,0,6.91-2.86c.26-.18.52-.35.77-.55l.4-.31.08-.06Z" transform="translate(-9.2 -9.2)"/>
          <path class="bh" d="M41.77,44.24a.53.53,0,0,1,.73.06.54.54,0,0,1-.06.75l-.15.12-.07.06-.44.33c-.25.21-.53.39-.81.59a19.56,19.56,0,0,1-22.5-.39,19.58,19.58,0,0,1-7.19-21.33,19.42,19.42,0,0,1,3.77-7,19.54,19.54,0,0,1,33,5A19.58,19.58,0,0,1,47.8,38a19.13,19.13,0,0,1-2,3.45l-.61.8-.06.07h0l-.06.08a.54.54,0,0,1-.75.06.53.53,0,0,1-.06-.73l.06-.07v0h0s0,0,.06-.07l.57-.75a18.26,18.26,0,0,0,1.9-3.26,18.71,18.71,0,0,0,1.62-7.33,18.3,18.3,0,0,0-.33-3.77,18.79,18.79,0,0,0-1.09-3.61A18.51,18.51,0,0,0,29,11.55a18.45,18.45,0,0,0-13.16,6.57,18.4,18.4,0,0,0-3.57,6.61,18.44,18.44,0,0,0,6.8,20.18A18.31,18.31,0,0,0,25.93,48a18.62,18.62,0,0,0,7.51.13,18.27,18.27,0,0,0,6.94-2.87c.26-.18.53-.35.77-.55l.41-.32.07,0Z" transform="translate(-9.2 -9.2)"/>
        </g>
        <g>
          <path class="bi" d="M41.93,44.47a.39.39,0,0,1,.55,0,.4.4,0,0,1-.13.55l-.14.12-.09.07-.39.3c-.13.1-.26.2-.4.29l-.4.29c-.14.09-.27.19-.41.27a19.41,19.41,0,0,1-22.3-.89,19.41,19.41,0,0,1-6.75-21.26A19.42,19.42,0,0,1,43.56,16.1,19.41,19.41,0,0,1,47.69,38a19.18,19.18,0,0,1-2,3.42c-.19.26-.4.52-.6.78l0,.05h0l0,0-.06.07c-.17.2-.4.25-.54.13a.38.38,0,0,1,0-.55l.06-.07v0h0l0-.05c.19-.25.39-.5.58-.76a18.41,18.41,0,0,0,1.93-3.29,18.84,18.84,0,0,0,1.66-7.42,18.58,18.58,0,0,0-1.4-7.47,18.84,18.84,0,0,0-4.26-6.29,18.54,18.54,0,0,0-6.4-4.09,18.79,18.79,0,0,0-7.49-1.22,18.49,18.49,0,0,0-7.37,1.86A18.75,18.75,0,0,0,33.07,48.5a18.52,18.52,0,0,0,7.08-2.73c.14-.08.27-.17.4-.26l.39-.28a3.48,3.48,0,0,0,.39-.28l.38-.29.08-.07Z" transform="translate(-9.2 -9.2)"/>
          <path class="bj" d="M42,44.49a.35.35,0,0,1,.5,0c.11.13.07.33-.12.49a1.49,1.49,0,0,1-.14.12l-.08.06-.61.48-.82.57a19.13,19.13,0,0,1-7.33,2.91,19.43,19.43,0,0,1-7.89-.24,19.39,19.39,0,0,1-12.34-9.3,19.41,19.41,0,0,1,8.5-27,19.76,19.76,0,0,1,3.73-1.34,18.69,18.69,0,0,1,3.93-.54,19.35,19.35,0,0,1,14.39,5.63,20,20,0,0,1,2.52,3.07,19.38,19.38,0,0,1,3.18,11.3,19.39,19.39,0,0,1-1.85,7.67,19.16,19.16,0,0,1-2.06,3.39l-.31.39-.07.1-.06.07h0l0,0-.07.08c-.16.18-.36.22-.49.11s-.12-.32,0-.5l.06-.07,0,0h0l0-.06.08-.1.29-.38a18.32,18.32,0,0,0,2-3.28,18.88,18.88,0,0,0,.48-15,18.39,18.39,0,0,0-1.77-3.41,19,19,0,0,0-8.84-7.16,19,19,0,0,0-7.54-1.28,18.79,18.79,0,0,0-15.67,28,18.89,18.89,0,0,0,5,5.75,18.6,18.6,0,0,0,6.92,3.26,18.92,18.92,0,0,0,7.64.24,18.7,18.7,0,0,0,7.11-2.83l.79-.55.6-.46.07-.06Z" transform="translate(-9.2 -9.2)"/>
          <path class="bk" d="M42,44.51c.17-.14.35-.15.45,0s.06.29-.11.44l-.14.12-.08.06-.44.34-.19.15-.21.14-.41.29a19.23,19.23,0,0,1-7.32,3,19.52,19.52,0,0,1-7.91-.18,19.26,19.26,0,0,1-3.77-1.28,19.4,19.4,0,0,1-8.67-8,19.38,19.38,0,0,1,2.22-22.32,19.58,19.58,0,0,1,6.31-4.78,19.22,19.22,0,0,1,7.7-1.84A19.45,19.45,0,0,1,37.22,12a19.34,19.34,0,0,1,8,29.9l-.15.2,0,0,0,0v0h0v0l0,0-.06.08c-.15.17-.33.2-.44.1s-.11-.27,0-.44l.06-.07,0,0h0l0,0,0,0,.15-.19a18.68,18.68,0,0,0,2.07-3.28A18.81,18.81,0,0,0,29.44,11.19a18.75,18.75,0,0,0-13.63,6.44A18.93,18.93,0,0,0,12,24.35,18.73,18.73,0,0,0,11.28,32,18.78,18.78,0,0,0,18.76,45.1a18.6,18.6,0,0,0,3.32,2,18.82,18.82,0,0,0,3.66,1.25,19,19,0,0,0,7.7.17,18.53,18.53,0,0,0,7.13-2.93l.39-.27.2-.14.19-.15.43-.33.07-.06Z" transform="translate(-9.2 -9.2)"/>
          <path class="bl" d="M42,44.53c.15-.13.3-.13.39,0s.06.24-.1.38l-.15.13-.07.05-.26.21-.4.3-.41.29A19.13,19.13,0,0,1,33.72,49a19.3,19.3,0,0,1-20.46-9.31A19.54,19.54,0,0,1,10.77,28.1a19.33,19.33,0,0,1,37.37-4.76,19.17,19.17,0,0,1,1,3.86,19.72,19.72,0,0,1,.16,4,19.34,19.34,0,0,1-2.1,7.66A19,19,0,0,1,45,42.19l-.13.16c-.14.16-.29.18-.39.09s-.1-.23,0-.39l.13-.15a18.82,18.82,0,0,0,4.18-10.73,18.59,18.59,0,0,0-1.11-7.68,19,19,0,0,0-4.12-6.57,19.18,19.18,0,0,0-6.41-4.37A18.88,18.88,0,0,0,13.65,39.42a19.19,19.19,0,0,0,5.17,5.78,18.87,18.87,0,0,0,7.06,3.21,19.09,19.09,0,0,0,7.75.1,18.78,18.78,0,0,0,7.14-3l.4-.28.39-.3.25-.19.07-.06Z" transform="translate(-9.2 -9.2)"/>
          <path class="bm" d="M42.06,44.55c.14-.13.26-.12.33,0s.07.2-.08.33l-.15.12-.07.06-.09.06-.39.31-.2.16-.21.14a19.19,19.19,0,0,1-7.3,3.19,19.41,19.41,0,0,1-8,0,19.29,19.29,0,0,1-12.62-9.16,19.5,19.5,0,0,1-2.49-7.57,19.81,19.81,0,0,1,0-4,20.32,20.32,0,0,1,.81-3.93,19.37,19.37,0,0,1,10.3-11.7,19.46,19.46,0,0,1,7.76-1.77,19.06,19.06,0,0,1,7.83,1.51A19.3,19.3,0,0,1,47,39.12c-.32.59-.67,1.16-1,1.72-.19.27-.37.55-.58.81l-.31.4-.11.13h0l-.12.15c-.13.15-.25.16-.33.09s-.09-.19,0-.34l.12-.14h0l.11-.14.3-.39c.21-.25.38-.53.57-.79a19.27,19.27,0,0,0,1-1.68,18.93,18.93,0,0,0-9.3-26.35,19,19,0,0,0-3.76-1.15,19.73,19.73,0,0,0-3.91-.33A18.92,18.92,0,0,0,12,24.31a19.35,19.35,0,0,0-.79,3.85A18.9,18.9,0,0,0,41,45.38l.2-.14.19-.15.39-.3.08-.06.08-.06Z" transform="translate(-9.2 -9.2)"/>
          <path class="bn" d="M42.09,44.57c.14-.12.23-.1.28,0s.06.16-.08.28l-.14.13-.78.6a19.27,19.27,0,0,1-22.6.1A19.28,19.28,0,0,1,11.64,24.2,19.26,19.26,0,0,1,29.8,10.75a19,19,0,0,1,7.83,1.58A19.24,19.24,0,0,1,44.15,17a19,19,0,0,1,4.08,6.87,19.4,19.4,0,0,1,.94,7.93,19.19,19.19,0,0,1-2.36,7.64l-.25.44-.27.42c-.09.14-.17.29-.27.43l-.28.41c-.19.28-.4.54-.61.81l-.22.28-.13.15c-.12.14-.21.14-.28.08s-.08-.15,0-.29l.12-.14s-.06.09.22-.28.41-.52.6-.8l.28-.4c.09-.14.18-.28.26-.42l.27-.42.24-.43a18.76,18.76,0,0,0,2.32-7.5,19,19,0,0,0-.92-7.81,18.75,18.75,0,0,0-4-6.75,19,19,0,0,0-6.41-4.55,18.75,18.75,0,0,0-7.71-1.55,19,19,0,0,0-7.67,1.71A19,19,0,0,0,12,24.29a18.31,18.31,0,0,0-.79,3.88,18.63,18.63,0,0,0,0,3.95,18.94,18.94,0,0,0,30,13.16l.77-.59Z" transform="translate(-9.2 -9.2)"/>
          <path class="ac" d="M44.55,42.16l.13-.14,0,0,.61-.79c.18-.27.38-.54.56-.82l.27-.42c.08-.14.18-.28.26-.42A19.1,19.1,0,0,0,48.86,32,19,19,0,0,0,37.67,12.65,19.12,19.12,0,0,0,29.93,11a19.31,19.31,0,0,0-7.74,1.68,19,19,0,0,0-3.43,2,19.66,19.66,0,0,0-2.94,2.68,18.82,18.82,0,0,0-3.9,6.88,18.71,18.71,0,0,0-.76,7.87,18.93,18.93,0,0,0,30.22,13l.6-.46.14-.12c.13-.11.19-.09.23,0s.06.12-.07.23l-.14.12-.61.47a18.56,18.56,0,0,1-3.45,2.07A19.24,19.24,0,0,1,10.87,28.15a19.27,19.27,0,0,1,4.77-10.92,19.59,19.59,0,0,1,3-2.71,19.23,19.23,0,0,1,3.48-2,19.24,19.24,0,0,1,15.68-.06,19.22,19.22,0,0,1,8.85,27.23c-.08.15-.17.29-.26.43l-.27.43c-.18.28-.38.55-.57.83l-.62.8,0,0-.12.15c-.11.13-.18.12-.23.07S44.45,42.28,44.55,42.16Z" transform="translate(-9.2 -9.2)"/>
        </g>
        <path class="ac" d="M42.62,44.25v0l0,0a.55.55,0,0,1,.1.23.58.58,0,0,1-.05.4.74.74,0,0,1-.14.22,1.89,1.89,0,0,1-.2.2l-.15.11-.63.48-.65.45A19,19,0,0,1,38.12,48,19.5,19.5,0,0,1,35,49.11a20.22,20.22,0,0,1-3.41.56,19.66,19.66,0,0,1-13.79-4.19,20,20,0,0,1-5-5.9A19.76,19.76,0,0,1,15.2,16.94a19.77,19.77,0,0,1,22.16-5.26,19.48,19.48,0,0,1,6.47,4.24,19.7,19.7,0,0,1,5,19.9,18.92,18.92,0,0,1-1.21,3l-.17.36-.2.35c-.13.22-.25.46-.39.68l-.42.66-.44.63-.11.16-.11.15-.24.3-.23.3,0,0h0l0,.05,0,0-.05.05a1.07,1.07,0,0,1-.22.15.59.59,0,0,1-.4,0,.48.48,0,0,1-.23-.12l0-.05h0l.08.05a.46.46,0,0,0,.22.08.57.57,0,0,0,.37-.07.86.86,0,0,0,.2-.13l0,0,0-.06,0,0h0l0-.05.23-.3.23-.3.12-.15.11-.16c.15-.2.29-.41.44-.63l.41-.65c.14-.22.26-.46.39-.68l.19-.35.18-.35a18.55,18.55,0,0,0,1.21-3A19.79,19.79,0,0,0,48,22.12,19.66,19.66,0,1,0,31.53,49.6a21.17,21.17,0,0,0,3.4-.57,18.46,18.46,0,0,0,3.16-1.11,19.36,19.36,0,0,0,2.83-1.57l.65-.45.62-.48.15-.11a1.8,1.8,0,0,0,.2-.18,1.21,1.21,0,0,0,.14-.2.77.77,0,0,0,.07-.37.74.74,0,0,0-.08-.24Z" transform="translate(-9.2 -9.2)"/>
        <path class="ac" d="M41.67,44.29l0,.05-.06,0,0,0-.4.31-.23.18-.24.17-.52.36-.56.35c-.18.12-.39.23-.59.34a6.48,6.48,0,0,1-.64.34c-.22.11-.44.23-.67.33l-.71.31-.76.29-.79.26a19.5,19.5,0,0,1-3.53.72,18.4,18.4,0,0,1-4,0l-.52-.06-.53-.09c-.35-.05-.7-.13-1.05-.21a4.56,4.56,0,0,1-.53-.13l-.54-.14-.53-.17-.53-.19a17.71,17.71,0,0,1-4.12-2.12l-.49-.34-.48-.37-.24-.19-.23-.2-.47-.4A18.24,18.24,0,0,1,15.92,42c-.28-.31-.53-.66-.79-1l-.36-.52-.19-.26-.17-.27-.34-.55-.31-.56a6.36,6.36,0,0,1-.3-.58l-.15-.29c0-.1-.09-.19-.13-.3s-.18-.4-.26-.6-.16-.4-.24-.61l-.12-.31-.1-.31c-.06-.21-.14-.42-.2-.63a20.88,20.88,0,0,1-.56-2.61,20.18,20.18,0,0,1-.17-2.7v-.68c0-.23,0-.45.05-.68s0-.23,0-.34l0-.34c0-.23,0-.46.09-.68s.07-.45.11-.68L12,25.8c0-.23.11-.44.17-.67l.09-.33c0-.11.07-.22.1-.33a17.23,17.23,0,0,1,1-2.57l.15-.31c0-.1.1-.21.16-.31l.34-.61c.11-.2.24-.39.36-.59s.12-.19.19-.29l.2-.29.2-.28.1-.14.1-.14.43-.55.45-.53.23-.27.24-.25.24-.25.25-.25.5-.48c.17-.16.35-.3.53-.46l.26-.22.28-.22a16.77,16.77,0,0,1,2.3-1.54l.3-.17.31-.17.62-.3.63-.28.32-.14.32-.12.33-.12.16-.06.16-.06.66-.21c.44-.12.88-.25,1.33-.34.22,0,.45-.1.67-.13l.68-.11.67-.08.17,0h.17l.34,0a17.37,17.37,0,0,1,2.7,0,16.48,16.48,0,0,1,2.64.4,16.31,16.31,0,0,1,2.52.76l.31.11.3.13.59.26c.39.19.78.37,1.15.59l.28.16.14.07.13.09.54.34.27.17.26.18.51.37.49.39a6,6,0,0,1,.48.4c.32.26.61.55.91.83l.22.22.21.22.21.22c.07.08.14.15.2.23.26.31.53.61.77.93.12.16.25.31.36.47s.23.33.34.49l.17.24.16.25.31.49a19.64,19.64,0,0,1,1,2,18.45,18.45,0,0,1,.76,2.07c0,.18.1.35.14.53a4.39,4.39,0,0,1,.13.52c.08.34.16.69.21,1A18.31,18.31,0,0,1,47,37.35c-.19.46-.41.87-.61,1.27s-.42.78-.64,1.11-.21.35-.32.51-.21.31-.32.45l-.15.22-.16.21-.3.39-.07.09-.06.07h0l0,0-.06,0,0-.06,0,0,.14-.18.3-.39.16-.21.15-.21.32-.46c.11-.16.21-.33.32-.5.22-.34.42-.72.64-1.11s.42-.82.6-1.27a18.36,18.36,0,0,0,1-3,18.64,18.64,0,0,0,.49-3.56,18.1,18.1,0,0,0-.26-4c0-.34-.14-.68-.21-1,0-.18-.09-.35-.13-.52l-.14-.52a18.45,18.45,0,0,0-.76-2.07,20.53,20.53,0,0,0-1-2l-.31-.49-.16-.25-.16-.24c-.12-.16-.23-.32-.34-.49l-.36-.47c-.24-.32-.51-.62-.77-.92-.06-.08-.13-.15-.2-.23l-.21-.22-.21-.22-.22-.22c-.3-.28-.59-.57-.91-.83l-.47-.4-.5-.38a4.74,4.74,0,0,0-.51-.37l-.25-.18L40,14.54l-.54-.33-.13-.09L39.21,14l-.28-.15c-.37-.22-.76-.4-1.14-.59L37.2,13l-.3-.13-.31-.11a18.48,18.48,0,0,0-5.14-1.16,18.57,18.57,0,0,0-2.69,0l-.34,0h-.17l-.17,0-.68.08-.67.11-.67.14c-.45.08-.88.21-1.33.33l-.65.21-.16.06-.16.06-.33.12-.32.12-.32.13-.63.28-.62.31-.3.16-.3.17a17.73,17.73,0,0,0-2.3,1.54l-.28.22-.26.22c-.17.15-.36.3-.52.46l-.51.48-.24.24-.24.26-.24.25c-.08.08-.15.17-.23.26l-.45.53-.43.55-.1.14-.1.14-.2.28-.2.29-.18.29-.37.59-.34.61-.15.3-.16.31a18.32,18.32,0,0,0-1,2.57c0,.11-.07.21-.1.32l-.09.34c-.06.22-.13.44-.17.66l-.15.67-.11.68c0,.22-.06.45-.09.67l0,.34c0,.12,0,.23,0,.34s0,.46,0,.68,0,.45,0,.68a18.61,18.61,0,0,0,.18,2.69,20.7,20.7,0,0,0,.55,2.6c.06.21.14.42.2.63l.1.31.12.31c.08.21.15.41.24.61l.26.6.13.3.15.29a6.19,6.19,0,0,0,.3.57l.31.56.34.55.17.27.18.26c.12.17.24.35.37.52.26.33.5.67.78,1a18.24,18.24,0,0,0,1.73,1.78l.46.4.23.2.24.18.48.37.49.35a18.4,18.4,0,0,0,4.11,2.11,5.52,5.52,0,0,0,.53.18l.53.17.53.15.53.13c.35.08.7.16,1.05.21l.52.09.52.06a17.68,17.68,0,0,0,4,0,18.58,18.58,0,0,0,3.52-.71l.79-.26.76-.29.71-.31.67-.32.63-.34a5.88,5.88,0,0,0,.6-.35l.55-.34.52-.36.24-.17.23-.18.4-.31,0,0,.07,0Z" transform="translate(-9.2 -9.2)"/>
        <g class="ad">
          <path class="bo" d="M42.21,43.87a.56.56,0,0,0-.42.08l-.17.12-.16.15h0l0,0h0l0,0-.21.16-.41.31-.42.3c-.14.1-.28.2-.43.29s-.58.37-.88.53a18.1,18.1,0,0,1-7.88,2.35l-.26,0h-.26l-.51,0h-.52l-.52,0A17.76,17.76,0,0,1,27,48a18.44,18.44,0,0,1-4-1.13,18.81,18.81,0,0,1-3.62-2A18.29,18.29,0,0,1,14,38.75l-.13-.22-.12-.23-.23-.47c-.08-.15-.14-.31-.21-.47l-.21-.47-.18-.49a4,4,0,0,1-.17-.49l-.16-.49a1.83,1.83,0,0,1-.08-.25l-.07-.25a18.27,18.27,0,0,1,2.88-15.75,18.81,18.81,0,0,1,2.82-3,18.52,18.52,0,0,1,3.41-2.33,19,19,0,0,1,3.86-1.48l.25-.07.25-.06.51-.11.51-.09.51-.09.51-.06.52,0c.34,0,.69-.06,1-.06a18.35,18.35,0,0,1,4.12.34,18.07,18.07,0,0,1,7.49,3.38,18.24,18.24,0,0,1,6.69,10.2,18.86,18.86,0,0,1,.51,4.1,18.12,18.12,0,0,1-1.74,8,18.38,18.38,0,0,1-2.18,3.51l-.16.21,0,0h0s0,0,0,0a.13.13,0,0,0-.06.07.84.84,0,0,0-.17.34.63.63,0,0,0,0,.38.6.6,0,0,1-.11-.39,1.07,1.07,0,0,1,.14-.39l.06-.08,0,0v0l0,0,.16-.2a17.93,17.93,0,0,0,3.47-7.38,17.5,17.5,0,0,0,.41-4.08,18.68,18.68,0,0,0-.51-4.08,18.94,18.94,0,0,0-1.42-3.85,18.22,18.22,0,0,0-12.64-9.63,18.73,18.73,0,0,0-4.09-.34c-.35,0-.69,0-1,.06l-.51.05-.51.06-.51.09c-.17,0-.34,0-.51.09l-.5.11a2.27,2.27,0,0,0-.25.06l-.25.06a18.39,18.39,0,0,0-3.83,1.48,18.61,18.61,0,0,0-3.39,2.31,19,19,0,0,0-2.8,3,18.45,18.45,0,0,0-2,3.56,18.22,18.22,0,0,0-1.46,8,18.59,18.59,0,0,0,.65,4.06l.07.24a1.83,1.83,0,0,0,.08.25l.16.49a4.59,4.59,0,0,0,.17.48l.18.48.21.47c.07.16.13.32.21.47l.23.46c0,.08.07.16.11.23l.13.23a18.28,18.28,0,0,0,9,8.08A18.48,18.48,0,0,0,27,47.89a17.59,17.59,0,0,0,2,.22l.51,0h1.29l.25,0a19.21,19.21,0,0,0,4.05-.71A17.91,17.91,0,0,0,39,45.78c.3-.16.59-.35.88-.53s.29-.19.43-.29l.42-.29.41-.31.2-.16.05,0h0l0,0h0l.18-.14a.78.78,0,0,1,.2-.11.43.43,0,0,1,.22-.06A.37.37,0,0,1,42.21,43.87Z" transform="translate(-9.2 -9.2)"/>
        </g>
        <g class="ad">
          <path class="bo" d="M44.08,42.87l.18.09.18,0a.93.93,0,0,0,.37,0,1.29,1.29,0,0,0,.33-.17c.06,0,.1-.09.15-.13l.06-.07,0,0v0h0l0-.06.12-.15.29-.39.15-.19.14-.2.27-.39c.09-.14.19-.27.27-.4l.26-.41c.08-.14.17-.27.24-.42l.24-.42c.07-.14.16-.27.23-.42a19.85,19.85,0,0,0-5-24.42A19.85,19.85,0,0,0,12.19,38.75a20,20,0,0,0,4.64,6.08,19.61,19.61,0,0,0,6.59,3.89,20,20,0,0,0,15-.74,19.62,19.62,0,0,0,3.31-2l.69-.53,0,0,.08,0h0l.07-.06.08-.07.13-.14a1.32,1.32,0,0,0,.18-.33,1,1,0,0,0,0-.38l0-.09a.32.32,0,0,0,0-.09.76.76,0,0,0-.09-.18,1.63,1.63,0,0,1,.11.17,1.34,1.34,0,0,1,.07.18.9.9,0,0,1,0,.4,1,1,0,0,1-.17.36,1.38,1.38,0,0,1-.29.3h0l-.79.61a19.31,19.31,0,0,1-3.33,2,19.91,19.91,0,0,1-15.08.75,19.67,19.67,0,0,1-6.63-3.91,20.11,20.11,0,0,1-4.66-6.12A20,20,0,0,1,14.84,17a20.12,20.12,0,0,1,6-4.77,19.77,19.77,0,0,1,7.39-2.13,19.94,19.94,0,0,1,20.9,25.42,19.73,19.73,0,0,1-3.53,6.84h0l-.18.24,0,0-.07.08-.16.13a1.17,1.17,0,0,1-.36.16.86.86,0,0,1-.39,0L44.25,43a.91.91,0,0,1-.17-.09Z" transform="translate(-9.2 -9.2)"/>
        </g>
        <g>
          <path class="af" d="M42.63,44.75a.19.19,0,0,1,0-.25.2.2,0,0,1,.26,0,.19.19,0,0,1,0,.25A.18.18,0,0,1,42.63,44.75Z" transform="translate(-9.2 -9.2)"/>
          <path class="ag" d="M42.68,44.53a.15.15,0,0,1,.2,0,.14.14,0,0,1,0,.2.13.13,0,0,1-.2,0A.14.14,0,0,1,42.68,44.53Z" transform="translate(-9.2 -9.2)"/>
          <path class="ah" d="M42.7,44.56a.1.1,0,0,1,.15,0,.11.11,0,1,1-.15,0Z" transform="translate(-9.2 -9.2)"/>
          <path class="ai" d="M42.72,44.58a.08.08,0,0,1,.1,0,.07.07,0,1,1-.1,0Z" transform="translate(-9.2 -9.2)"/>
          <path class="ac" d="M42.75,44.61h0s0,0,0,0,0,0,0,0A0,0,0,0,1,42.75,44.61Z" transform="translate(-9.2 -9.2)"/>
        </g>
        <g>
          <path class="aj" d="M44.18,42.41a.22.22,0,0,1,0-.31.22.22,0,0,1,.32,0,.23.23,0,0,1,0,.32A.22.22,0,0,1,44.18,42.41Z" transform="translate(-9.2 -9.2)"/>
          <path class="ak" d="M44.19,42.13a.18.18,0,0,1,.26,0,.19.19,0,0,1,0,.25.18.18,0,0,1-.26,0A.19.19,0,0,1,44.19,42.13Z" transform="translate(-9.2 -9.2)"/>
          <path class="al" d="M44.23,42.16a.13.13,0,1,1,.2.17.13.13,0,1,1-.2-.17Z" transform="translate(-9.2 -9.2)"/>
          <path class="am" d="M44.26,42.19a.09.09,0,0,1,.13,0,.08.08,0,0,1,0,.12.09.09,0,0,1-.13,0A.09.09,0,0,1,44.26,42.19Z" transform="translate(-9.2 -9.2)"/>
          <path class="ac" d="M44.3,42.22s0,0,.06,0a0,0,0,0,1,0,.06s0,0-.06,0S44.28,42.23,44.3,42.22Z" transform="translate(-9.2 -9.2)"/>
        </g>
      </g>
    </g>
  </g>
</svg>