<svg width="29" height="21" viewBox="0 0 29 21" fill="none" xmlns="http://www.w3.org/2000/svg">
<path d="M1.14572 14.7312C0.530166 14.4866 0.623482 13.8896 1.32516 13.5831L16.9144 6.77289C17.3012 6.60392 17.7759 6.57298 18.1313 6.69359L27.4898 9.86894C28.1406 10.0898 28.0971 10.6907 27.4067 11.0168L11.8319 18.3748C11.4182 18.5702 10.8908 18.6021 10.5186 18.4542L1.14572 14.7312Z" fill="#88FFCD"/>
<path d="M1.14572 10.7272C0.530166 10.4827 0.623482 9.88572 1.32516 9.57919L16.9144 2.76898C17.3012 2.60001 17.7759 2.56908 18.1313 2.68968L27.4898 5.86503C28.1406 6.08585 28.0971 6.68676 27.4067 7.01291L11.8319 14.3709C11.4182 14.5663 10.8908 14.5982 10.5186 14.4503L1.14572 10.7272Z" fill="#0F1320"/>
<path fill-rule="evenodd" clip-rule="evenodd" d="M17.4597 3.31311L1.87043 10.1233L11.2433 13.8464L26.8181 6.48846L17.4597 3.31311ZM1.32516 9.57919C0.623482 9.88572 0.530166 10.4827 1.14572 10.7272L10.5186 14.4503C10.8908 14.5982 11.4182 14.5663 11.8319 14.3709L27.4067 7.01291C28.0971 6.68676 28.1406 6.08585 27.4898 5.86503L18.1313 2.68968C17.7759 2.56908 17.3012 2.60001 16.9144 2.76898L1.32516 9.57919Z" fill="#88FFCD"/>
</svg>
