<svg width="8" height="8" viewBox="0 0 8 8" fill="none" xmlns="http://www.w3.org/2000/svg">
<path d="M4.00065 6.33665C5.28932 6.33665 6.33398 5.29142 6.33398 4.00207C6.33398 2.71272 5.28932 1.6675 4.00065 1.6675C2.71199 1.6675 1.66732 2.71272 1.66732 4.00207C1.66732 5.29142 2.71199 6.33665 4.00065 6.33665ZM4.00065 6.67016C2.52789 6.67016 1.33398 5.47562 1.33398 4.00207C1.33398 2.52853 2.52789 1.33398 4.00065 1.33398C5.47341 1.33398 6.66732 2.52853 6.66732 4.00207C6.66732 5.47562 5.47341 6.67016 4.00065 6.67016Z" fill="white" fill-opacity="0.95"/>
<path d="M3.99935 4.66916C4.36754 4.66916 4.66602 4.37052 4.66602 4.00213C4.66602 3.63375 4.36754 3.33511 3.99935 3.33511C3.63116 3.33511 3.33268 3.63375 3.33268 4.00213C3.33268 4.37052 3.63116 4.66916 3.99935 4.66916ZM3.99935 5.33618C3.26297 5.33618 2.66602 4.73891 2.66602 4.00213C2.66602 3.26536 3.26297 2.66809 3.99935 2.66809C4.73573 2.66809 5.33268 3.26536 5.33268 4.00213C5.33268 4.73891 4.73573 5.33618 3.99935 5.33618Z" fill="white" fill-opacity="0.95"/>
<path fill-rule="evenodd" clip-rule="evenodd" d="M4.568 7.95778C4.47427 7.95778 4.39828 7.88175 4.39828 7.78796C4.39828 7.69418 4.47427 7.61815 4.568 7.61815C4.66174 7.61815 4.73773 7.69418 4.73773 7.78796C4.73773 7.88175 4.66174 7.95778 4.568 7.95778ZM3.95613 7.99788C3.86355 7.98321 3.80038 7.89623 3.81504 7.8036C3.82971 7.71096 3.91665 7.64777 4.00923 7.66244C4.10181 7.67711 4.16498 7.76409 4.15031 7.85673C4.13565 7.94936 4.04871 8.01256 3.95613 7.99788ZM3.34533 7.94397C3.25618 7.91499 3.20739 7.81918 3.23636 7.72999C3.26532 7.64079 3.36107 7.59198 3.45022 7.62096C3.53937 7.64994 3.58816 7.74574 3.55919 7.83494C3.53023 7.92414 3.43448 7.97295 3.34533 7.94397ZM2.7526 7.79862C2.66835 7.75751 2.63336 7.65585 2.67446 7.57155C2.71555 7.48726 2.81716 7.45225 2.90141 7.49337C2.98565 7.53448 3.02064 7.63614 2.97955 7.72044C2.93846 7.80473 2.83685 7.83974 2.7526 7.79862ZM2.18639 7.56306C2.10961 7.50926 2.09095 7.40337 2.14471 7.32655C2.19848 7.24972 2.30431 7.23105 2.38109 7.28485C2.45787 7.33864 2.47654 7.44453 2.42277 7.52135C2.36901 7.59818 2.26318 7.61685 2.18639 7.56306ZM1.66282 7.24369C1.59539 7.17854 1.59352 7.07104 1.65863 7.00357C1.72375 6.93611 1.8312 6.93423 1.89862 6.99938C1.96605 7.06453 1.96793 7.17204 1.90281 7.2395C1.8377 7.30696 1.73025 7.30884 1.66282 7.24369ZM1.19419 6.84804C1.13778 6.77314 1.15274 6.66666 1.2276 6.61022C1.30246 6.55378 1.40887 6.56874 1.46529 6.64364C1.5217 6.71854 1.50674 6.82502 1.43188 6.88146C1.35702 6.9379 1.2506 6.92294 1.19419 6.84804ZM0.792915 6.38799C0.747471 6.30597 0.777092 6.20261 0.859075 6.15714C0.941059 6.11168 1.04436 6.14131 1.0898 6.22334C1.13525 6.30537 1.10563 6.40872 1.02364 6.45419C0.94166 6.49966 0.838359 6.47002 0.792915 6.38799ZM0.465199 5.86941C0.43314 5.78128 0.478556 5.68384 0.566639 5.65176C0.654722 5.61969 0.752117 5.66513 0.784176 5.75325C0.816236 5.84138 0.77082 5.93883 0.682737 5.97091C0.594654 6.00299 0.497259 5.95754 0.465199 5.86941ZM0.220541 5.30683C0.202655 5.21477 0.262748 5.12563 0.354762 5.10774C0.446775 5.08984 0.535866 5.14997 0.553752 5.24203C0.571638 5.33409 0.511545 5.42323 0.419531 5.44113C0.327518 5.45902 0.238426 5.3989 0.220541 5.30683ZM0.0646829 4.71347C0.0614116 4.61974 0.134701 4.5411 0.22838 4.53783C0.322059 4.53456 0.400653 4.60788 0.403924 4.70161C0.407195 4.79534 0.333906 4.87398 0.240227 4.87725C0.146548 4.88052 0.0679543 4.8072 0.0646829 4.71347ZM0.0012825 4.10325C0.012706 4.01017 0.0973882 3.94397 0.190425 3.9554C0.283463 3.96683 0.349624 4.05156 0.3382 4.14464C0.326777 4.23773 0.242094 4.30393 0.149057 4.2925C0.0560199 4.28107 -0.010141 4.19634 0.0012825 4.10325ZM0.0310324 3.49338C0.055293 3.40279 0.148359 3.34903 0.238901 3.37331C0.329443 3.39758 0.383175 3.4907 0.358914 3.58129C0.334653 3.67188 0.241587 3.72564 0.151045 3.70136C0.0605034 3.67709 0.00677172 3.58397 0.0310324 3.49338ZM0.154357 2.89238C0.192483 2.8067 0.292808 2.76817 0.37844 2.80632C0.464073 2.84446 0.502584 2.94484 0.464458 3.03052C0.426332 3.1162 0.326007 3.15473 0.240375 3.11659C0.154743 3.07844 0.116231 2.97806 0.154357 2.89238ZM0.36802 2.31731C0.419072 2.23865 0.524187 2.2163 0.602801 2.26738C0.681414 2.31846 0.703757 2.42363 0.652705 2.50228C0.601653 2.58094 0.496538 2.60329 0.417924 2.55221C0.33931 2.50113 0.316968 2.39596 0.36802 2.31731ZM0.666998 1.78167C0.729719 1.71197 0.837035 1.70634 0.906695 1.7691C0.976354 1.83185 0.981978 1.93923 0.919257 2.00892C0.856535 2.07862 0.749219 2.08425 0.67956 2.02149C0.6099 1.95874 0.604276 1.85136 0.666998 1.78167ZM1.04198 1.29993C1.11378 1.23964 1.22084 1.24901 1.28109 1.32086C1.34134 1.3927 1.33198 1.49981 1.26017 1.5601C1.18837 1.62038 1.08131 1.61101 1.02106 1.53917C0.960806 1.46732 0.970172 1.36021 1.04198 1.29993ZM1.4884 0.87929C1.56875 0.830987 1.67302 0.856998 1.7213 0.937389C1.76957 1.01778 1.74358 1.12211 1.66323 1.17041C1.58288 1.21871 1.47861 1.1927 1.43033 1.11231C1.38205 1.03192 1.40805 0.927594 1.4884 0.87929ZM1.99381 0.531858C2.08072 0.496726 2.17964 0.538737 2.21476 0.625694C2.24987 0.712651 2.20788 0.811624 2.12097 0.846757C2.03406 0.88189 1.93514 0.839878 1.90003 0.752921C1.86491 0.665964 1.9069 0.566991 1.99381 0.531858ZM2.54634 0.265787C2.63767 0.24469 2.7288 0.301667 2.74989 0.39305C2.77098 0.484432 2.71403 0.575614 2.6227 0.596711C2.53136 0.617809 2.44023 0.560831 2.41914 0.469449C2.39806 0.378067 2.455 0.286885 2.54634 0.265787ZM3.133 0.0873231C3.2265 0.0807809 3.30761 0.151321 3.31415 0.244878C3.32069 0.338436 3.25018 0.419582 3.15668 0.426124C3.06317 0.432667 2.98206 0.362127 2.97553 0.268569C2.96899 0.175012 3.03949 0.0938652 3.133 0.0873231ZM3.73705 0.000420667C3.83056 0.00696284 3.90106 0.0881096 3.89453 0.181667C3.88799 0.275225 3.80688 0.345764 3.71338 0.339222C3.61987 0.33268 3.54937 0.251533 3.55591 0.157976C3.56244 0.0644183 3.64355 -0.00612151 3.73705 0.000420667ZM4.35023 0.00711728C4.44157 0.0282145 4.49851 0.119397 4.47743 0.210779C4.45634 0.302161 4.36521 0.359139 4.27387 0.338041C4.18254 0.316944 4.12559 0.225762 4.14668 0.134379C4.16776 0.0429972 4.2589 -0.01398 4.35023 0.00711728ZM4.95517 0.107484C5.04208 0.142616 5.08407 0.24159 5.04896 0.328546C5.01384 0.415503 4.91492 0.457515 4.82801 0.422382C4.7411 0.387249 4.69911 0.288276 4.73423 0.201319C4.76934 0.114362 4.86826 0.0723508 4.95517 0.107484ZM5.53766 0.299158C5.61801 0.347461 5.64401 0.451788 5.59573 0.532178C5.54745 0.612568 5.44318 0.63858 5.36283 0.590276C5.28248 0.541973 5.25649 0.437646 5.30476 0.357256C5.35304 0.276866 5.45731 0.250854 5.53766 0.299158ZM6.08402 0.577633C6.15583 0.637917 6.16519 0.745029 6.10494 0.816873C6.04469 0.888717 5.93764 0.898088 5.86583 0.837803C5.79402 0.777519 5.78466 0.670408 5.84491 0.598564C5.90516 0.52672 6.01222 0.517348 6.08402 0.577633ZM6.57946 0.934144C6.64218 1.00384 6.63656 1.11121 6.5669 1.17397C6.49724 1.23672 6.38992 1.2311 6.3272 1.1614C6.26448 1.0917 6.2701 0.98433 6.33976 0.921575C6.40942 0.85882 6.51674 0.864447 6.57946 0.934144ZM7.01659 1.36442C7.06764 1.44308 7.0453 1.54825 6.96669 1.59933C6.88807 1.65041 6.78296 1.62805 6.7319 1.54939C6.68085 1.47074 6.7032 1.36557 6.78181 1.31449C6.86042 1.26341 6.96554 1.28576 7.01659 1.36442ZM7.38286 1.85646C7.42099 1.94214 7.38248 2.04252 7.29684 2.08067C7.21121 2.11881 7.11089 2.08028 7.07276 1.9946C7.03463 1.90893 7.07315 1.80855 7.15878 1.7704C7.24441 1.73226 7.34474 1.77079 7.38286 1.85646ZM7.66967 2.39872C7.69393 2.48931 7.6402 2.58242 7.54966 2.6067C7.45912 2.63097 7.36605 2.57721 7.34179 2.48662C7.31753 2.39603 7.37126 2.30292 7.4618 2.27864C7.55235 2.25437 7.64541 2.30813 7.66967 2.39872ZM7.86996 2.9755C7.88138 3.06858 7.81522 3.15331 7.72218 3.16474C7.62915 3.17617 7.54446 3.10997 7.53304 3.01689C7.52162 2.9238 7.58778 2.83907 7.68081 2.82764C7.77385 2.81621 7.85853 2.88241 7.86996 2.9755ZM7.98014 3.57905C7.97687 3.67278 7.89828 3.74611 7.8046 3.74284C7.71092 3.73956 7.63763 3.66093 7.6409 3.5672C7.64417 3.47347 7.72277 3.40014 7.81644 3.40341C7.91012 3.40669 7.98341 3.48532 7.98014 3.57905ZM7.99685 4.19235C7.97896 4.28441 7.88987 4.34454 7.79786 4.32664C7.70585 4.30875 7.64575 4.21961 7.66364 4.12755C7.68152 4.03548 7.77062 3.97536 7.86263 3.99326C7.95464 4.01115 8.01474 4.10029 7.99685 4.19235ZM7.91969 4.80099C7.88763 4.88912 7.79024 4.93456 7.70216 4.90248C7.61407 4.87041 7.56866 4.77296 7.60072 4.68483C7.63278 4.5967 7.73017 4.55126 7.81825 4.58333C7.90634 4.61541 7.95175 4.71286 7.91969 4.80099ZM7.75049 5.39067C7.70505 5.47269 7.60175 5.50233 7.51976 5.45686C7.43778 5.41139 7.40816 5.30804 7.4536 5.22601C7.49905 5.14398 7.60235 5.11435 7.68433 5.15982C7.76631 5.20528 7.79594 5.30864 7.75049 5.39067ZM7.49502 5.94518C7.43861 6.02008 7.33219 6.03505 7.25733 5.97861C7.18247 5.92216 7.16752 5.81569 7.22393 5.74079C7.28034 5.66589 7.38676 5.65092 7.46162 5.70737C7.53648 5.76381 7.55143 5.87028 7.49502 5.94518ZM7.15608 6.45647C7.08865 6.52162 6.9812 6.51975 6.91609 6.45228C6.85097 6.38482 6.85285 6.27731 6.92028 6.21216C6.9877 6.14702 7.09515 6.14889 7.16027 6.21636C7.22538 6.28382 7.2235 6.39132 7.15608 6.45647ZM6.74303 6.90993C6.66625 6.96372 6.56042 6.94505 6.50665 6.86822C6.45289 6.7914 6.47155 6.68551 6.54833 6.63172C6.62512 6.57793 6.73095 6.5966 6.78471 6.67342C6.83848 6.75025 6.81982 6.85613 6.74303 6.90993ZM6.26559 7.29489C6.18134 7.33601 6.07973 7.301 6.03864 7.21671C5.99755 7.13241 6.03254 7.03075 6.11679 6.98964C6.20104 6.94852 6.30265 6.98353 6.34374 7.06782C6.38483 7.15212 6.34984 7.25378 6.26559 7.29489ZM5.7378 7.60144C5.64865 7.63042 5.5529 7.58161 5.52394 7.49241C5.49497 7.40322 5.54376 7.30742 5.63291 7.27843C5.72205 7.24945 5.81781 7.29827 5.84677 7.38746C5.87574 7.47666 5.82695 7.57246 5.7378 7.60144ZM5.16658 7.82459C5.074 7.83926 4.98706 7.77606 4.9724 7.68343C4.95773 7.5908 5.0209 7.50381 5.11348 7.48914C5.20606 7.47447 5.293 7.53767 5.30767 7.6303C5.32233 7.72293 5.25916 7.80992 5.16658 7.82459Z" fill="white" fill-opacity="0.95"/>
</svg>
