<svg width="47" height="52" viewBox="0 0 47 52" fill="none" xmlns="http://www.w3.org/2000/svg">
<g filter="url(#filter0_d)">
<path d="M36.88 24.3199C36.1434 23.3568 34.6057 22.8201 32.9704 23.9204C32.0803 24.5184 30.9703 25.3952 29.8967 26.243C28.3289 27.4809 25.9562 29.3992 25.373 29.3338C25.2155 29.3161 25.0169 28.941 25.4242 26.8562L28.3255 12.0073C28.6283 10.4577 27.5141 9.37185 26.3122 9.137C25.888 9.05412 25.4682 9.08434 25.0858 9.20863C25.2632 7.95749 24.4721 6.91277 23.1072 6.64608C21.7617 6.38318 20.2046 6.97233 19.8937 8.40807C19.4822 8.028 18.9546 7.76804 18.4102 7.66167C17.7561 7.53386 17.1055 7.61646 16.578 7.89453C15.9624 8.21855 15.5451 8.79759 15.4031 9.5242L14.9719 11.7313C14.6239 11.469 14.2001 11.2857 13.7584 11.1994C12.5481 10.9629 11.1853 11.4269 10.9225 12.7719L9.08669 22.1673L7.3968 30.8162C6.7054 34.3547 7.86965 38.3012 11.4324 38.9974L17.5633 40.1953C21.5187 40.9681 25.3732 37.8562 26.6398 36.8337C27.5634 36.0881 29.7353 34.0716 31.8357 32.1213C33.5711 30.5101 35.3657 28.8438 36.3399 28.0045C37.6688 26.8596 37.6176 25.2842 36.88 24.3199ZM35.5753 27.1196C34.5846 27.9732 32.8622 29.5724 31.0388 31.2654C28.9528 33.2021 26.7963 35.2046 25.9039 35.9249C24.7423 36.8627 21.2071 39.7168 17.7873 39.0486L11.6564 37.8507C8.272 37.1894 8.14142 33.1069 8.54516 31.0406L10.2351 22.3917L12.0708 12.9962C12.2102 12.2828 13.0892 12.259 13.5344 12.346C14.0057 12.4381 14.7662 12.7838 14.6271 13.4957L12.7913 22.8912C12.7295 23.2078 12.9365 23.5148 13.2535 23.5767C13.5705 23.6387 13.8779 23.4321 13.9397 23.1156L16.5515 9.74858C16.6264 9.36486 16.8192 9.08865 17.1242 8.92786C17.9739 8.48088 19.7633 9.0621 19.4919 10.45L16.8801 23.8172C16.8182 24.1338 17.0252 24.4408 17.3422 24.5028C17.6593 24.5647 17.9666 24.3582 18.0284 24.0416L21.0305 8.67728C21.1923 7.84926 22.2111 7.66146 22.8832 7.79277C23.1767 7.85013 24.12 8.11536 23.9245 9.11561C23.6387 10.5784 23.6189 10.6801 23.5422 11.0727L23.5348 11.1101L20.8885 24.6538C20.8267 24.9703 21.0337 25.2774 21.3507 25.3393C21.6677 25.4012 21.9751 25.1947 22.0369 24.8782L24.6832 11.3344L24.6905 11.297C24.7719 10.8804 24.9526 10.5835 25.2272 10.414C25.4644 10.2679 25.77 10.2215 26.0881 10.2837C26.623 10.3882 27.3548 10.8738 27.1772 11.7829L24.2758 26.6318C24.017 27.9568 23.5836 30.1746 25.149 30.4804C26.0695 30.6603 27.5237 29.6066 30.6226 27.1594C31.679 26.3255 32.7711 25.4629 33.6238 24.8897C34.6374 24.209 35.5221 24.4685 35.9504 25.0287C36.3561 25.5592 36.3974 26.4113 35.5753 27.1196Z" fill="white"/>
<path d="M22.5125 29.6867C18.7822 28.9578 16.7486 32.3339 16.1404 35.4466C16.0785 35.7631 16.2855 36.0702 16.6025 36.1321C16.9196 36.1941 17.2269 35.9875 17.2887 35.671C17.4715 34.7358 18.5714 30.1071 22.2884 30.8333C22.6054 30.8953 22.9128 30.6888 22.9746 30.3722C23.0365 30.0556 22.8295 29.7486 22.5125 29.6867Z" fill="white"/>
<path d="M22.0489 28.4171C22.1108 28.1004 21.9039 27.7932 21.5869 27.7312L14.8 26.4052C14.483 26.3432 14.1756 26.5499 14.1137 26.8666C14.0519 27.1834 14.2588 27.4906 14.5758 27.5525L21.3627 28.8786C21.6797 28.9405 21.9871 28.7338 22.0489 28.4171Z" fill="white"/>
<path d="M13.2884 26.1092L11.9143 25.8407C11.5972 25.7788 11.2899 25.9854 11.228 26.3022C11.1661 26.6189 11.3731 26.9261 11.6901 26.9881L13.0642 27.2565C13.3813 27.3185 13.6886 27.1118 13.7505 26.7951C13.8124 26.4783 13.6054 26.1711 13.2884 26.1092Z" fill="white"/>
</g>
<defs>
<filter id="filter0_d" x="0.00537109" y="0.578125" width="46.5273" height="50.8316" filterUnits="userSpaceOnUse" color-interpolation-filters="sRGB">
<feFlood flood-opacity="0" result="BackgroundImageFix"/>
<feColorMatrix in="SourceAlpha" type="matrix" values="0 0 0 0 0 0 0 0 0 0 0 0 0 0 0 0 0 0 127 0" result="hardAlpha"/>
<feOffset dy="2"/>
<feGaussianBlur stdDeviation="3"/>
<feColorMatrix type="matrix" values="0 0 0 0 0.870938 0 0 0 0 1 0 0 0 0 0.508333 0 0 0 1 0"/>
<feBlend mode="normal" in2="BackgroundImageFix" result="effect1_dropShadow"/>
<feBlend mode="normal" in="SourceGraphic" in2="effect1_dropShadow" result="shape"/>
</filter>
</defs>
</svg>
