<svg width="26" height="26" viewBox="0 0 26 26" fill="none" xmlns="http://www.w3.org/2000/svg">
<rect x="25" y="25" width="23" height="24" rx="10" transform="rotate(-180 25 25)" fill="url(#paint0_linear)" fill-opacity="0.8"/>
<circle cx="13" cy="13" r="12.5" transform="rotate(-180 13 13)" stroke="url(#paint1_linear)"/>
<circle cx="13" cy="13" r="12" transform="rotate(-180 13 13)" fill="#0F2735"/>
<rect x="11" y="6" width="4" height="14" rx="2" fill="#92FFD1"/>
<rect x="11" y="6" width="4" height="14" rx="2" fill="#92FFD1"/>
<rect x="11" y="6" width="4" height="14" rx="2" fill="#92FFD1"/>
<rect x="6" y="15" width="4" height="14" rx="2" transform="rotate(-90 6 15)" fill="#92FFD1"/>
<rect x="6" y="15" width="4" height="14" rx="2" transform="rotate(-90 6 15)" fill="#92FFD1"/>
<rect x="6" y="15" width="4" height="14" rx="2" transform="rotate(-90 6 15)" fill="#92FFD1"/>
<defs>
<linearGradient id="paint0_linear" x1="36.5" y1="25" x2="36.5" y2="49" gradientUnits="userSpaceOnUse">
<stop stop-color="#044E7A"/>
<stop offset="1" stop-color="#044E7A"/>
</linearGradient>
<linearGradient id="paint1_linear" x1="13" y1="1" x2="13" y2="25" gradientUnits="userSpaceOnUse">
<stop stop-color="#071C28"/>
<stop offset="1" stop-color="#071C28"/>
</linearGradient>
</defs>
</svg>
