<svg width="21" height="13" viewBox="0 0 21 13" fill="none" xmlns="http://www.w3.org/2000/svg">
<path d="M21 1.97475C21 0.905094 20.0375 0 18.9 0H2.1C0.9625 0 0 0.905094 0 1.97475V3.20897H21V1.97475Z" fill="#7CE7BC"/>
<path d="M2.1 12.9999H18.9C20.0375 12.9999 21 12.0948 21 11.0251V5.92368H0V11.0251C0 12.0948 0.9625 12.9999 2.1 12.9999ZM12.8625 8.30983H17.5C18.025 8.30983 18.4625 8.72124 18.4625 9.21493C18.4625 9.70861 18.025 10.12 17.5 10.12H12.8625C12.3375 10.12 11.9 9.70861 11.9 9.21493C11.8125 8.72124 12.25 8.30983 12.8625 8.30983ZM6.3875 7.98071C7.35 7.98071 8.1375 8.72124 8.1375 9.62633C8.1375 10.5314 7.35 11.272 6.3875 11.272C5.425 11.272 4.6375 10.5314 4.6375 9.62633C4.6375 8.72124 5.425 7.98071 6.3875 7.98071ZM3.4125 7.98071C3.7625 7.98071 4.025 8.06299 4.2875 8.22755C4.025 8.63896 3.85 9.13265 3.85 9.62633C3.85 10.12 4.025 10.6137 4.2875 11.0251C4.025 11.1897 3.7625 11.272 3.4125 11.272C2.45 11.272 1.6625 10.5314 1.6625 9.62633C1.6625 8.72124 2.45 7.98071 3.4125 7.98071Z" fill="#7CE7BC"/>
</svg>
