<svg width="199" height="27" viewBox="0 0 199 27" fill="none" xmlns="http://www.w3.org/2000/svg">
<g opacity="0.9">
<path d="M0.940382 18.3002C0.778054 18.1383 0.638117 17.982 0.520569 17.8313C0.403021 17.6751 0.305064 17.5132 0.226699 17.3458C0.148334 17.1783 0.0895602 16.9997 0.0503776 16.81C0.0167925 16.6146 0 16.4025 0 16.1737H5.53314C5.53314 16.609 5.83541 16.9132 6.43994 17.0862C7.04447 17.2537 7.92888 17.3374 9.09316 17.3374H9.19392C9.80404 17.3374 10.3134 17.3151 10.722 17.2704C11.1307 17.2258 11.4581 17.1672 11.7044 17.0946C11.9507 17.022 12.1242 16.9383 12.225 16.8434C12.3313 16.743 12.3873 16.6425 12.3929 16.5421C12.3929 16.369 12.3257 16.2323 12.1914 16.1318C12.0514 16.0258 11.7548 15.9365 11.3014 15.8639C11.0663 15.8248 10.7752 15.7886 10.4282 15.7551C10.0811 15.716 9.6697 15.6742 9.19392 15.6295C9.0036 15.6128 8.81608 15.596 8.63137 15.5793C8.45225 15.5625 8.27313 15.5458 8.094 15.529C6.85695 15.423 5.77663 15.3169 4.85304 15.2109C3.92945 15.0993 3.18778 14.9597 2.62803 14.7923C1.81639 14.5132 1.23145 14.103 0.873212 13.5616C0.509374 13.0091 0.363838 12.3979 0.436606 11.7281C0.548556 10.9412 0.892803 10.2965 1.46935 9.79421C2.05149 9.2863 2.71479 8.92072 3.45926 8.69747C4.31009 8.42957 5.1861 8.25654 6.0873 8.17841C6.99409 8.09469 7.89249 8.05283 8.7825 8.05283C9.16313 8.05283 9.58014 8.06399 10.0335 8.08631C10.4869 8.10864 10.9515 8.1505 11.4273 8.21189C11.9031 8.26771 12.3817 8.34585 12.8631 8.44631C13.3445 8.54677 13.8035 8.67794 14.2401 8.8398C14.6823 9.00165 15.0937 9.197 15.4743 9.42584C15.855 9.65467 16.1824 9.92258 16.4567 10.2296C16.9885 10.8268 17.2767 11.3626 17.3215 11.837H11.7884C11.7884 11.7254 11.724 11.6305 11.5952 11.5523C11.4665 11.4742 11.3014 11.41 11.0999 11.3598C10.904 11.304 10.6857 11.2621 10.445 11.2342C10.2043 11.2063 9.97197 11.184 9.74807 11.1672C9.52977 11.1505 9.33106 11.1421 9.15193 11.1421C8.97841 11.1365 8.85527 11.1337 8.7825 11.1337C7.94287 11.1337 7.28796 11.184 6.81777 11.2844C6.34758 11.3793 6.11248 11.5384 6.11248 11.7616C6.11248 11.8788 6.17126 11.9681 6.28881 12.0295C6.41195 12.0853 6.59107 12.1244 6.82617 12.1467C7.36913 12.2026 7.91768 12.2584 8.47184 12.3142C9.02599 12.3644 9.59134 12.4119 10.1679 12.4565C10.9795 12.5179 11.7464 12.5877 12.4685 12.6658C13.1905 12.7384 13.8734 12.8137 14.5172 12.8919C15.6926 13.037 16.5742 13.3663 17.162 13.8797C17.7553 14.3877 18.038 15.1356 18.01 16.1235C17.9484 17.1058 17.607 17.8872 16.9857 18.4676C16.3531 19.0481 15.6451 19.4667 14.8614 19.7234C13.977 20.0192 13.017 20.209 11.9815 20.2927C11.4553 20.3318 10.9515 20.3597 10.4701 20.3764C9.99436 20.3988 9.53536 20.4099 9.09316 20.4099C8.42146 20.4099 7.71337 20.3904 6.9689 20.3513C6.22443 20.3178 5.48836 20.2285 4.76069 20.0834C4.03301 19.9383 3.33892 19.7262 2.67841 19.4471C2.0179 19.1681 1.43856 18.7858 0.940382 18.3002Z" fill="white" fill-opacity="0.95"/>
<path d="M19.3954 8.45468H24.0889V14.809C24.0889 15.9197 24.7074 16.5979 25.9445 16.8434C26.4091 16.9327 27.106 16.9774 28.0351 16.9774C28.3038 16.9774 28.5865 16.9746 28.8832 16.969C29.1854 16.9579 29.4821 16.9327 29.7732 16.8937C30.0698 16.8546 30.3497 16.7932 30.6128 16.7095C30.8815 16.6202 31.1166 16.4974 31.3181 16.3411C31.5252 16.1793 31.6875 15.9755 31.8051 15.73C31.9282 15.4844 31.987 15.1802 31.9814 14.8174V8.45468H36.6749V15.3197C36.6749 17.7644 35.3819 19.3104 32.7958 19.9578C31.6036 20.2592 30.0167 20.4099 28.0351 20.4099C27.4194 20.4099 26.7785 20.396 26.1124 20.3681C25.4463 20.3402 24.7914 20.2704 24.1477 20.1588C23.5096 20.0471 22.9022 19.8825 22.3257 19.6648C21.7491 19.4471 21.2426 19.1513 20.806 18.7774C20.375 18.3978 20.0307 17.9262 19.7732 17.3625C19.5213 16.7988 19.3954 16.1179 19.3954 15.3197V8.45468Z" fill="white" fill-opacity="0.95"/>
<path d="M39.1938 8.45468H51.1249C51.6567 8.45468 52.1884 8.49933 52.7202 8.58863C53.2575 8.67236 53.7557 8.82305 54.2147 9.04072C54.6793 9.2584 55.0851 9.55421 55.4322 9.92816C55.7792 10.3021 56.0311 10.7765 56.1878 11.3514C56.3166 11.837 56.381 12.3839 56.381 12.9923C56.381 13.3551 56.3586 13.7039 56.3138 14.0388C56.269 14.3737 56.1878 14.6946 56.0703 15.0016C55.9527 15.303 55.7932 15.5876 55.5917 15.8555C55.3958 16.1179 55.1411 16.3634 54.8276 16.5923C53.9656 17.223 52.7314 17.5383 51.1249 17.5383H43.8873V20.0081H39.1938V8.45468ZM43.8873 14.0053H50.0418C50.7695 14.0053 51.248 13.8825 51.4775 13.637C51.6119 13.4863 51.679 13.2714 51.679 12.9923C51.679 12.7579 51.6287 12.5737 51.5279 12.4398C51.4328 12.3058 51.3068 12.2053 51.1501 12.1384C50.9933 12.0714 50.817 12.0295 50.6211 12.0128C50.4252 11.996 50.2321 11.9877 50.0418 11.9877H43.8873V14.0053Z" fill="white" fill-opacity="0.95"/>
<path d="M74.4077 8.45468V11.837H62.7285V12.9253H73.7696V15.4704H62.7285V16.6174H74.5421V20.0081H58.035V8.45468H74.4077Z" fill="white" fill-opacity="0.95"/>
<path d="M76.6244 20.0081V8.45468H89.1096C89.7197 8.45468 90.3075 8.50771 90.8728 8.61375C91.4438 8.71422 91.9476 8.89561 92.3842 9.15793C92.8264 9.42026 93.179 9.78025 93.4421 10.2379C93.7052 10.69 93.8367 11.2649 93.8367 11.9626C93.8367 13.2965 93.207 14.2621 91.9476 14.8593C93.0391 15.2946 93.6016 16.0174 93.6352 17.0276C93.6688 18.0323 93.7612 18.7411 93.9123 19.1541C94.0522 19.5616 94.2425 19.8462 94.4832 20.0081H89.0928C88.9641 19.9076 88.8745 19.7736 88.8241 19.6062C88.7794 19.4388 88.7514 19.2546 88.7402 19.0537C88.729 18.8527 88.7206 18.6434 88.715 18.4258C88.715 18.2081 88.6954 17.9988 88.6562 17.7979C88.5891 17.4016 88.3903 17.1532 88.0601 17.0527C87.7354 16.9523 87.2596 16.902 86.6327 16.902H81.3179V20.0081H76.6244ZM81.3179 13.5114H87.4807C87.811 13.5114 88.0825 13.4835 88.2952 13.4277C88.5079 13.3663 88.673 13.2937 88.7906 13.21C88.9137 13.1207 88.9977 13.0286 89.0424 12.9337C89.0872 12.8332 89.1096 12.7467 89.1096 12.6742C89.1096 12.4677 89.0536 12.3086 88.9417 12.197C88.8297 12.0798 88.6898 11.996 88.5219 11.9458C88.3596 11.89 88.1832 11.8593 87.9929 11.8537C87.8026 11.8426 87.6319 11.837 87.4807 11.837H81.3179V13.5114Z" fill="white" fill-opacity="0.95"/>
<path d="M95.835 8.45468H101.637L108.421 15.2695V8.45468H113.115V20.0081H107.304L100.529 13.1849V20.0081H95.835V8.45468Z" fill="white" fill-opacity="0.95"/>
<path d="M162.317 20.0081L157.615 8.45468H162.728L165.323 15.8723L167.598 8.45468H172.182L174.458 15.8723L177.044 8.45468H182.165L177.455 20.0081H171.838L169.89 13.4025L167.934 20.0081H162.317Z" fill="white" fill-opacity="0.95"/>
<path d="M184.676 20.0081H178.975L186.011 8.44631H191.972L199 20.0081H193.299L192.518 18.5262H185.465L184.676 20.0081ZM187.254 15.1356H190.73L188.992 11.8453L187.254 15.1356Z" fill="white" fill-opacity="0.95"/>
<path d="M118.453 19.2931C117.647 18.9729 117.769 18.191 118.688 17.7895L139.106 8.87006C139.612 8.64876 140.234 8.60824 140.699 8.7662L152.956 12.925C153.809 13.2142 153.752 14.0012 152.848 14.4284L132.449 24.0652C131.907 24.3211 131.216 24.3629 130.729 24.1693L118.453 19.2931Z" fill="#88FFCD"/>
<path d="M118.453 14.0496C117.647 13.7293 117.769 12.9474 118.688 12.5459L139.106 3.6265C139.612 3.40519 140.234 3.36468 140.699 3.52264L152.956 7.68144C153.809 7.97065 153.752 8.75766 152.848 9.18483L132.449 18.8216C131.907 19.0776 131.216 19.1194 130.729 18.9257L118.453 14.0496Z" fill="#0F1320"/>
<path fill-rule="evenodd" clip-rule="evenodd" d="M139.82 4.33915L119.402 13.2586L131.678 18.1348L152.077 8.49796L139.82 4.33915ZM118.688 12.5459C117.769 12.9474 117.647 13.7293 118.453 14.0496L130.729 18.9257C131.216 19.1194 131.907 19.0776 132.449 18.8216L152.848 9.18483C153.752 8.75766 153.809 7.97065 152.956 7.68144L140.699 3.52264C140.234 3.36468 139.612 3.40519 139.106 3.6265L118.688 12.5459Z" fill="#88FFCD"/>
</g>
</svg>
