<svg width="137" height="21" viewBox="0 0 137 21" fill="none" xmlns="http://www.w3.org/2000/svg">
<g clip-path="url(#clip0)">
<path d="M8.89937 10.7179H0L9.39378 29.9999H18.2932L8.89937 10.7179Z" fill="#0B92D2"/>
<path d="M27.1925 5.77383H18.2932L28.3461 29.9999H37.2455L27.1925 5.77383Z" fill="#137BC0"/>
<path d="M18.2932 5.77383H27.1925L18.2932 29.9999H9.39379L18.2932 5.77383Z" fill="#0E763F"/>
<path fill-rule="evenodd" clip-rule="evenodd" d="M13.2195 19.5854L9.3938 29.9998H18.2932L13.2195 19.5854Z" fill="#FFD100"/>
<path fill-rule="evenodd" clip-rule="evenodd" d="M9.3938 29.9998H18.2932L13.2195 19.5854L9.3938 29.9998Z" fill="#FFD100"/>
<path d="M38.3991 0.500122H47.2985L37.0807 29.9999H28.1813L38.3991 0.500122Z" fill="#E20613"/>
<path fill-rule="evenodd" clip-rule="evenodd" d="M32.3051 18.0943L28.2563 29.7835L28.3461 30H37.2455L37.1557 29.7835L32.3051 18.0943Z" fill="#0E4B9C"/>
<path fill-rule="evenodd" clip-rule="evenodd" d="M37.0807 30L37.1557 29.7835L32.3051 18.0943L28.2563 29.7835L28.1813 30H37.0807Z" fill="#0E4B9C"/>
<path d="M45.3204 9.1728H40.2815V6.4624H54.0035V9.1728H48.9646V20.8357H45.3204V9.1728Z" fill="white"/>
<path d="M60.2454 21C58.9707 21 57.8234 20.7604 56.8036 20.2813C55.7989 19.7885 55.0115 19.1109 54.4417 18.2485C53.8718 17.3861 53.5868 16.4074 53.5868 15.3123C53.5868 14.2172 53.8718 13.2384 54.4417 12.376C55.0115 11.5136 55.7989 10.8428 56.8036 10.3637C57.8234 9.87093 58.9707 9.62453 60.2454 9.62453C61.5201 9.62453 62.6599 9.87093 63.6647 10.3637C64.6694 10.8428 65.4568 11.5136 66.0266 12.376C66.5965 13.2384 66.8815 14.2172 66.8815 15.3123C66.8815 16.4074 66.5965 17.3861 66.0266 18.2485C65.4568 19.1109 64.6694 19.7885 63.6647 20.2813C62.6599 20.7604 61.5201 21 60.2454 21ZM60.2454 18.3717C61.1452 18.3717 61.88 18.098 62.4499 17.5504C63.0348 16.9892 63.3272 16.2431 63.3272 15.3123C63.3272 14.3814 63.0348 13.6422 62.4499 13.0947C61.88 12.5334 61.1452 12.2528 60.2454 12.2528C59.3456 12.2528 58.6033 12.5334 58.0184 13.0947C57.4335 13.6422 57.1411 14.3814 57.1411 15.3123C57.1411 16.2431 57.4335 16.9892 58.0184 17.5504C58.6033 18.098 59.3456 18.3717 60.2454 18.3717Z" fill="white"/>
<path d="M74.4235 16.5032L72.7363 18.0227V20.8357H69.2271V5.6H72.7363V14.224L77.8652 9.7888H82.0493L77.0104 14.4704L82.4992 20.8357H78.2476L74.4235 16.5032Z" fill="white"/>
<path d="M91.3454 9.62453C92.8451 9.62453 94.0523 10.0352 94.9671 10.8565C95.8969 11.6779 96.3618 12.8962 96.3618 14.5115V20.8357H92.8526V15.0043C92.8526 14.1282 92.6426 13.478 92.2227 13.0536C91.8028 12.6156 91.1954 12.3965 90.4006 12.3965C89.5158 12.3965 88.8109 12.6498 88.2861 13.1563C87.7612 13.6491 87.4987 14.3883 87.4987 15.3739V20.8357H83.9895V9.7888H87.3413V11.0824C87.8062 10.617 88.3835 10.2611 89.0734 10.0147C89.7632 9.75458 90.5206 9.62453 91.3454 9.62453Z" fill="white"/>
<path d="M111.529 15.3533C111.529 15.3944 111.507 15.6819 111.462 16.2157H102.306C102.471 16.9002 102.861 17.4409 103.476 17.8379C104.091 18.2348 104.856 18.4333 105.771 18.4333C106.401 18.4333 106.955 18.3512 107.435 18.1869C107.93 18.009 108.388 17.7352 108.808 17.3656L110.675 19.2136C109.535 20.4045 107.87 21 105.681 21C104.316 21 103.109 20.7604 102.059 20.2813C101.009 19.7885 100.199 19.1109 99.6296 18.2485C99.0597 17.3861 98.7747 16.4074 98.7747 15.3123C98.7747 14.2308 99.0522 13.2589 99.6071 12.3965C100.177 11.5204 100.949 10.8428 101.924 10.3637C102.914 9.87093 104.016 9.62453 105.231 9.62453C106.416 9.62453 107.488 9.85724 108.448 10.3227C109.407 10.7881 110.157 11.4588 110.697 12.3349C111.252 13.1973 111.529 14.2035 111.529 15.3533ZM105.253 12.0475C104.459 12.0475 103.791 12.2528 103.251 12.6635C102.711 13.0741 102.381 13.6354 102.261 14.3472H108.223C108.103 13.6491 107.773 13.0947 107.233 12.684C106.693 12.2596 106.033 12.0475 105.253 12.0475Z" fill="white"/>
<path d="M117.218 11.2467C117.637 10.7128 118.2 10.309 118.905 10.0352C119.625 9.76142 120.449 9.62453 121.379 9.62453V12.5813C120.989 12.554 120.727 12.5403 120.592 12.5403C119.587 12.5403 118.8 12.8004 118.23 13.3205C117.66 13.827 117.375 14.5936 117.375 15.6203V20.8357H113.866V9.7888H117.218V11.2467Z" fill="white"/>
<path d="M127.581 21C126.577 21 125.594 20.8905 124.634 20.6715C123.675 20.4388 122.91 20.1513 122.34 19.8091L123.51 17.5093C124.05 17.8242 124.702 18.0843 125.467 18.2896C126.232 18.4812 126.981 18.5771 127.716 18.5771C129.201 18.5771 129.943 18.2417 129.943 17.5709C129.943 17.2561 129.741 17.0302 129.336 16.8933C128.931 16.7564 128.309 16.6401 127.469 16.5443C126.479 16.4074 125.662 16.25 125.017 16.072C124.372 15.894 123.81 15.5792 123.33 15.1275C122.865 14.6757 122.632 14.0324 122.632 13.1973C122.632 12.4992 122.85 11.8832 123.285 11.3493C123.735 10.8018 124.38 10.3774 125.219 10.0763C126.074 9.77511 127.079 9.62453 128.234 9.62453C129.088 9.62453 129.936 9.71351 130.776 9.89147C131.63 10.0557 132.335 10.2884 132.89 10.5896L131.72 12.8688C130.656 12.3212 129.493 12.0475 128.234 12.0475C127.484 12.0475 126.921 12.1433 126.547 12.3349C126.172 12.5266 125.984 12.773 125.984 13.0741C125.984 13.4164 126.187 13.6559 126.592 13.7928C126.996 13.9297 127.641 14.0597 128.526 14.1829C129.516 14.3335 130.326 14.4978 130.956 14.6757C131.585 14.84 132.133 15.148 132.598 15.5997C133.063 16.0515 133.295 16.6812 133.295 17.4888C133.295 18.1732 133.07 18.7824 132.62 19.3163C132.17 19.8501 131.51 20.2676 130.641 20.5688C129.786 20.8563 128.766 21 127.581 21Z" fill="white"/>
</g>
<defs>
<clipPath id="clip0">
<rect width="137" height="21" fill="white"/>
</clipPath>
</defs>
</svg>
