<svg width="47" height="47" viewBox="0 0 47 47" fill="none" xmlns="http://www.w3.org/2000/svg">
<g filter="url(#filter0_d)">
<path d="M37.145 26.9041C37.5576 25.3246 37.4674 24.034 36.8775 23.0685C36.8431 23.0122 36.803 22.9558 36.7654 22.8994L36.9839 22.3339C36.984 22.3334 36.9841 22.3329 36.9842 22.3324L39.7076 15.2803C40.3468 13.6258 39.3008 11.8945 37.1639 11.0702C35.5814 10.4594 33.7017 10.5751 32.7701 11.8303C32.7165 11.167 32.4229 10.5426 31.8933 10.0161C30.8336 8.96266 29.0127 8.48257 27.5625 8.87389C26.496 9.16166 25.7614 9.87491 25.4939 10.882L25.4595 11.0116C25.067 9.94172 23.9365 9.10518 22.3495 8.8141C20.679 8.5096 18.8461 8.98354 18.2387 10.4196C17.696 9.78743 16.7892 9.33869 15.6479 9.1963C13.6003 8.94219 12.0401 9.81362 11.8542 11.3155L10.8591 19.3537C10.8398 19.5102 10.8379 19.6634 10.8498 19.8132C10.7904 19.8918 10.7454 19.9831 10.7207 20.0849L10.4394 21.2468C10.1019 22.6405 9.22064 27.458 12.0499 30.9399C13.2241 32.3846 14.854 33.3609 16.9203 33.8613C18.081 34.1423 19.3814 34.271 20.8135 34.2504C21.2761 34.6626 21.8496 34.9545 22.5311 35.1195L22.8484 35.1967C22.9619 35.2242 23.0775 35.2526 23.1962 35.2813C25.5688 35.8558 28.9521 36.585 31.4728 35.1705C33.3376 34.124 36.2833 30.2036 37.145 26.9041ZM33.8824 13.0334C34.2649 12.043 35.718 12.1909 36.5996 12.531C37.3483 12.8197 38.6546 13.6472 38.2459 14.7133C38.2436 14.7184 38.2416 14.7237 38.2397 14.7289L35.5932 21.5823C34.6307 20.7178 33.2895 19.8525 31.5822 18.9934L33.8824 13.0334ZM26.4559 13.2513C26.456 13.251 26.4561 13.2506 26.4562 13.2501L26.9803 11.2765C27.1045 10.8087 27.4355 10.4992 27.9645 10.3566C28.8871 10.1075 30.1368 10.4357 30.8085 11.104C31.1991 11.4922 31.327 11.9148 31.1988 12.3978L31.1972 12.4029C31.1965 12.4058 31.1958 12.4087 31.1951 12.4116L29.6948 18.1116C28.1903 17.4579 26.7419 16.9596 25.5454 16.6815L26.4559 13.2513ZM22.0723 10.336C22.9585 10.4996 24.2152 11.0851 24.0487 12.0408C23.7294 13.8753 23.6083 14.7122 23.4251 15.9791L23.3564 16.4523C21.2016 16.6225 19.8666 18.1772 19.6238 19.8514C19.5055 20.668 19.65 21.53 20.067 22.2502C19.3972 22.2535 18.7146 22.0151 18.2714 21.5918C17.8729 21.2117 17.726 20.7442 17.8346 20.2019L19.3824 12.4765C19.3947 12.4149 19.3973 12.3541 19.3949 12.294C19.4688 11.912 19.5382 11.5509 19.6003 11.2248C19.7812 10.275 21.1776 10.1728 22.0723 10.336ZM12.2183 19.5109L13.0031 13.1716C13.0034 13.1681 13.0039 13.1647 13.0043 13.161L13.2119 11.484C13.3081 10.7077 14.4522 10.4246 15.48 10.5522C16.3208 10.6562 17.5331 11.13 17.4246 12.007L17.4239 12.0131C17.4237 12.015 17.4234 12.0169 17.4231 12.0188L16.6634 18.1552C16.5982 18.4831 16.559 18.6797 16.5571 18.6895C16.5558 18.6961 16.5564 18.7025 16.5552 18.7091L16.317 19.898C16.2799 20.0832 16.2646 20.2654 16.2591 20.4457C15.887 20.9162 14.9873 21.0797 14.1616 20.9772C13.3203 20.8733 12.1083 20.399 12.2168 19.5225L12.2183 19.5109ZM23.2 33.7562L22.8802 33.6781C22.1765 33.5076 21.6816 33.1558 21.367 32.6023C20.5016 31.0789 21.2566 28.6023 21.2643 28.5775C21.3864 28.1871 21.1688 27.7715 20.778 27.6485C20.3832 27.5273 19.97 27.7426 19.8471 28.1335C19.8111 28.2481 19.0512 30.7358 19.8122 32.7564C16.8085 32.6329 14.5883 31.7109 13.2027 30.0057C11.2962 27.6595 11.2707 24.1233 11.8827 21.5963L11.8922 21.5567C12.2916 21.8503 12.7901 22.0795 13.3704 22.22C13.569 22.2681 13.7774 22.3059 13.9936 22.333C15.0258 22.461 15.9332 22.3026 16.604 21.9222C16.7566 22.2051 16.9529 22.4708 17.2025 22.709C17.6911 23.1751 18.3324 23.505 19.0218 23.672C19.6826 23.832 20.3874 23.8424 21.0436 23.6798C21.1726 23.6477 21.2833 23.5826 21.3752 23.499C21.69 23.661 22.0468 23.7823 22.448 23.8504C27.0626 24.6214 27.8527 26.6053 27.8788 26.6745C27.9993 27.0583 28.4056 27.277 28.795 27.1642C29.1885 27.0497 29.4145 26.638 29.2996 26.2449C29.2131 25.9489 28.2915 23.3239 22.6924 22.3877C21.3865 22.1695 20.9488 21.0633 21.0936 20.0648C21.2712 18.8397 22.3151 17.7104 24.2474 17.9485C25.4685 18.0988 27.3401 18.6921 29.2531 19.5352C32.5418 20.9846 34.7993 22.5135 35.6099 23.8404C35.9769 24.4405 36.0108 25.3703 35.7082 26.5291C34.9113 29.5799 32.148 33.09 30.7449 33.8775C28.6084 35.0762 25.3555 34.2765 23.2 33.7562Z" fill="white"/>
</g>
<defs>
<filter id="filter0_d" x="0.962646" y="0.910156" width="45.8989" height="45.1925" filterUnits="userSpaceOnUse" color-interpolation-filters="sRGB">
<feFlood flood-opacity="0" result="BackgroundImageFix"/>
<feColorMatrix in="SourceAlpha" type="matrix" values="0 0 0 0 0 0 0 0 0 0 0 0 0 0 0 0 0 0 127 0" result="hardAlpha"/>
<feOffset dy="2"/>
<feGaussianBlur stdDeviation="3"/>
<feColorMatrix type="matrix" values="0 0 0 0 0.870938 0 0 0 0 1 0 0 0 0 0.508333 0 0 0 1 0"/>
<feBlend mode="normal" in2="BackgroundImageFix" result="effect1_dropShadow"/>
<feBlend mode="normal" in="SourceGraphic" in2="effect1_dropShadow" result="shape"/>
</filter>
</defs>
</svg>
