<svg width="42" height="48" viewBox="0 0 42 48" fill="none" xmlns="http://www.w3.org/2000/svg">
<g filter="url(#filter0_d)">
<path d="M33.5978 8.51252C32.3132 7.85182 30.9736 8.2379 30.3497 9.4339C29.2145 11.4547 25.4011 19.0038 23.944 22.0753C23.9381 22.0768 23.914 22.0748 23.8903 22.0566C23.8706 22.0414 23.8612 22.0225 23.8588 21.9931C23.7291 20.2388 23.5982 15.4033 23.5026 11.8727C23.4572 10.1959 23.4196 8.81336 23.3939 8.19188C23.3354 6.76559 22.2963 5.81648 20.8155 5.82998C19.3766 5.84304 17.8553 6.82031 17.8006 8.46657C17.8404 10.1842 17.8047 15.2199 17.7837 17.6973C17.5274 17.566 17.2397 17.4658 16.9179 17.4124C16.0193 17.2685 15.0478 17.5269 14.4811 18.2334C14.3299 17.8974 14.0855 17.6017 13.7528 17.3643C12.9091 16.763 11.6109 16.6478 10.6657 17.0911C9.93664 17.433 9.49545 18.048 9.42326 18.8231L8.76356 25.9082L8.76273 25.9186C8.73225 26.2457 8.77449 26.5546 8.87726 26.8391L8.73134 27.5387C7.92508 31.4042 9.11043 35.7351 12.9362 36.533C13.9568 36.7459 14.6666 36.7605 15.1945 36.6866C15.7053 37.0461 16.9639 37.4494 18.4702 37.7636C21.1588 38.3244 24.6077 38.5992 25.8687 37.825C27.1325 37.0495 28.2729 35.3715 28.6422 33.745C28.9166 32.5366 28.7606 31.4309 28.1903 30.5477C28.055 30.3382 27.8024 30.0727 27.4474 29.7558C28.4461 27.3554 33.8339 14.4212 34.8897 12.192C35.6552 10.626 34.7952 9.12752 33.5978 8.51252ZM16.7347 18.5477C16.8645 18.565 17.9886 18.7782 17.8333 19.7806C17.6067 21.2413 17.519 21.9066 17.3863 22.9134L17.3408 23.2568C16.5964 23.384 15.8985 23.8333 15.4069 24.4347C14.6696 25.3367 14.3139 26.6884 15.0251 27.7971C14.7503 27.7305 14.4936 27.6108 14.3001 27.4353C14.0301 27.1909 13.9218 26.8834 13.968 26.524C13.9749 26.4792 13.9847 26.4358 13.989 26.3899L13.994 26.3366L14.476 23.4649L15.1509 19.4453C15.3 18.5584 16.252 18.4702 16.7347 18.5477ZM11.1389 18.1334C11.7195 17.8612 12.5782 17.9359 13.0951 18.3049C13.4102 18.5295 13.5527 18.8281 13.5188 19.1923L12.9969 24.7982C12.9967 24.8006 12.9965 24.8027 12.9963 24.8051L12.867 26.1936L12.8529 26.2778L12.853 26.2778L12.8514 26.2877C12.8479 26.3086 12.8476 26.3289 12.8446 26.3497C12.7945 26.676 12.6064 26.9236 12.2734 27.0795C11.6931 27.3515 10.8336 27.2769 10.3172 26.9081C10.0021 26.6834 9.85963 26.3848 9.8935 26.0207L10.4154 20.4147C10.4156 20.4123 10.4158 20.4102 10.416 20.4078L10.554 18.9251C10.5874 18.566 10.7841 18.2995 11.1389 18.1334ZM27.5355 33.4931C27.1947 34.9942 26.1445 36.315 25.2836 36.8435C23.9669 37.6515 18.8905 36.8489 16.7235 36.1351C16.7949 36.1097 16.8624 36.0926 16.9374 36.0865C17.25 36.0613 17.4849 35.7844 17.4616 35.468C17.4384 35.1519 17.1663 34.9163 16.8531 34.9408C16.4541 34.973 16.1617 35.1214 15.9035 35.252C15.4285 35.4929 14.8898 35.766 13.171 35.4075C9.52364 34.6467 9.36956 30.2789 9.81297 27.9334C10.1003 28.1097 10.4215 28.2462 10.7668 28.3182C11.4337 28.4573 12.1585 28.3976 12.7466 28.1218C12.9018 28.049 13.0411 27.9613 13.1695 27.8648C13.2716 28.0184 13.3952 28.162 13.5401 28.2932C13.8964 28.6163 14.3589 28.8374 14.8517 28.9401C15.2767 29.0288 15.7233 29.024 16.1456 28.9261C17.7482 30.3133 20.9783 32.9912 21.1383 33.1238C21.3795 33.3246 21.738 33.2874 21.9376 33.0415C22.1369 32.7958 22.1025 32.4336 21.8604 32.2331C21.8148 32.1953 17.2786 28.4347 16.246 27.4864C15.4602 26.7647 15.7736 25.7844 16.2805 25.1645C16.8228 24.5013 17.7589 24.0556 18.5325 24.6418C19.1529 25.1124 20.1079 25.7826 21.2136 26.5587C23.4282 28.1129 26.7747 30.4618 27.2388 31.1798C27.7413 31.9585 27.6774 32.8675 27.5355 33.4931ZM33.8691 11.6932C32.8248 13.898 27.813 25.921 26.5326 28.9977C25.4006 28.1074 23.7873 26.9631 21.8641 25.6135C20.7676 24.8436 19.8205 24.1791 19.2167 23.7211C18.9776 23.5396 18.7286 23.4126 18.476 23.331L18.5119 23.0594C18.6438 22.0605 18.7305 21.4007 18.9552 19.9531C19.0061 19.6247 18.9857 19.3131 18.9071 19.0258C18.9157 18.1505 18.9867 10.6304 18.9359 8.46677C18.9671 7.54585 19.9182 6.9873 20.8197 6.97921C21.2368 6.9753 22.2115 7.09146 22.2594 8.24577C22.2848 8.8645 22.3221 10.2408 22.3672 11.9103C22.4631 15.4522 22.5946 20.3032 22.7263 22.0847C22.7676 22.6428 23.1797 23.1142 23.7175 23.2045C24.2427 23.3027 24.7332 23.0487 24.9673 22.5572C26.5365 19.2614 30.2865 11.8666 31.3448 9.98241C31.7509 9.2047 32.5334 9.25812 33.0796 9.53768C33.7892 9.90204 34.3398 10.7301 33.8691 11.6932Z" fill="white"/>
</g>
<defs>
<filter id="filter0_d" x="0.000244141" y="0" width="41.6833" height="47.9982" filterUnits="userSpaceOnUse" color-interpolation-filters="sRGB">
<feFlood flood-opacity="0" result="BackgroundImageFix"/>
<feColorMatrix in="SourceAlpha" type="matrix" values="0 0 0 0 0 0 0 0 0 0 0 0 0 0 0 0 0 0 127 0" result="hardAlpha"/>
<feOffset dy="2"/>
<feGaussianBlur stdDeviation="3"/>
<feColorMatrix type="matrix" values="0 0 0 0 0.870938 0 0 0 0 1 0 0 0 0 0.508333 0 0 0 1 0"/>
<feBlend mode="normal" in2="BackgroundImageFix" result="effect1_dropShadow"/>
<feBlend mode="normal" in="SourceGraphic" in2="effect1_dropShadow" result="shape"/>
</filter>
</defs>
</svg>
