<svg width="60" height="23" viewBox="0 0 60 23" fill="none" xmlns="http://www.w3.org/2000/svg">
<path d="M45.4205 21.7579C45.5285 22.0389 45.5218 22.3572 45.4865 22.6569C45.4751 22.7706 45.4505 22.885 45.4331 22.9993H41.3766C41.09 22.5673 40.7553 22.172 40.4326 21.77C40.3786 21.7044 40.3313 21.6329 40.3073 21.5546C40.2773 21.4529 40.2953 21.3453 40.32 21.2423C40.5046 20.2952 40.6673 19.3427 40.798 18.3836C40.882 17.7368 40.9586 17.0887 41.0306 16.4473C41.0726 16.07 41.1146 15.6921 41.1559 15.3089C41.1719 15.1684 41.1879 15.028 41.1973 14.8875C41.4553 14.923 41.8593 14.9805 42.0419 15.0454C42.3672 15.4373 42.6606 15.8246 42.9446 16.2005C43.2545 16.6105 43.5619 17.0118 43.8879 17.3964C43.7352 17.6893 43.5932 17.9876 43.5045 18.3053C43.4139 18.6237 43.3792 18.9535 43.3425 19.2825C43.3065 19.6544 43.2832 20.0791 43.5405 20.3493C43.6839 20.5052 43.8985 20.5781 44.1025 20.6557C44.6558 20.865 45.2178 21.2008 45.4205 21.7579ZM32.0142 21.2844C31.1903 20.7868 30.1023 21.1767 29.2003 20.847C28.6084 20.6316 28.161 20.1086 27.9164 19.5287C27.6771 18.9407 27.6237 18.3 27.6471 17.6639C27.6657 17.1429 27.731 16.6152 27.959 16.1416C28.2457 15.537 28.7643 15.0748 29.1057 14.4996C29.2563 14.2434 29.369 13.9692 29.4477 13.6836C29.381 13.6542 29.3157 13.6281 29.249 13.5973C29.1397 13.5498 29.031 13.5003 28.941 13.4548L28.7743 13.3766C28.347 13.1726 27.9437 12.98 27.5451 12.903C27.3791 12.8703 27.1997 12.8542 27.0104 12.8542C26.7231 12.8542 26.4038 12.8923 26.0298 12.9686C25.2698 13.1217 24.5505 13.3485 23.8365 13.6334C23.9392 13.7558 24.0438 13.8775 24.1352 14.0086C24.4585 14.4695 24.6978 14.9858 24.7571 15.5423C24.8825 16.6272 24.3565 17.6713 24.1958 18.7561C24.1658 18.9715 24.1478 19.1936 24.2258 19.4029C24.3512 19.7327 24.6851 19.93 24.9898 20.1099C26.2091 20.8236 27.3024 21.7472 28.2697 22.7779C28.3357 22.8495 28.4077 22.9217 28.473 23H33.2649C33.1809 22.8789 33.1149 22.7539 33.0435 22.6275C32.7676 22.1238 32.4982 21.584 32.0142 21.2844ZM60 8.87589C59.7667 9.37752 59.4007 9.81228 59.0334 10.2303C58.8427 10.4477 58.6167 10.6818 58.3254 10.6978H58.2921C58.2414 10.6978 58.1921 10.6898 58.1407 10.6898C58.0581 10.6898 57.9747 10.7065 57.9247 10.7647C57.8754 10.8062 57.8574 10.8731 57.8414 10.94C57.7747 11.2075 57.6747 11.4757 57.5494 11.7172C57.5334 11.7513 57.5154 11.776 57.5081 11.8014C57.2748 11.784 57.0494 11.76 56.8248 11.6677C56.6254 11.5834 56.4335 11.4503 56.2581 11.3085C56.0335 11.1413 55.8175 10.948 55.6415 10.7233C55.4755 10.5226 55.3168 10.2798 55.0828 10.1714C54.9842 10.1213 54.8748 10.0965 54.7662 10.0965C54.5835 10.0965 54.3995 10.1547 54.2495 10.2551C53.9915 10.4055 53.7995 10.6309 53.6082 10.865C53.4256 11.0824 53.2416 11.2911 53.0582 11.5178C52.6082 11.0242 52.2503 10.1882 51.9916 9.43571C50.4503 9.97882 49.359 10.2965 48.5004 11.5513C48.2837 11.877 47.8004 12.596 47.7837 12.9886C47.7584 13.3813 47.9844 14.2086 48.2257 14.5183C49.1257 15.6554 49.6843 16.4326 50.4503 17.4445C50.9256 18.0625 51.167 18.3809 51.1916 19.1581C51.1996 19.5594 50.967 20.2537 51.009 20.6543C51.0916 21.5238 50.717 22.6442 48.743 22.7191C48.643 21.891 48.4597 21.3734 48.6257 20.5119C48.6844 20.2443 48.6257 20.0684 48.601 19.7929C48.551 19.0157 47.4844 19.0317 46.7931 18.6812C44.8425 17.7114 44.0339 16.0894 42.6266 14.4173C42.3759 14.117 41.1679 14.0414 40.7933 13.9658C40.726 13.9491 40.668 13.9491 40.6013 13.9491C40.3673 13.9491 40.1353 14.0247 39.9013 14.1003C38.86 14.434 37.7927 14.5859 36.7101 14.5859C34.2848 14.5859 31.8269 13.8421 29.585 12.8134C29.493 12.7719 29.393 12.7298 29.3017 12.6796C28.785 12.4375 28.2684 12.17 27.7097 12.069C27.4757 12.0195 27.2424 12.0021 27.0097 12.0021C26.6264 12.0021 26.2351 12.0523 25.8598 12.1278C24.9011 12.3205 24.0265 12.6047 23.2012 12.9552C21.4259 13.7164 19.8853 14.82 18.252 16.1577C17.6767 16.6172 16.5521 16.9596 16.4441 17.6873C16.2441 19.0752 16.1354 19.8778 16.8514 20.7052C17.3761 21.3158 17.91 22.1686 18.2934 22.996H15.0015C14.9508 22.9465 14.9095 22.8876 14.8681 22.8455C13.7768 21.558 13.2429 20.8811 13.2935 19.9868C13.4435 19.017 13.4682 18.3308 13.5175 17.0767C14.5928 14.8113 16.1014 12.4623 16.9507 10.2216C17.0674 9.90391 17.1841 9.57818 17.2761 9.24375C16.6341 9.90391 16.0174 10.6229 15.4341 11.3754C14.5848 12.4542 13.7762 13.5906 12.9515 14.7283C12.1182 15.8567 11.2769 17.0104 10.185 18.0231C9.11832 19.017 7.69437 19.837 6.13575 19.936C6.01042 19.9447 5.87709 19.9447 5.75243 19.9447C4.34381 19.9447 2.97785 19.4517 1.90256 18.5735C0.752593 17.6378 -0.106046 16.1824 0.0106173 14.6026C0.0772818 13.8254 0.443937 13.0977 0.94392 12.5372C1.44457 11.986 2.06922 11.568 2.75186 11.2998C2.78519 11.2837 2.81853 11.2837 2.85186 11.2837C2.95185 11.2837 3.05185 11.3426 3.09318 11.4423C3.14252 11.576 3.07585 11.7272 2.95185 11.7767C1.76856 12.3118 0.785259 13.4147 0.74326 14.6527C0.701928 15.8975 1.46857 17.0934 2.47654 17.8298C3.34318 18.4732 4.42647 18.8237 5.48511 18.8237C5.66843 18.8237 5.85109 18.8157 6.02709 18.7909C7.25972 18.6572 8.35101 17.9549 9.26832 17.0439C10.185 16.1322 10.9763 15.0119 11.7349 13.8749C12.5015 12.7385 13.1849 11.5346 13.9262 10.3306C15.0175 8.55015 16.2674 6.91147 17.676 5.37245C18.3094 4.68754 18.9753 3.98525 19.7093 3.37459C19.1007 5.8995 19.034 8.51604 19.5013 10.9908C19.5093 11.0242 19.534 11.049 19.5593 11.041C19.6006 11.041 19.626 11.0155 19.626 10.9828C19.526 7.83114 20.2926 4.72901 21.7346 2.07033C22.2006 1.87035 22.6839 1.72788 23.2012 1.64361C22.6512 4.09361 22.3679 6.5931 22.3599 9.06784C22.7259 6.47605 23.3932 3.95181 24.3178 1.55197C24.4932 1.54328 24.6678 1.53525 24.8345 1.53525C25.1931 1.53525 25.5511 1.55197 25.9011 1.5687C25.4925 3.89295 25.4431 6.25065 25.7598 8.53276C25.7678 8.55818 25.7844 8.57423 25.8098 8.57423C25.8351 8.57423 25.8604 8.55818 25.8604 8.52407C25.9271 6.14965 26.3931 3.82539 27.2017 1.66033C27.785 1.70982 28.3764 1.77671 28.9603 1.85229C28.7937 2.58802 28.6437 3.32376 28.5184 4.06819C28.3437 5.09621 28.227 6.13293 28.1857 7.16965C28.135 8.19834 28.1437 9.27586 28.5277 10.2544C28.5357 10.2791 28.5604 10.2959 28.585 10.2878C28.6104 10.2791 28.6264 10.2544 28.6184 10.2209C28.3764 9.23439 28.5017 8.21439 28.669 7.21981C28.8437 6.22523 29.0857 5.23868 29.377 4.26817C29.6103 3.50769 29.8683 2.75457 30.1516 2.00211C30.7103 2.07769 31.2769 2.14391 31.8436 2.21079C31.6356 3.23948 31.4603 4.28423 31.3269 5.32964C31.2016 6.3998 31.1189 7.47799 31.1189 8.54815C31.1189 9.62633 31.2443 10.7554 31.7856 11.6998C31.8022 11.7252 31.8363 11.7412 31.8609 11.7252C31.8936 11.7078 31.9109 11.6744 31.8936 11.6409C31.4863 10.6717 31.5023 9.60962 31.6283 8.58159C31.7529 7.54487 31.9609 6.50815 32.2116 5.49685C32.4776 4.43539 32.7942 3.38128 33.1435 2.33653C33.7855 2.3867 34.4268 2.42884 35.0695 2.42884C35.0775 2.42884 35.0775 2.42884 35.0855 2.42884C34.9688 3.19801 34.8688 3.97522 34.8022 4.75309C34.6015 7.10209 34.6855 9.50193 35.3181 11.7593C35.3181 11.7673 35.3355 11.784 35.3521 11.7754C35.3601 11.7754 35.3768 11.7593 35.3681 11.7419C35.0101 9.4424 35.2021 7.11881 35.6521 4.87817C35.8275 4.03408 36.0354 3.20604 36.2681 2.37867C36.9688 2.32851 37.6594 2.22818 38.3427 2.06097C38.2014 2.97261 38.0847 3.89228 38.0187 4.81128C37.8267 7.29472 37.96 9.84438 38.7007 12.2014C38.71 12.2362 38.7427 12.2516 38.7767 12.2435C38.81 12.2435 38.826 12.2094 38.826 12.1767C38.3347 9.7688 38.468 7.30275 38.9007 4.92833C39.1007 3.82473 39.3673 2.73851 39.6667 1.65966C40.5586 1.32523 41.4173 0.907201 42.2999 0.572775C41.8753 4.0421 42.2506 7.57029 43.3919 10.7888C43.4005 10.8049 43.4259 10.8222 43.4499 10.8142C43.4752 10.8142 43.4832 10.7888 43.4832 10.764C42.6586 7.22784 42.7752 3.54113 43.6999 0.138024C43.9665 0.0878602 44.2252 0.0376967 44.5005 0.0122803C45.1085 -0.0291884 45.7085 0.0376956 46.2918 0.162771C46.1165 1.31654 46.0005 2.47833 45.9671 3.64079C45.9425 4.66882 45.9671 5.69751 46.0505 6.7175C46.1425 7.71208 46.2338 8.83241 46.9004 9.65978C46.9244 9.68519 46.9584 9.69322 46.9831 9.6765C47.0171 9.65108 47.0244 9.60961 47.0084 9.5842C46.4744 8.73208 46.5251 7.69469 46.5664 6.70881C46.6078 5.70553 46.7084 4.71029 46.8671 3.72373C47.0331 2.62815 47.2751 1.54997 47.5831 0.496527C47.7997 0.563412 48.0244 0.630297 48.2504 0.697182C48.591 0.805536 48.9324 0.889811 49.2664 0.956696C49.225 1.22357 49.1824 1.49178 49.1497 1.76734C49.0324 2.7452 48.9664 3.73176 48.9737 4.71831C48.9737 5.21192 48.983 5.69617 49.0157 6.18978C49.065 6.68273 49.1737 7.20911 49.4903 7.61109C49.507 7.62781 49.5403 7.6365 49.5657 7.62781C49.5903 7.61109 49.5983 7.56962 49.5817 7.5442C49.123 6.69945 49.3897 5.69617 49.4737 4.75175C49.5983 3.79864 49.7823 2.85423 50.0237 1.92586C50.0983 1.6416 50.181 1.36603 50.265 1.0811C50.5896 1.09782 50.923 1.09782 51.2643 1.05635C51.7143 1.00619 52.1643 0.948002 52.6229 0.91389C52.0483 2.57799 51.6563 4.33372 51.7563 6.07206C51.7563 6.08076 51.7563 6.08076 51.7649 6.08076C51.7729 6.08879 51.7809 6.08076 51.7809 6.07206C51.9476 4.23272 52.6309 2.51913 53.4722 0.93061C53.6729 0.947331 53.8809 0.972079 54.0715 1.01422C54.5808 1.13996 54.9888 1.4075 55.5221 1.43225H55.5715C56.0228 1.43225 56.4468 1.19815 56.8801 1.07308C56.9548 1.04766 57.0388 1.03161 57.1141 1.03161C57.1388 1.03161 57.1554 1.03161 57.1808 1.03963C57.3228 1.05636 57.4468 1.15668 57.5307 1.27373C57.9387 1.86767 57.4634 2.75323 57.8307 3.37192C57.8974 3.49766 57.9967 3.58929 58.0807 3.70634C58.3141 4.00732 58.4467 4.37519 58.622 4.72634C58.6387 4.75175 58.6554 4.7765 58.672 4.80994C58.7634 5.27011 58.822 5.72961 58.8634 6.19781C58.88 6.4406 58.9047 6.69075 58.9714 6.93354C59.0387 7.16764 59.1634 7.39304 59.2894 7.60239C59.5247 8.03113 59.7587 8.45785 60 8.87589ZM57.6834 5.82459C57.6834 5.59919 57.5001 5.40656 57.2668 5.40656C57.0421 5.40656 56.8501 5.59919 56.8501 5.82459C56.8501 6.05869 57.0421 6.24262 57.2668 6.24262C57.5001 6.24262 57.6834 6.05869 57.6834 5.82459Z" fill="#92FFD1"/>
</svg>
