<svg xmlns="http://www.w3.org/2000/svg" width="488" height="221" viewBox="0 0 488 221" fill="none">
<mask id="path-1-inside-1" fill="white">
<path d="M449.973 207.059C449.973 321.349 357.243 414 242.854 414C128.465 414 35.7341 321.349 35.7341 207.059V207.059C35.7341 204.534 33.7078 202.458 31.1829 202.458H12.3265C1.0128 202.458 -4.01551 188.236 4.78402 181.125L40.893 151.944C42.8054 150.399 44.1883 148.295 44.914 145.946C71.0053 61.4879 149.757 0.118408 242.854 0.118408C336.117 0.118408 414.983 61.707 440.932 146.398C441.662 148.78 443.067 150.911 445.013 152.466L483.355 183.113C492.217 190.197 487.208 204.487 475.862 204.487H452.53C451.115 204.487 449.973 205.643 449.973 207.059V207.059Z" clip-rule="evenodd" fill-rule="evenodd"/>
</mask>
<path fill-rule="evenodd" clip-rule="evenodd" d="M449.973 207.059C449.973 321.349 357.243 414 242.854 414C128.465 414 35.7341 321.349 35.7341 207.059V207.059C35.7341 204.534 33.7078 202.458 31.1829 202.458H12.3265C1.0128 202.458 -4.01551 188.236 4.78402 181.125L40.893 151.944C42.8054 150.399 44.1883 148.295 44.914 145.946C71.0053 61.4879 149.757 0.118408 242.854 0.118408C336.117 0.118408 414.983 61.707 440.932 146.398C441.662 148.78 443.067 150.911 445.013 152.466L483.355 183.113C492.217 190.197 487.208 204.487 475.862 204.487H452.53C451.115 204.487 449.973 205.643 449.973 207.059V207.059Z" fill="#0A2A3C" style="&#10;    filter: drop-shadow(5px 5px 0px #101421) drop-shadow(-5px 5px 0px #101421) drop-shadow(5px -5px 0px #101421) drop-shadow(-5px -5px 0px #101421);&#10;"/>
<path d="M440.932 146.398L439.02 146.984L440.932 146.398ZM445.013 152.466L443.764 154.028L445.013 152.466ZM40.893 151.944L39.6359 150.389L40.893 151.944ZM44.914 145.946L43.0032 145.356L44.914 145.946ZM4.78402 181.125L3.52694 179.569L4.78402 181.125ZM483.355 183.113L482.106 184.675L483.355 183.113ZM242.854 416C358.346 416 451.973 322.456 451.973 207.059H447.973C447.973 320.243 356.14 412 242.854 412V416ZM33.7341 207.059C33.7341 322.456 127.362 416 242.854 416V412C129.568 412 37.7341 320.243 37.7341 207.059H33.7341ZM12.3265 204.458H31.1829V200.458H12.3265V204.458ZM39.6359 150.389L3.52694 179.569L6.0411 182.68L42.1501 153.5L39.6359 150.389ZM242.854 -1.88159C148.856 -1.88159 69.3463 60.0823 43.0032 145.356L46.8249 146.536C72.6644 62.8935 150.657 2.11841 242.854 2.11841V-1.88159ZM442.845 145.812C416.645 60.3034 337.019 -1.88159 242.854 -1.88159V2.11841C335.215 2.11841 413.321 63.1105 439.02 146.984L442.845 145.812ZM484.604 181.551L446.262 150.904L443.764 154.028L482.106 184.675L484.604 181.551ZM452.53 206.487H475.862V202.487H452.53V206.487ZM452.53 202.487C449.994 202.487 447.973 204.555 447.973 207.059H451.973C451.973 206.732 452.235 206.487 452.53 206.487V202.487ZM439.02 146.984C439.862 149.731 441.488 152.209 443.764 154.028L446.262 150.904C444.646 149.612 443.463 147.829 442.845 145.812L439.02 146.984ZM42.1501 153.5C44.3867 151.692 45.9879 149.246 46.8249 146.536L43.0032 145.356C42.3887 147.345 41.224 149.105 39.6359 150.389L42.1501 153.5ZM12.3265 200.458C2.89842 200.458 -1.29184 188.606 6.0411 182.68L3.52694 179.569C-6.73917 187.866 -0.872821 204.458 12.3265 204.458V200.458ZM482.106 184.675C489.492 190.579 485.317 202.487 475.862 202.487V206.487C489.099 206.487 494.943 189.815 484.604 181.551L482.106 184.675ZM37.7341 207.059C37.7341 203.458 34.8406 200.458 31.1829 200.458V204.458C32.5749 204.458 33.7341 205.61 33.7341 207.059H37.7341Z" fill="#92FFD1" mask="url(#path-1-inside-1)"/>
</svg>